%TF.GenerationSoftware,KiCad,Pcbnew,9.0.0*%
%TF.CreationDate,2025-05-06T13:44:15-06:00*%
%TF.ProjectId,2025_04_STM32F103_RobotBrain,32303235-5f30-4345-9f53-544d33324631,rev?*%
%TF.SameCoordinates,Original*%
%TF.FileFunction,Copper,L2,Bot*%
%TF.FilePolarity,Positive*%
%FSLAX46Y46*%
G04 Gerber Fmt 4.6, Leading zero omitted, Abs format (unit mm)*
G04 Created by KiCad (PCBNEW 9.0.0) date 2025-05-06 13:44:15*
%MOMM*%
%LPD*%
G01*
G04 APERTURE LIST*
G04 Aperture macros list*
%AMRoundRect*
0 Rectangle with rounded corners*
0 $1 Rounding radius*
0 $2 $3 $4 $5 $6 $7 $8 $9 X,Y pos of 4 corners*
0 Add a 4 corners polygon primitive as box body*
4,1,4,$2,$3,$4,$5,$6,$7,$8,$9,$2,$3,0*
0 Add four circle primitives for the rounded corners*
1,1,$1+$1,$2,$3*
1,1,$1+$1,$4,$5*
1,1,$1+$1,$6,$7*
1,1,$1+$1,$8,$9*
0 Add four rect primitives between the rounded corners*
20,1,$1+$1,$2,$3,$4,$5,0*
20,1,$1+$1,$4,$5,$6,$7,0*
20,1,$1+$1,$6,$7,$8,$9,0*
20,1,$1+$1,$8,$9,$2,$3,0*%
G04 Aperture macros list end*
%TA.AperFunction,ComponentPad*%
%ADD10O,1.700000X1.700000*%
%TD*%
%TA.AperFunction,ComponentPad*%
%ADD11R,1.700000X1.700000*%
%TD*%
%TA.AperFunction,ComponentPad*%
%ADD12RoundRect,0.250000X-0.600000X-0.750000X0.600000X-0.750000X0.600000X0.750000X-0.600000X0.750000X0*%
%TD*%
%TA.AperFunction,ComponentPad*%
%ADD13O,1.700000X2.000000*%
%TD*%
%TA.AperFunction,ComponentPad*%
%ADD14RoundRect,0.250000X-0.725000X0.600000X-0.725000X-0.600000X0.725000X-0.600000X0.725000X0.600000X0*%
%TD*%
%TA.AperFunction,ComponentPad*%
%ADD15O,1.950000X1.700000*%
%TD*%
%TA.AperFunction,ComponentPad*%
%ADD16O,1.700000X1.950000*%
%TD*%
%TA.AperFunction,ComponentPad*%
%ADD17RoundRect,0.250000X-0.600000X-0.725000X0.600000X-0.725000X0.600000X0.725000X-0.600000X0.725000X0*%
%TD*%
%TA.AperFunction,ComponentPad*%
%ADD18RoundRect,0.250000X0.725000X-0.600000X0.725000X0.600000X-0.725000X0.600000X-0.725000X-0.600000X0*%
%TD*%
%TA.AperFunction,ViaPad*%
%ADD19C,0.600000*%
%TD*%
%TA.AperFunction,Conductor*%
%ADD20C,0.254000*%
%TD*%
%TA.AperFunction,Conductor*%
%ADD21C,0.381000*%
%TD*%
G04 APERTURE END LIST*
D10*
%TO.P,J4,4,Pin_4*%
%TO.N,/SWDIO*%
X123780000Y-40040000D03*
%TO.P,J4,3,Pin_3*%
%TO.N,GND*%
X121240000Y-40040000D03*
%TO.P,J4,2,Pin_2*%
%TO.N,/SWCLK*%
X118700000Y-40040000D03*
D11*
%TO.P,J4,1,Pin_1*%
%TO.N,+3V3*%
X116160000Y-40040000D03*
%TD*%
D12*
%TO.P,J6,1,Pin_1*%
%TO.N,+3V3*%
X122300000Y-99000000D03*
D13*
%TO.P,J6,2,Pin_2*%
%TO.N,GND*%
X124800000Y-99000000D03*
%TD*%
D11*
%TO.P,J9,1,Pin_1*%
%TO.N,+3V3*%
X178500000Y-49800000D03*
D10*
%TO.P,J9,2,Pin_2*%
%TO.N,/PS2_SCK*%
X178500000Y-47260000D03*
%TO.P,J9,3,Pin_3*%
%TO.N,unconnected-(J9-Pin_3-Pad3)*%
X178500000Y-44720000D03*
%TO.P,J9,4,Pin_4*%
%TO.N,/PS2_CS*%
X178500000Y-42180000D03*
%TO.P,J9,5,Pin_5*%
%TO.N,GND*%
X178500000Y-39640000D03*
%TO.P,J9,6,Pin_6*%
%TO.N,/PS2_MISO*%
X178500000Y-37100000D03*
%TO.P,J9,7,Pin_7*%
%TO.N,/PS2_MOSI*%
X178500000Y-34560000D03*
%TD*%
D14*
%TO.P,J8,1,Pin_1*%
%TO.N,/E2A*%
X158900000Y-89500000D03*
D15*
%TO.P,J8,2,Pin_2*%
%TO.N,/E2B*%
X158900000Y-92000000D03*
%TO.P,J8,3,Pin_3*%
%TO.N,/E1A*%
X158900000Y-94500000D03*
%TO.P,J8,4,Pin_4*%
%TO.N,/E1B*%
X158900000Y-97000000D03*
%TO.P,J8,5,Pin_5*%
%TO.N,/PWR_ADC*%
X158900000Y-99500000D03*
%TD*%
D11*
%TO.P,J2,1,Pin_1*%
%TO.N,+5V*%
X176465000Y-79835000D03*
D10*
%TO.P,J2,2,Pin_2*%
%TO.N,GND*%
X176465000Y-77295000D03*
%TO.P,J2,3,Pin_3*%
%TO.N,/IMU_I2C_SCL*%
X176465000Y-74755000D03*
%TO.P,J2,4,Pin_4*%
%TO.N,/IMU_I2C_SDA*%
X176465000Y-72215000D03*
%TO.P,J2,5,Pin_5*%
%TO.N,unconnected-(J2-Pin_5-Pad5)*%
X176465000Y-69675000D03*
%TO.P,J2,6,Pin_6*%
%TO.N,unconnected-(J2-Pin_6-Pad6)*%
X176465000Y-67135000D03*
%TO.P,J2,7,Pin_7*%
%TO.N,unconnected-(J2-Pin_7-Pad7)*%
X176465000Y-64595000D03*
%TO.P,J2,8,Pin_8*%
%TO.N,/IMU_INT*%
X176465000Y-62055000D03*
%TD*%
D14*
%TO.P,J11,1,Pin_1*%
%TO.N,+3V3*%
X98720000Y-46270000D03*
D15*
%TO.P,J11,2,Pin_2*%
%TO.N,/USER_TX*%
X98720000Y-48770000D03*
%TO.P,J11,3,Pin_3*%
%TO.N,/USER_RX*%
X98720000Y-51270000D03*
%TO.P,J11,4,Pin_4*%
%TO.N,GND*%
X98720000Y-53770000D03*
%TD*%
D11*
%TO.P,J3,1,Pin_1*%
%TO.N,+5V*%
X135110000Y-100850000D03*
D10*
%TO.P,J3,2,Pin_2*%
%TO.N,/ULTRA_TRIG*%
X137650000Y-100850000D03*
%TO.P,J3,3,Pin_3*%
%TO.N,/ULTRA_ECHO*%
X140190000Y-100850000D03*
%TO.P,J3,4,Pin_4*%
%TO.N,GND*%
X142730000Y-100850000D03*
%TD*%
D16*
%TO.P,J7,4,Pin_4*%
%TO.N,/BN1*%
X160010000Y-49370000D03*
%TO.P,J7,3,Pin_3*%
%TO.N,/BN2*%
X157510000Y-49370000D03*
%TO.P,J7,2,Pin_2*%
%TO.N,/AN1*%
X155010000Y-49370000D03*
D17*
%TO.P,J7,1,Pin_1*%
%TO.N,/AN2*%
X152510000Y-49370000D03*
%TD*%
D12*
%TO.P,J5,1,Pin_1*%
%TO.N,+5V*%
X111750000Y-98975000D03*
D13*
%TO.P,J5,2,Pin_2*%
%TO.N,GND*%
X114250000Y-98975000D03*
%TD*%
D18*
%TO.P,J10,1,Pin_1*%
%TO.N,+3V3*%
X97510000Y-78760000D03*
D15*
%TO.P,J10,2,Pin_2*%
%TO.N,/X1*%
X97510000Y-76260000D03*
%TO.P,J10,3,Pin_3*%
%TO.N,/X2*%
X97510000Y-73760000D03*
%TO.P,J10,4,Pin_4*%
%TO.N,/X3*%
X97510000Y-71260000D03*
%TO.P,J10,5,Pin_5*%
%TO.N,/X4*%
X97510000Y-68760000D03*
%TO.P,J10,6,Pin_6*%
%TO.N,GND*%
X97510000Y-66260000D03*
%TD*%
D19*
%TO.N,/PS2_CS*%
X163450000Y-54223000D03*
X161850000Y-55500000D03*
%TO.N,GND*%
X135300000Y-31060000D03*
X135310000Y-31970000D03*
X148850000Y-62750000D03*
X138320000Y-48630000D03*
X136780000Y-35480000D03*
X137200000Y-59890000D03*
X135310000Y-36460000D03*
X148430000Y-76280000D03*
X133260000Y-70570000D03*
X160490000Y-38990000D03*
X156300000Y-38970000D03*
X135310000Y-75730000D03*
X141240000Y-79920000D03*
X142300000Y-74080000D03*
X162820000Y-30550000D03*
X150070000Y-72380000D03*
X174000000Y-92900000D03*
X132070000Y-71580000D03*
X133640000Y-85390000D03*
X141410000Y-36420000D03*
X145110000Y-70690000D03*
X120900000Y-71000000D03*
X173350000Y-99580000D03*
X153880000Y-30560000D03*
X100250000Y-97200000D03*
X148580000Y-83950000D03*
X135220000Y-88640000D03*
X141420000Y-37150000D03*
X141430000Y-31900000D03*
X141430000Y-31090000D03*
X157700000Y-38950000D03*
X148460000Y-78570000D03*
X137960000Y-77270000D03*
X148070000Y-63560000D03*
X148400000Y-32585000D03*
X156420000Y-36240000D03*
X133510000Y-59260000D03*
X142390000Y-77290000D03*
X173990000Y-90010000D03*
X135310000Y-37250000D03*
X175250000Y-98050000D03*
X131350000Y-77800000D03*
X147170000Y-41280000D03*
X101550000Y-104850000D03*
%TO.N,+5V*%
X129500000Y-101483000D03*
X132529000Y-104421000D03*
%TO.N,/IMU_INT*%
X165304000Y-62573000D03*
X163500000Y-64327000D03*
%TO.N,/E2B*%
X159973000Y-93150000D03*
X161550000Y-95200000D03*
%TD*%
D20*
%TO.N,/IMU_INT*%
X163631000Y-64327000D02*
X163500000Y-64327000D01*
X165304000Y-62654000D02*
X163631000Y-64327000D01*
X165304000Y-62573000D02*
X165304000Y-62654000D01*
D21*
%TO.N,+5V*%
X129591000Y-101483000D02*
X129500000Y-101483000D01*
X132529000Y-104421000D02*
X129591000Y-101483000D01*
D20*
%TO.N,/PS2_CS*%
X163127000Y-54223000D02*
X162000000Y-55350000D01*
X163450000Y-54223000D02*
X163127000Y-54223000D01*
X162000000Y-55350000D02*
X161850000Y-55500000D01*
%TO.N,/E2B*%
X159973000Y-93150000D02*
X159973000Y-93623000D01*
X159973000Y-93623000D02*
X161550000Y-95200000D01*
X161508438Y-95200000D02*
X161550000Y-95200000D01*
%TD*%
%TA.AperFunction,Conductor*%
%TO.N,GND*%
G36*
X179103736Y-30250727D02*
G01*
X179393796Y-30268272D01*
X179408657Y-30270076D01*
X179690797Y-30321781D01*
X179705334Y-30325364D01*
X179979182Y-30410699D01*
X179993163Y-30416001D01*
X180254732Y-30533724D01*
X180267987Y-30540681D01*
X180513458Y-30689072D01*
X180525776Y-30697574D01*
X180751573Y-30874474D01*
X180762781Y-30884404D01*
X180965595Y-31087219D01*
X180975525Y-31098427D01*
X181152422Y-31324218D01*
X181160928Y-31336541D01*
X181309315Y-31582004D01*
X181316274Y-31595263D01*
X181433996Y-31856832D01*
X181439305Y-31870833D01*
X181524634Y-32144664D01*
X181528218Y-32159202D01*
X181579922Y-32441340D01*
X181581727Y-32456205D01*
X181589097Y-32578033D01*
X181595513Y-32684110D01*
X181599274Y-32746274D01*
X181599500Y-32753761D01*
X181599500Y-106746250D01*
X181599274Y-106753737D01*
X181581728Y-107043795D01*
X181579923Y-107058660D01*
X181528219Y-107340798D01*
X181524635Y-107355336D01*
X181439304Y-107629175D01*
X181433994Y-107643177D01*
X181316277Y-107904731D01*
X181309319Y-107917989D01*
X181160928Y-108163459D01*
X181152422Y-108175782D01*
X180975525Y-108401573D01*
X180965595Y-108412781D01*
X180762781Y-108615596D01*
X180751573Y-108625526D01*
X180525782Y-108802422D01*
X180513458Y-108810928D01*
X180267987Y-108959319D01*
X180254730Y-108966277D01*
X179993176Y-109083994D01*
X179979174Y-109089304D01*
X179705335Y-109174635D01*
X179690797Y-109178219D01*
X179408659Y-109229923D01*
X179393794Y-109231728D01*
X179200701Y-109243408D01*
X179103712Y-109249275D01*
X179096240Y-109249501D01*
X95103752Y-109249501D01*
X95096265Y-109249275D01*
X94806205Y-109231729D01*
X94791340Y-109229924D01*
X94509202Y-109178220D01*
X94494664Y-109174636D01*
X94220832Y-109089307D01*
X94206831Y-109083998D01*
X93945263Y-108966276D01*
X93932004Y-108959317D01*
X93686540Y-108810929D01*
X93674217Y-108802423D01*
X93448426Y-108625527D01*
X93437218Y-108615597D01*
X93234403Y-108412782D01*
X93224473Y-108401574D01*
X93224472Y-108401573D01*
X93047572Y-108175777D01*
X93039074Y-108163466D01*
X92890679Y-107917989D01*
X92883724Y-107904737D01*
X92766001Y-107643168D01*
X92760692Y-107629167D01*
X92752095Y-107601579D01*
X92675362Y-107355335D01*
X92671779Y-107340798D01*
X92620075Y-107058660D01*
X92618270Y-107043795D01*
X92600726Y-106753752D01*
X92600500Y-106746265D01*
X92600500Y-101404153D01*
X128699500Y-101404153D01*
X128699500Y-101561846D01*
X128730261Y-101716489D01*
X128730264Y-101716501D01*
X128790602Y-101862172D01*
X128790609Y-101862185D01*
X128878210Y-101993288D01*
X128878213Y-101993292D01*
X128989707Y-102104786D01*
X128989711Y-102104789D01*
X129120814Y-102192390D01*
X129120827Y-102192397D01*
X129230082Y-102237651D01*
X129266503Y-102252737D01*
X129375679Y-102274453D01*
X129437586Y-102306836D01*
X129439166Y-102308388D01*
X131726205Y-104595427D01*
X131755590Y-104649242D01*
X131757494Y-104648665D01*
X131759264Y-104654501D01*
X131819602Y-104800172D01*
X131819609Y-104800185D01*
X131907210Y-104931288D01*
X131907213Y-104931292D01*
X132018707Y-105042786D01*
X132018711Y-105042789D01*
X132149814Y-105130390D01*
X132149827Y-105130397D01*
X132295498Y-105190735D01*
X132295503Y-105190737D01*
X132450153Y-105221499D01*
X132450156Y-105221500D01*
X132450158Y-105221500D01*
X132607844Y-105221500D01*
X132607845Y-105221499D01*
X132762497Y-105190737D01*
X132908179Y-105130394D01*
X133039289Y-105042789D01*
X133150789Y-104931289D01*
X133238394Y-104800179D01*
X133298737Y-104654497D01*
X133329500Y-104499842D01*
X133329500Y-104342158D01*
X133329500Y-104342155D01*
X133329499Y-104342153D01*
X133298738Y-104187510D01*
X133298737Y-104187503D01*
X133298735Y-104187498D01*
X133238397Y-104041827D01*
X133238390Y-104041814D01*
X133150789Y-103910711D01*
X133150786Y-103910707D01*
X133039292Y-103799213D01*
X133039288Y-103799210D01*
X132908185Y-103711609D01*
X132908172Y-103711602D01*
X132762501Y-103651264D01*
X132756665Y-103649494D01*
X132757372Y-103647160D01*
X132704968Y-103619719D01*
X132703427Y-103618205D01*
X130241225Y-101156003D01*
X130214345Y-101115775D01*
X130209394Y-101103821D01*
X130209389Y-101103814D01*
X130121789Y-100972711D01*
X130121786Y-100972707D01*
X130010292Y-100861213D01*
X130010288Y-100861210D01*
X129879185Y-100773609D01*
X129879172Y-100773602D01*
X129733501Y-100713264D01*
X129733489Y-100713261D01*
X129578845Y-100682500D01*
X129578842Y-100682500D01*
X129421158Y-100682500D01*
X129421155Y-100682500D01*
X129266510Y-100713261D01*
X129266498Y-100713264D01*
X129120827Y-100773602D01*
X129120814Y-100773609D01*
X128989711Y-100861210D01*
X128989707Y-100861213D01*
X128878213Y-100972707D01*
X128878210Y-100972711D01*
X128790609Y-101103814D01*
X128790602Y-101103827D01*
X128730264Y-101249498D01*
X128730261Y-101249510D01*
X128699500Y-101404153D01*
X92600500Y-101404153D01*
X92600500Y-98174983D01*
X110399500Y-98174983D01*
X110399500Y-99775001D01*
X110399501Y-99775018D01*
X110410000Y-99877796D01*
X110410001Y-99877799D01*
X110465185Y-100044331D01*
X110465186Y-100044334D01*
X110557288Y-100193656D01*
X110681344Y-100317712D01*
X110830666Y-100409814D01*
X110997203Y-100464999D01*
X111099991Y-100475500D01*
X112400008Y-100475499D01*
X112502797Y-100464999D01*
X112669334Y-100409814D01*
X112818656Y-100317712D01*
X112942712Y-100193656D01*
X113034814Y-100044334D01*
X113034814Y-100044331D01*
X113038448Y-100038441D01*
X113090395Y-99991716D01*
X113159358Y-99980493D01*
X113223440Y-100008336D01*
X113231668Y-100015856D01*
X113370535Y-100154723D01*
X113370540Y-100154727D01*
X113542442Y-100279620D01*
X113731782Y-100376095D01*
X113933871Y-100441757D01*
X114000000Y-100452231D01*
X114000000Y-99408012D01*
X114057007Y-99440925D01*
X114184174Y-99475000D01*
X114315826Y-99475000D01*
X114442993Y-99440925D01*
X114500000Y-99408012D01*
X114500000Y-100452230D01*
X114566126Y-100441757D01*
X114566129Y-100441757D01*
X114768217Y-100376095D01*
X114957557Y-100279620D01*
X115129459Y-100154727D01*
X115129464Y-100154723D01*
X115279723Y-100004464D01*
X115279727Y-100004459D01*
X115404620Y-99832557D01*
X115501095Y-99643217D01*
X115566757Y-99441130D01*
X115566757Y-99441127D01*
X115600000Y-99231246D01*
X115600000Y-99225000D01*
X114683012Y-99225000D01*
X114715925Y-99167993D01*
X114750000Y-99040826D01*
X114750000Y-98909174D01*
X114715925Y-98782007D01*
X114683012Y-98725000D01*
X115600000Y-98725000D01*
X115600000Y-98718753D01*
X115566757Y-98508872D01*
X115566757Y-98508869D01*
X115501094Y-98306780D01*
X115473758Y-98253130D01*
X115473757Y-98253129D01*
X115446677Y-98199983D01*
X120949500Y-98199983D01*
X120949500Y-99800001D01*
X120949501Y-99800018D01*
X120960000Y-99902796D01*
X120960001Y-99902799D01*
X120993690Y-100004464D01*
X121015186Y-100069334D01*
X121107288Y-100218656D01*
X121231344Y-100342712D01*
X121380666Y-100434814D01*
X121547203Y-100489999D01*
X121649991Y-100500500D01*
X122950008Y-100500499D01*
X123052797Y-100489999D01*
X123219334Y-100434814D01*
X123368656Y-100342712D01*
X123492712Y-100218656D01*
X123584814Y-100069334D01*
X123584814Y-100069331D01*
X123588448Y-100063441D01*
X123640395Y-100016716D01*
X123709358Y-100005493D01*
X123773440Y-100033336D01*
X123781668Y-100040856D01*
X123920535Y-100179723D01*
X123920540Y-100179727D01*
X124092442Y-100304620D01*
X124281782Y-100401095D01*
X124483871Y-100466757D01*
X124550000Y-100477231D01*
X124550000Y-99433012D01*
X124607007Y-99465925D01*
X124734174Y-99500000D01*
X124865826Y-99500000D01*
X124992993Y-99465925D01*
X125050000Y-99433012D01*
X125050000Y-100477230D01*
X125116126Y-100466757D01*
X125116129Y-100466757D01*
X125318217Y-100401095D01*
X125507557Y-100304620D01*
X125679459Y-100179727D01*
X125679464Y-100179723D01*
X125829723Y-100029464D01*
X125829727Y-100029459D01*
X125885906Y-99952135D01*
X133759500Y-99952135D01*
X133759500Y-101747870D01*
X133759501Y-101747876D01*
X133765908Y-101807483D01*
X133816202Y-101942328D01*
X133816206Y-101942335D01*
X133902452Y-102057544D01*
X133902455Y-102057547D01*
X134017664Y-102143793D01*
X134017671Y-102143797D01*
X134152517Y-102194091D01*
X134152516Y-102194091D01*
X134159444Y-102194835D01*
X134212127Y-102200500D01*
X136007872Y-102200499D01*
X136067483Y-102194091D01*
X136202331Y-102143796D01*
X136317546Y-102057546D01*
X136403796Y-101942331D01*
X136452810Y-101810916D01*
X136494681Y-101754984D01*
X136560145Y-101730566D01*
X136628418Y-101745417D01*
X136656673Y-101766569D01*
X136770213Y-101880109D01*
X136942179Y-102005048D01*
X136942181Y-102005049D01*
X136942184Y-102005051D01*
X137131588Y-102101557D01*
X137333757Y-102167246D01*
X137543713Y-102200500D01*
X137543714Y-102200500D01*
X137756286Y-102200500D01*
X137756287Y-102200500D01*
X137966243Y-102167246D01*
X138168412Y-102101557D01*
X138357816Y-102005051D01*
X138444138Y-101942335D01*
X138529786Y-101880109D01*
X138529788Y-101880106D01*
X138529792Y-101880104D01*
X138680104Y-101729792D01*
X138680106Y-101729788D01*
X138680109Y-101729786D01*
X138805048Y-101557820D01*
X138805047Y-101557820D01*
X138805051Y-101557816D01*
X138809514Y-101549054D01*
X138857488Y-101498259D01*
X138925308Y-101481463D01*
X138991444Y-101503999D01*
X139030486Y-101549056D01*
X139034951Y-101557820D01*
X139159890Y-101729786D01*
X139310213Y-101880109D01*
X139482179Y-102005048D01*
X139482181Y-102005049D01*
X139482184Y-102005051D01*
X139671588Y-102101557D01*
X139873757Y-102167246D01*
X140083713Y-102200500D01*
X140083714Y-102200500D01*
X140296286Y-102200500D01*
X140296287Y-102200500D01*
X140506243Y-102167246D01*
X140708412Y-102101557D01*
X140897816Y-102005051D01*
X140984138Y-101942335D01*
X141069786Y-101880109D01*
X141069788Y-101880106D01*
X141069792Y-101880104D01*
X141220104Y-101729792D01*
X141220106Y-101729788D01*
X141220109Y-101729786D01*
X141342123Y-101561846D01*
X141345051Y-101557816D01*
X141349793Y-101548508D01*
X141397763Y-101497711D01*
X141465583Y-101480911D01*
X141531719Y-101503445D01*
X141570763Y-101548500D01*
X141575377Y-101557555D01*
X141700272Y-101729459D01*
X141700276Y-101729464D01*
X141850535Y-101879723D01*
X141850540Y-101879727D01*
X142022442Y-102004620D01*
X142211782Y-102101095D01*
X142413871Y-102166757D01*
X142480000Y-102177231D01*
X142480000Y-101283012D01*
X142537007Y-101315925D01*
X142664174Y-101350000D01*
X142795826Y-101350000D01*
X142922993Y-101315925D01*
X142980000Y-101283012D01*
X142980000Y-102177230D01*
X143046126Y-102166757D01*
X143046129Y-102166757D01*
X143248217Y-102101095D01*
X143437557Y-102004620D01*
X143609459Y-101879727D01*
X143609464Y-101879723D01*
X143759723Y-101729464D01*
X143759727Y-101729459D01*
X143884620Y-101557557D01*
X143981095Y-101368217D01*
X144046757Y-101166129D01*
X144046757Y-101166126D01*
X144057231Y-101100000D01*
X143163012Y-101100000D01*
X143195925Y-101042993D01*
X143230000Y-100915826D01*
X143230000Y-100784174D01*
X143195925Y-100657007D01*
X143163012Y-100600000D01*
X144057231Y-100600000D01*
X144046757Y-100533873D01*
X144046757Y-100533870D01*
X143981095Y-100331782D01*
X143884620Y-100142442D01*
X143759727Y-99970540D01*
X143759723Y-99970535D01*
X143609464Y-99820276D01*
X143609459Y-99820272D01*
X143437557Y-99695379D01*
X143248215Y-99598903D01*
X143046124Y-99533241D01*
X142980000Y-99522768D01*
X142980000Y-100416988D01*
X142922993Y-100384075D01*
X142795826Y-100350000D01*
X142664174Y-100350000D01*
X142537007Y-100384075D01*
X142480000Y-100416988D01*
X142480000Y-99522768D01*
X142479999Y-99522768D01*
X142413875Y-99533241D01*
X142211784Y-99598903D01*
X142022442Y-99695379D01*
X141850540Y-99820272D01*
X141850535Y-99820276D01*
X141700276Y-99970535D01*
X141700272Y-99970540D01*
X141575378Y-100142443D01*
X141570762Y-100151502D01*
X141522784Y-100202295D01*
X141454963Y-100219087D01*
X141388829Y-100196546D01*
X141349794Y-100151493D01*
X141345051Y-100142184D01*
X141345049Y-100142181D01*
X141345048Y-100142179D01*
X141220109Y-99970213D01*
X141069786Y-99819890D01*
X140897820Y-99694951D01*
X140708414Y-99598444D01*
X140708413Y-99598443D01*
X140708412Y-99598443D01*
X140506243Y-99532754D01*
X140506241Y-99532753D01*
X140506240Y-99532753D01*
X140344957Y-99507208D01*
X140296287Y-99499500D01*
X140083713Y-99499500D01*
X140035042Y-99507208D01*
X139873760Y-99532753D01*
X139671585Y-99598444D01*
X139482179Y-99694951D01*
X139310213Y-99819890D01*
X139159890Y-99970213D01*
X139034949Y-100142182D01*
X139030484Y-100150946D01*
X138982509Y-100201742D01*
X138914688Y-100218536D01*
X138848553Y-100195998D01*
X138809516Y-100150946D01*
X138805050Y-100142182D01*
X138680109Y-99970213D01*
X138529786Y-99819890D01*
X138357820Y-99694951D01*
X138168414Y-99598444D01*
X138168413Y-99598443D01*
X138168412Y-99598443D01*
X137966243Y-99532754D01*
X137966241Y-99532753D01*
X137966240Y-99532753D01*
X137804957Y-99507208D01*
X137756287Y-99499500D01*
X137543713Y-99499500D01*
X137495042Y-99507208D01*
X137333760Y-99532753D01*
X137131585Y-99598444D01*
X136942179Y-99694951D01*
X136770215Y-99819889D01*
X136656673Y-99933431D01*
X136595350Y-99966915D01*
X136525658Y-99961931D01*
X136469725Y-99920059D01*
X136452810Y-99889082D01*
X136403797Y-99757671D01*
X136403793Y-99757664D01*
X136317547Y-99642455D01*
X136317544Y-99642452D01*
X136202335Y-99556206D01*
X136202328Y-99556202D01*
X136067482Y-99505908D01*
X136067483Y-99505908D01*
X136007883Y-99499501D01*
X136007881Y-99499500D01*
X136007873Y-99499500D01*
X136007864Y-99499500D01*
X134212129Y-99499500D01*
X134212123Y-99499501D01*
X134152516Y-99505908D01*
X134017671Y-99556202D01*
X134017664Y-99556206D01*
X133902455Y-99642452D01*
X133902452Y-99642455D01*
X133816206Y-99757664D01*
X133816202Y-99757671D01*
X133765908Y-99892517D01*
X133759501Y-99952116D01*
X133759500Y-99952135D01*
X125885906Y-99952135D01*
X125941279Y-99875921D01*
X125941279Y-99875920D01*
X125954620Y-99857558D01*
X126051095Y-99668217D01*
X126116757Y-99466130D01*
X126116757Y-99466127D01*
X126150000Y-99256246D01*
X126150000Y-99250000D01*
X125233012Y-99250000D01*
X125265925Y-99192993D01*
X125300000Y-99065826D01*
X125300000Y-98934174D01*
X125265925Y-98807007D01*
X125233012Y-98750000D01*
X126150000Y-98750000D01*
X126150000Y-98743753D01*
X126116757Y-98533872D01*
X126116757Y-98533869D01*
X126051095Y-98331782D01*
X125954620Y-98142442D01*
X125829727Y-97970540D01*
X125829723Y-97970535D01*
X125679464Y-97820276D01*
X125679459Y-97820272D01*
X125507557Y-97695379D01*
X125318215Y-97598903D01*
X125116124Y-97533241D01*
X125050000Y-97522768D01*
X125050000Y-98566988D01*
X124992993Y-98534075D01*
X124865826Y-98500000D01*
X124734174Y-98500000D01*
X124607007Y-98534075D01*
X124550000Y-98566988D01*
X124550000Y-97522768D01*
X124549999Y-97522768D01*
X124483875Y-97533241D01*
X124281784Y-97598903D01*
X124092442Y-97695379D01*
X123920541Y-97820271D01*
X123781668Y-97959144D01*
X123720345Y-97992628D01*
X123650653Y-97987644D01*
X123594720Y-97945772D01*
X123588448Y-97936558D01*
X123492712Y-97781344D01*
X123368657Y-97657289D01*
X123368656Y-97657288D01*
X123219334Y-97565186D01*
X123052797Y-97510001D01*
X123052795Y-97510000D01*
X122950010Y-97499500D01*
X121649998Y-97499500D01*
X121649981Y-97499501D01*
X121547203Y-97510000D01*
X121547200Y-97510001D01*
X121380668Y-97565185D01*
X121380663Y-97565187D01*
X121231342Y-97657289D01*
X121107289Y-97781342D01*
X121015187Y-97930663D01*
X121015185Y-97930668D01*
X121002938Y-97967628D01*
X120960001Y-98097203D01*
X120960001Y-98097204D01*
X120960000Y-98097204D01*
X120949500Y-98199983D01*
X115446677Y-98199983D01*
X115404620Y-98117442D01*
X115279727Y-97945540D01*
X115279723Y-97945535D01*
X115129464Y-97795276D01*
X115129459Y-97795272D01*
X114957557Y-97670379D01*
X114768215Y-97573903D01*
X114566124Y-97508241D01*
X114500000Y-97497768D01*
X114500000Y-98541988D01*
X114442993Y-98509075D01*
X114315826Y-98475000D01*
X114184174Y-98475000D01*
X114057007Y-98509075D01*
X114000000Y-98541988D01*
X114000000Y-97497768D01*
X113999999Y-97497768D01*
X113933875Y-97508241D01*
X113731784Y-97573903D01*
X113542442Y-97670379D01*
X113370541Y-97795271D01*
X113231668Y-97934144D01*
X113170345Y-97967628D01*
X113100653Y-97962644D01*
X113044720Y-97920772D01*
X113038448Y-97911558D01*
X112942712Y-97756344D01*
X112818657Y-97632289D01*
X112818656Y-97632288D01*
X112669334Y-97540186D01*
X112502797Y-97485001D01*
X112502795Y-97485000D01*
X112400010Y-97474500D01*
X111099998Y-97474500D01*
X111099981Y-97474501D01*
X110997203Y-97485000D01*
X110997200Y-97485001D01*
X110830668Y-97540185D01*
X110830663Y-97540187D01*
X110681342Y-97632289D01*
X110557289Y-97756342D01*
X110465187Y-97905663D01*
X110465185Y-97905668D01*
X110443689Y-97970540D01*
X110410001Y-98072203D01*
X110410001Y-98072204D01*
X110410000Y-98072204D01*
X110399500Y-98174983D01*
X92600500Y-98174983D01*
X92600500Y-94135259D01*
X106349500Y-94135259D01*
X106349500Y-94364742D01*
X106366072Y-94490609D01*
X106379452Y-94592239D01*
X106415153Y-94725479D01*
X106438842Y-94813888D01*
X106526650Y-95025877D01*
X106526657Y-95025891D01*
X106641392Y-95224618D01*
X106781081Y-95406662D01*
X106781089Y-95406671D01*
X106943330Y-95568912D01*
X106943338Y-95568919D01*
X107125382Y-95708608D01*
X107125385Y-95708609D01*
X107125388Y-95708612D01*
X107324112Y-95823345D01*
X107324117Y-95823347D01*
X107324123Y-95823350D01*
X107415480Y-95861191D01*
X107536113Y-95911159D01*
X107757762Y-95970549D01*
X107974312Y-95999058D01*
X107985250Y-96000499D01*
X107985266Y-96000501D01*
X107985273Y-96000501D01*
X108214727Y-96000501D01*
X108214734Y-96000501D01*
X108442238Y-95970549D01*
X108663887Y-95911159D01*
X108875888Y-95823345D01*
X109074612Y-95708612D01*
X109256661Y-95568920D01*
X109256665Y-95568915D01*
X109256670Y-95568912D01*
X109418911Y-95406671D01*
X109418914Y-95406666D01*
X109418919Y-95406662D01*
X109558611Y-95224613D01*
X109673344Y-95025889D01*
X109761158Y-94813888D01*
X109820548Y-94592239D01*
X109850500Y-94364735D01*
X109850500Y-94135267D01*
X109820548Y-93907763D01*
X109761158Y-93686114D01*
X109695758Y-93528224D01*
X109673349Y-93474124D01*
X109673346Y-93474118D01*
X109673344Y-93474113D01*
X109558611Y-93275389D01*
X109558608Y-93275386D01*
X109558607Y-93275383D01*
X109418918Y-93093339D01*
X109418911Y-93093331D01*
X109256670Y-92931090D01*
X109256661Y-92931082D01*
X109074617Y-92791393D01*
X108875890Y-92676658D01*
X108875876Y-92676651D01*
X108663887Y-92588843D01*
X108442238Y-92529453D01*
X108404215Y-92524447D01*
X108214741Y-92499501D01*
X108214734Y-92499501D01*
X107985266Y-92499501D01*
X107985258Y-92499501D01*
X107768715Y-92528010D01*
X107757762Y-92529453D01*
X107664076Y-92554555D01*
X107536112Y-92588843D01*
X107324123Y-92676651D01*
X107324109Y-92676658D01*
X107125382Y-92791393D01*
X106943338Y-92931082D01*
X106781081Y-93093339D01*
X106641392Y-93275383D01*
X106526657Y-93474110D01*
X106526650Y-93474124D01*
X106438842Y-93686113D01*
X106379453Y-93907760D01*
X106379451Y-93907771D01*
X106349500Y-94135259D01*
X92600500Y-94135259D01*
X92600500Y-88849983D01*
X157424500Y-88849983D01*
X157424500Y-90150001D01*
X157424501Y-90150018D01*
X157435000Y-90252796D01*
X157435001Y-90252799D01*
X157490185Y-90419331D01*
X157490187Y-90419336D01*
X157582289Y-90568657D01*
X157706344Y-90692712D01*
X157861120Y-90788178D01*
X157907845Y-90840126D01*
X157919068Y-90909088D01*
X157891224Y-90973171D01*
X157883706Y-90981398D01*
X157744889Y-91120215D01*
X157619951Y-91292179D01*
X157523444Y-91481585D01*
X157457753Y-91683760D01*
X157424500Y-91893713D01*
X157424500Y-92106287D01*
X157457754Y-92316243D01*
X157517298Y-92499501D01*
X157523444Y-92518414D01*
X157619951Y-92707820D01*
X157744890Y-92879786D01*
X157895209Y-93030105D01*
X157895214Y-93030109D01*
X158059793Y-93149682D01*
X158102459Y-93205011D01*
X158108438Y-93274625D01*
X158075833Y-93336420D01*
X158059793Y-93350318D01*
X157895214Y-93469890D01*
X157895209Y-93469894D01*
X157744890Y-93620213D01*
X157619951Y-93792179D01*
X157523444Y-93981585D01*
X157457753Y-94183760D01*
X157424500Y-94393713D01*
X157424500Y-94606286D01*
X157437712Y-94689707D01*
X157457754Y-94816243D01*
X157512344Y-94984254D01*
X157523444Y-95018414D01*
X157619951Y-95207820D01*
X157744890Y-95379786D01*
X157895209Y-95530105D01*
X157895214Y-95530109D01*
X158059793Y-95649682D01*
X158102459Y-95705011D01*
X158108438Y-95774625D01*
X158075833Y-95836420D01*
X158059793Y-95850318D01*
X157895214Y-95969890D01*
X157895209Y-95969894D01*
X157744890Y-96120213D01*
X157619951Y-96292179D01*
X157523444Y-96481585D01*
X157457753Y-96683760D01*
X157424500Y-96893713D01*
X157424500Y-97106287D01*
X157457754Y-97316243D01*
X157520138Y-97508241D01*
X157523444Y-97518414D01*
X157619951Y-97707820D01*
X157744890Y-97879786D01*
X157895209Y-98030105D01*
X157895214Y-98030109D01*
X158059793Y-98149682D01*
X158102459Y-98205011D01*
X158108438Y-98274625D01*
X158075833Y-98336420D01*
X158059793Y-98350318D01*
X157895214Y-98469890D01*
X157895209Y-98469894D01*
X157744890Y-98620213D01*
X157619951Y-98792179D01*
X157523444Y-98981585D01*
X157457753Y-99183760D01*
X157438233Y-99307007D01*
X157424500Y-99393713D01*
X157424500Y-99606287D01*
X157430349Y-99643217D01*
X157455182Y-99800009D01*
X157457754Y-99816243D01*
X157519245Y-100005493D01*
X157523444Y-100018414D01*
X157619951Y-100207820D01*
X157744890Y-100379786D01*
X157895213Y-100530109D01*
X158067179Y-100655048D01*
X158067181Y-100655049D01*
X158067184Y-100655051D01*
X158256588Y-100751557D01*
X158458757Y-100817246D01*
X158668713Y-100850500D01*
X158668714Y-100850500D01*
X159131286Y-100850500D01*
X159131287Y-100850500D01*
X159341243Y-100817246D01*
X159543412Y-100751557D01*
X159732816Y-100655051D01*
X159887052Y-100542993D01*
X159904786Y-100530109D01*
X159904788Y-100530106D01*
X159904792Y-100530104D01*
X160055104Y-100379792D01*
X160055106Y-100379788D01*
X160055109Y-100379786D01*
X160172176Y-100218655D01*
X160180051Y-100207816D01*
X160276557Y-100018412D01*
X160342246Y-99816243D01*
X160375500Y-99606287D01*
X160375500Y-99393713D01*
X160342246Y-99183757D01*
X160276557Y-98981588D01*
X160180051Y-98792184D01*
X160180049Y-98792181D01*
X160180048Y-98792179D01*
X160055109Y-98620213D01*
X159904792Y-98469896D01*
X159904784Y-98469890D01*
X159740204Y-98350316D01*
X159697540Y-98294989D01*
X159691561Y-98225376D01*
X159724166Y-98163580D01*
X159740199Y-98149686D01*
X159904792Y-98030104D01*
X160055104Y-97879792D01*
X160055106Y-97879788D01*
X160055109Y-97879786D01*
X160180048Y-97707820D01*
X160180047Y-97707820D01*
X160180051Y-97707816D01*
X160276557Y-97518412D01*
X160342246Y-97316243D01*
X160375500Y-97106287D01*
X160375500Y-96893713D01*
X160342246Y-96683757D01*
X160276557Y-96481588D01*
X160180051Y-96292184D01*
X160180049Y-96292181D01*
X160180048Y-96292179D01*
X160055109Y-96120213D01*
X159904792Y-95969896D01*
X159904570Y-95969735D01*
X159740204Y-95850316D01*
X159697540Y-95794989D01*
X159691561Y-95725376D01*
X159724166Y-95663580D01*
X159740199Y-95649686D01*
X159904792Y-95530104D01*
X160055104Y-95379792D01*
X160055106Y-95379788D01*
X160055109Y-95379786D01*
X160180048Y-95207820D01*
X160180047Y-95207820D01*
X160180051Y-95207816D01*
X160268080Y-95035048D01*
X160316053Y-94984254D01*
X160383874Y-94967459D01*
X160450009Y-94989996D01*
X160466245Y-95003664D01*
X160724907Y-95262326D01*
X160758392Y-95323649D01*
X160758843Y-95325815D01*
X160780261Y-95433491D01*
X160780264Y-95433501D01*
X160840602Y-95579172D01*
X160840609Y-95579185D01*
X160928210Y-95710288D01*
X160928213Y-95710292D01*
X161039707Y-95821786D01*
X161039711Y-95821789D01*
X161170814Y-95909390D01*
X161170827Y-95909397D01*
X161316498Y-95969735D01*
X161316503Y-95969737D01*
X161471153Y-96000499D01*
X161471156Y-96000500D01*
X161471158Y-96000500D01*
X161628844Y-96000500D01*
X161628845Y-96000499D01*
X161783497Y-95969737D01*
X161924918Y-95911159D01*
X161929172Y-95909397D01*
X161929172Y-95909396D01*
X161929179Y-95909394D01*
X162060289Y-95821789D01*
X162171789Y-95710289D01*
X162259394Y-95579179D01*
X162319737Y-95433497D01*
X162350500Y-95278842D01*
X162350500Y-95121158D01*
X162350500Y-95121155D01*
X162350499Y-95121153D01*
X162331550Y-95025891D01*
X162319737Y-94966503D01*
X162319735Y-94966498D01*
X162259397Y-94820827D01*
X162259390Y-94820814D01*
X162171789Y-94689711D01*
X162171786Y-94689707D01*
X162060292Y-94578213D01*
X162060288Y-94578210D01*
X161929185Y-94490609D01*
X161929172Y-94490602D01*
X161783501Y-94430264D01*
X161783491Y-94430261D01*
X161675815Y-94408843D01*
X161659058Y-94400077D01*
X161640580Y-94396058D01*
X161615543Y-94377315D01*
X161613904Y-94376458D01*
X161612326Y-94374907D01*
X161372678Y-94135259D01*
X164349500Y-94135259D01*
X164349500Y-94364742D01*
X164366072Y-94490609D01*
X164379452Y-94592239D01*
X164415153Y-94725479D01*
X164438842Y-94813888D01*
X164526650Y-95025877D01*
X164526657Y-95025891D01*
X164641392Y-95224618D01*
X164781081Y-95406662D01*
X164781089Y-95406671D01*
X164943330Y-95568912D01*
X164943338Y-95568919D01*
X165125382Y-95708608D01*
X165125385Y-95708609D01*
X165125388Y-95708612D01*
X165324112Y-95823345D01*
X165324117Y-95823347D01*
X165324123Y-95823350D01*
X165415480Y-95861191D01*
X165536113Y-95911159D01*
X165757762Y-95970549D01*
X165974312Y-95999058D01*
X165985250Y-96000499D01*
X165985266Y-96000501D01*
X165985273Y-96000501D01*
X166214727Y-96000501D01*
X166214734Y-96000501D01*
X166442238Y-95970549D01*
X166663887Y-95911159D01*
X166875888Y-95823345D01*
X167074612Y-95708612D01*
X167256661Y-95568920D01*
X167256665Y-95568915D01*
X167256670Y-95568912D01*
X167418911Y-95406671D01*
X167418914Y-95406666D01*
X167418919Y-95406662D01*
X167558611Y-95224613D01*
X167673344Y-95025889D01*
X167761158Y-94813888D01*
X167820548Y-94592239D01*
X167850500Y-94364735D01*
X167850500Y-94135267D01*
X167820548Y-93907763D01*
X167761158Y-93686114D01*
X167695758Y-93528224D01*
X167673349Y-93474124D01*
X167673346Y-93474118D01*
X167673344Y-93474113D01*
X167558611Y-93275389D01*
X167558608Y-93275386D01*
X167558607Y-93275383D01*
X167418918Y-93093339D01*
X167418911Y-93093331D01*
X167256670Y-92931090D01*
X167256661Y-92931082D01*
X167074617Y-92791393D01*
X166875890Y-92676658D01*
X166875876Y-92676651D01*
X166663887Y-92588843D01*
X166442238Y-92529453D01*
X166404215Y-92524447D01*
X166214741Y-92499501D01*
X166214734Y-92499501D01*
X165985266Y-92499501D01*
X165985258Y-92499501D01*
X165768715Y-92528010D01*
X165757762Y-92529453D01*
X165664076Y-92554555D01*
X165536112Y-92588843D01*
X165324123Y-92676651D01*
X165324109Y-92676658D01*
X165125382Y-92791393D01*
X164943338Y-92931082D01*
X164781081Y-93093339D01*
X164641392Y-93275383D01*
X164526657Y-93474110D01*
X164526650Y-93474124D01*
X164438842Y-93686113D01*
X164379453Y-93907760D01*
X164379451Y-93907771D01*
X164349500Y-94135259D01*
X161372678Y-94135259D01*
X160765643Y-93528224D01*
X160732158Y-93466901D01*
X160737142Y-93397209D01*
X160738764Y-93393089D01*
X160742735Y-93383502D01*
X160742735Y-93383501D01*
X160742737Y-93383497D01*
X160773500Y-93228842D01*
X160773500Y-93071158D01*
X160773500Y-93071155D01*
X160773499Y-93071153D01*
X160765334Y-93030104D01*
X160742737Y-92916503D01*
X160727531Y-92879792D01*
X160682397Y-92770827D01*
X160682390Y-92770814D01*
X160594789Y-92639711D01*
X160594786Y-92639707D01*
X160483292Y-92528213D01*
X160483288Y-92528210D01*
X160388863Y-92465117D01*
X160344058Y-92411505D01*
X160335351Y-92342180D01*
X160339822Y-92323702D01*
X160342246Y-92316243D01*
X160375500Y-92106287D01*
X160375500Y-91893713D01*
X160342246Y-91683757D01*
X160276557Y-91481588D01*
X160180051Y-91292184D01*
X160180049Y-91292181D01*
X160180048Y-91292179D01*
X160055109Y-91120213D01*
X159916294Y-90981398D01*
X159882809Y-90920075D01*
X159887793Y-90850383D01*
X159929665Y-90794450D01*
X159938879Y-90788178D01*
X159944331Y-90784814D01*
X159944334Y-90784814D01*
X160093656Y-90692712D01*
X160217712Y-90568656D01*
X160309814Y-90419334D01*
X160364999Y-90252797D01*
X160375500Y-90150009D01*
X160375499Y-88849992D01*
X160364999Y-88747203D01*
X160309814Y-88580666D01*
X160217712Y-88431344D01*
X160093656Y-88307288D01*
X159944334Y-88215186D01*
X159777797Y-88160001D01*
X159777795Y-88160000D01*
X159675010Y-88149500D01*
X158124998Y-88149500D01*
X158124981Y-88149501D01*
X158022203Y-88160000D01*
X158022200Y-88160001D01*
X157855668Y-88215185D01*
X157855663Y-88215187D01*
X157706342Y-88307289D01*
X157582289Y-88431342D01*
X157490187Y-88580663D01*
X157490186Y-88580666D01*
X157435001Y-88747203D01*
X157435001Y-88747204D01*
X157435000Y-88747204D01*
X157424500Y-88849983D01*
X92600500Y-88849983D01*
X92600500Y-68653713D01*
X96034500Y-68653713D01*
X96034500Y-68866286D01*
X96067753Y-69076239D01*
X96133444Y-69278414D01*
X96229951Y-69467820D01*
X96354890Y-69639786D01*
X96505209Y-69790105D01*
X96505214Y-69790109D01*
X96669793Y-69909682D01*
X96712459Y-69965011D01*
X96718438Y-70034625D01*
X96685833Y-70096420D01*
X96669793Y-70110318D01*
X96505214Y-70229890D01*
X96505209Y-70229894D01*
X96354890Y-70380213D01*
X96229951Y-70552179D01*
X96133444Y-70741585D01*
X96067753Y-70943760D01*
X96034500Y-71153713D01*
X96034500Y-71366286D01*
X96067753Y-71576239D01*
X96133444Y-71778414D01*
X96229951Y-71967820D01*
X96354890Y-72139786D01*
X96505209Y-72290105D01*
X96505214Y-72290109D01*
X96669793Y-72409682D01*
X96712459Y-72465011D01*
X96718438Y-72534625D01*
X96685833Y-72596420D01*
X96669793Y-72610318D01*
X96505214Y-72729890D01*
X96505209Y-72729894D01*
X96354890Y-72880213D01*
X96229951Y-73052179D01*
X96133444Y-73241585D01*
X96067753Y-73443760D01*
X96034500Y-73653713D01*
X96034500Y-73866286D01*
X96063150Y-74047179D01*
X96067754Y-74076243D01*
X96119853Y-74236588D01*
X96133444Y-74278414D01*
X96229951Y-74467820D01*
X96354890Y-74639786D01*
X96505209Y-74790105D01*
X96505214Y-74790109D01*
X96669793Y-74909682D01*
X96712459Y-74965011D01*
X96718438Y-75034625D01*
X96685833Y-75096420D01*
X96669793Y-75110318D01*
X96505214Y-75229890D01*
X96505209Y-75229894D01*
X96354890Y-75380213D01*
X96229951Y-75552179D01*
X96133444Y-75741585D01*
X96067753Y-75943760D01*
X96042136Y-76105500D01*
X96034500Y-76153713D01*
X96034500Y-76366287D01*
X96067754Y-76576243D01*
X96132913Y-76776782D01*
X96133444Y-76778414D01*
X96229951Y-76967820D01*
X96354890Y-77139786D01*
X96493705Y-77278601D01*
X96527190Y-77339924D01*
X96522206Y-77409616D01*
X96480334Y-77465549D01*
X96471121Y-77471821D01*
X96316342Y-77567289D01*
X96192289Y-77691342D01*
X96100187Y-77840663D01*
X96100186Y-77840666D01*
X96045001Y-78007203D01*
X96045001Y-78007204D01*
X96045000Y-78007204D01*
X96034500Y-78109983D01*
X96034500Y-79410001D01*
X96034501Y-79410018D01*
X96045000Y-79512796D01*
X96045001Y-79512799D01*
X96100185Y-79679331D01*
X96100186Y-79679334D01*
X96192288Y-79828656D01*
X96316344Y-79952712D01*
X96465666Y-80044814D01*
X96632203Y-80099999D01*
X96734991Y-80110500D01*
X98285008Y-80110499D01*
X98387797Y-80099999D01*
X98554334Y-80044814D01*
X98703656Y-79952712D01*
X98827712Y-79828656D01*
X98919814Y-79679334D01*
X98974999Y-79512797D01*
X98985500Y-79410009D01*
X98985499Y-78742671D01*
X98985499Y-78109998D01*
X98985498Y-78109981D01*
X98974999Y-78007203D01*
X98974998Y-78007200D01*
X98973459Y-78002557D01*
X98919814Y-77840666D01*
X98827712Y-77691344D01*
X98703656Y-77567288D01*
X98554334Y-77475186D01*
X98554333Y-77475185D01*
X98548878Y-77471821D01*
X98502154Y-77419873D01*
X98490931Y-77350910D01*
X98518775Y-77286828D01*
X98526272Y-77278623D01*
X98665104Y-77139792D01*
X98790051Y-76967816D01*
X98886557Y-76778412D01*
X98952246Y-76576243D01*
X98985500Y-76366287D01*
X98985500Y-76153713D01*
X98952246Y-75943757D01*
X98886557Y-75741588D01*
X98790051Y-75552184D01*
X98790049Y-75552181D01*
X98790048Y-75552179D01*
X98665109Y-75380213D01*
X98514792Y-75229896D01*
X98514784Y-75229890D01*
X98350204Y-75110316D01*
X98307540Y-75054989D01*
X98301561Y-74985376D01*
X98334166Y-74923580D01*
X98350199Y-74909686D01*
X98514792Y-74790104D01*
X98665104Y-74639792D01*
X98665106Y-74639788D01*
X98665109Y-74639786D01*
X98790048Y-74467820D01*
X98790047Y-74467820D01*
X98790051Y-74467816D01*
X98886557Y-74278412D01*
X98952246Y-74076243D01*
X98985500Y-73866287D01*
X98985500Y-73653713D01*
X98952246Y-73443757D01*
X98886557Y-73241588D01*
X98790051Y-73052184D01*
X98790049Y-73052181D01*
X98790048Y-73052179D01*
X98665109Y-72880213D01*
X98514792Y-72729896D01*
X98514784Y-72729890D01*
X98350204Y-72610316D01*
X98307540Y-72554989D01*
X98301561Y-72485376D01*
X98334166Y-72423580D01*
X98350199Y-72409686D01*
X98514792Y-72290104D01*
X98665104Y-72139792D01*
X98665106Y-72139788D01*
X98665109Y-72139786D01*
X98790048Y-71967820D01*
X98790047Y-71967820D01*
X98790051Y-71967816D01*
X98886557Y-71778412D01*
X98952246Y-71576243D01*
X98985500Y-71366287D01*
X98985500Y-71153713D01*
X98952246Y-70943757D01*
X98886557Y-70741588D01*
X98790051Y-70552184D01*
X98790049Y-70552181D01*
X98790048Y-70552179D01*
X98665109Y-70380213D01*
X98514792Y-70229896D01*
X98464578Y-70193414D01*
X98350204Y-70110316D01*
X98307540Y-70054989D01*
X98301561Y-69985376D01*
X98334166Y-69923580D01*
X98350199Y-69909686D01*
X98514792Y-69790104D01*
X98665104Y-69639792D01*
X98665106Y-69639788D01*
X98665109Y-69639786D01*
X98790048Y-69467820D01*
X98790047Y-69467820D01*
X98790051Y-69467816D01*
X98886557Y-69278412D01*
X98952246Y-69076243D01*
X98985500Y-68866287D01*
X98985500Y-68653713D01*
X98952246Y-68443757D01*
X98886557Y-68241588D01*
X98790051Y-68052184D01*
X98790049Y-68052181D01*
X98790048Y-68052179D01*
X98665109Y-67880213D01*
X98514790Y-67729894D01*
X98514785Y-67729890D01*
X98349781Y-67610008D01*
X98307115Y-67554678D01*
X98301136Y-67485065D01*
X98333741Y-67423270D01*
X98349781Y-67409371D01*
X98514466Y-67289721D01*
X98664723Y-67139464D01*
X98664727Y-67139459D01*
X98789620Y-66967557D01*
X98886095Y-66778217D01*
X98951757Y-66576129D01*
X98951757Y-66576126D01*
X98962231Y-66510000D01*
X97914146Y-66510000D01*
X97952630Y-66443343D01*
X97985000Y-66322535D01*
X97985000Y-66197465D01*
X97952630Y-66076657D01*
X97914146Y-66010000D01*
X98962231Y-66010000D01*
X98951757Y-65943873D01*
X98951757Y-65943870D01*
X98886095Y-65741782D01*
X98789620Y-65552442D01*
X98664727Y-65380540D01*
X98664723Y-65380535D01*
X98514464Y-65230276D01*
X98514459Y-65230272D01*
X98342557Y-65105379D01*
X98153217Y-65008904D01*
X97951128Y-64943242D01*
X97760000Y-64912969D01*
X97760000Y-65855854D01*
X97693343Y-65817370D01*
X97572535Y-65785000D01*
X97447465Y-65785000D01*
X97326657Y-65817370D01*
X97260000Y-65855854D01*
X97260000Y-64912969D01*
X97068872Y-64943242D01*
X97068869Y-64943242D01*
X96866782Y-65008904D01*
X96677442Y-65105379D01*
X96505540Y-65230272D01*
X96505535Y-65230276D01*
X96355276Y-65380535D01*
X96355272Y-65380540D01*
X96230379Y-65552442D01*
X96133904Y-65741782D01*
X96068242Y-65943870D01*
X96068242Y-65943873D01*
X96057769Y-66010000D01*
X97105854Y-66010000D01*
X97067370Y-66076657D01*
X97035000Y-66197465D01*
X97035000Y-66322535D01*
X97067370Y-66443343D01*
X97105854Y-66510000D01*
X96057769Y-66510000D01*
X96068242Y-66576126D01*
X96068242Y-66576129D01*
X96133904Y-66778217D01*
X96230379Y-66967557D01*
X96355272Y-67139459D01*
X96355276Y-67139464D01*
X96505535Y-67289723D01*
X96505540Y-67289727D01*
X96670218Y-67409372D01*
X96712884Y-67464701D01*
X96718863Y-67534315D01*
X96686258Y-67596110D01*
X96670218Y-67610008D01*
X96505214Y-67729890D01*
X96505209Y-67729894D01*
X96354890Y-67880213D01*
X96229951Y-68052179D01*
X96133444Y-68241585D01*
X96067753Y-68443760D01*
X96034500Y-68653713D01*
X92600500Y-68653713D01*
X92600500Y-64248153D01*
X162699500Y-64248153D01*
X162699500Y-64405846D01*
X162730261Y-64560489D01*
X162730264Y-64560501D01*
X162790602Y-64706172D01*
X162790609Y-64706185D01*
X162878210Y-64837288D01*
X162878213Y-64837292D01*
X162989707Y-64948786D01*
X162989711Y-64948789D01*
X163120814Y-65036390D01*
X163120827Y-65036397D01*
X163266498Y-65096735D01*
X163266503Y-65096737D01*
X163421153Y-65127499D01*
X163421156Y-65127500D01*
X163421158Y-65127500D01*
X163578844Y-65127500D01*
X163578845Y-65127499D01*
X163733497Y-65096737D01*
X163879179Y-65036394D01*
X164010289Y-64948789D01*
X164121789Y-64837289D01*
X164209394Y-64706179D01*
X164249561Y-64609202D01*
X164276437Y-64568980D01*
X165467440Y-63377977D01*
X165528761Y-63344494D01*
X165530813Y-63344066D01*
X165537497Y-63342737D01*
X165683179Y-63282394D01*
X165814289Y-63194789D01*
X165925789Y-63083289D01*
X166013394Y-62952179D01*
X166073737Y-62806497D01*
X166104500Y-62651842D01*
X166104500Y-62494158D01*
X166104500Y-62494155D01*
X166104499Y-62494153D01*
X166073737Y-62339503D01*
X166073735Y-62339498D01*
X166013397Y-62193827D01*
X166013390Y-62193814D01*
X165925789Y-62062711D01*
X165925786Y-62062707D01*
X165814292Y-61951213D01*
X165814288Y-61951210D01*
X165810551Y-61948713D01*
X175114500Y-61948713D01*
X175114500Y-62161287D01*
X175147754Y-62371243D01*
X175194697Y-62515719D01*
X175213444Y-62573414D01*
X175309951Y-62762820D01*
X175434890Y-62934786D01*
X175585213Y-63085109D01*
X175757182Y-63210050D01*
X175765946Y-63214516D01*
X175816742Y-63262491D01*
X175833536Y-63330312D01*
X175810998Y-63396447D01*
X175765946Y-63435484D01*
X175757182Y-63439949D01*
X175585213Y-63564890D01*
X175434890Y-63715213D01*
X175309951Y-63887179D01*
X175213444Y-64076585D01*
X175147753Y-64278760D01*
X175114500Y-64488713D01*
X175114500Y-64701286D01*
X175136040Y-64837288D01*
X175147754Y-64911243D01*
X175208025Y-65096738D01*
X175213444Y-65113414D01*
X175309951Y-65302820D01*
X175434890Y-65474786D01*
X175585213Y-65625109D01*
X175757182Y-65750050D01*
X175765946Y-65754516D01*
X175816742Y-65802491D01*
X175833536Y-65870312D01*
X175810998Y-65936447D01*
X175765946Y-65975484D01*
X175757182Y-65979949D01*
X175585213Y-66104890D01*
X175434890Y-66255213D01*
X175309951Y-66427179D01*
X175213444Y-66616585D01*
X175147753Y-66818760D01*
X175114500Y-67028713D01*
X175114500Y-67241286D01*
X175141142Y-67409500D01*
X175147754Y-67451243D01*
X175197696Y-67604949D01*
X175213444Y-67653414D01*
X175309951Y-67842820D01*
X175434890Y-68014786D01*
X175585213Y-68165109D01*
X175757182Y-68290050D01*
X175765946Y-68294516D01*
X175816742Y-68342491D01*
X175833536Y-68410312D01*
X175810998Y-68476447D01*
X175765946Y-68515484D01*
X175757182Y-68519949D01*
X175585213Y-68644890D01*
X175434890Y-68795213D01*
X175309951Y-68967179D01*
X175213444Y-69156585D01*
X175147753Y-69358760D01*
X175130480Y-69467820D01*
X175114500Y-69568713D01*
X175114500Y-69781287D01*
X175115897Y-69790105D01*
X175146824Y-69985376D01*
X175147754Y-69991243D01*
X175186444Y-70110319D01*
X175213444Y-70193414D01*
X175309951Y-70382820D01*
X175434890Y-70554786D01*
X175585213Y-70705109D01*
X175757182Y-70830050D01*
X175765946Y-70834516D01*
X175816742Y-70882491D01*
X175833536Y-70950312D01*
X175810998Y-71016447D01*
X175765946Y-71055484D01*
X175757182Y-71059949D01*
X175585213Y-71184890D01*
X175434890Y-71335213D01*
X175309951Y-71507179D01*
X175213444Y-71696585D01*
X175147753Y-71898760D01*
X175136816Y-71967816D01*
X175114500Y-72108713D01*
X175114500Y-72321287D01*
X175147754Y-72531243D01*
X175173447Y-72610319D01*
X175213444Y-72733414D01*
X175309951Y-72922820D01*
X175434890Y-73094786D01*
X175585213Y-73245109D01*
X175757182Y-73370050D01*
X175765946Y-73374516D01*
X175816742Y-73422491D01*
X175833536Y-73490312D01*
X175810998Y-73556447D01*
X175765946Y-73595484D01*
X175757182Y-73599949D01*
X175585213Y-73724890D01*
X175434890Y-73875213D01*
X175309951Y-74047179D01*
X175213444Y-74236585D01*
X175213443Y-74236587D01*
X175213443Y-74236588D01*
X175199853Y-74278414D01*
X175147753Y-74438760D01*
X175114500Y-74648713D01*
X175114500Y-74861286D01*
X175145179Y-75054989D01*
X175147754Y-75071243D01*
X175160450Y-75110318D01*
X175213444Y-75273414D01*
X175309951Y-75462820D01*
X175434890Y-75634786D01*
X175585213Y-75785109D01*
X175757179Y-75910048D01*
X175757181Y-75910049D01*
X175757184Y-75910051D01*
X175766493Y-75914794D01*
X175817290Y-75962766D01*
X175834087Y-76030587D01*
X175811552Y-76096722D01*
X175766502Y-76135762D01*
X175757443Y-76140378D01*
X175585540Y-76265272D01*
X175585535Y-76265276D01*
X175435276Y-76415535D01*
X175435272Y-76415540D01*
X175310379Y-76587442D01*
X175213904Y-76776782D01*
X175148242Y-76978870D01*
X175148242Y-76978873D01*
X175137769Y-77045000D01*
X176031988Y-77045000D01*
X175999075Y-77102007D01*
X175965000Y-77229174D01*
X175965000Y-77360826D01*
X175999075Y-77487993D01*
X176031988Y-77545000D01*
X175137769Y-77545000D01*
X175148242Y-77611126D01*
X175148242Y-77611129D01*
X175213904Y-77813217D01*
X175310379Y-78002557D01*
X175435272Y-78174459D01*
X175435276Y-78174464D01*
X175548946Y-78288134D01*
X175582431Y-78349457D01*
X175577447Y-78419149D01*
X175535575Y-78475082D01*
X175504598Y-78491997D01*
X175372671Y-78541202D01*
X175372664Y-78541206D01*
X175257455Y-78627452D01*
X175257452Y-78627455D01*
X175171206Y-78742664D01*
X175171202Y-78742671D01*
X175120908Y-78877517D01*
X175114857Y-78933805D01*
X175114501Y-78937123D01*
X175114500Y-78937135D01*
X175114500Y-80732870D01*
X175114501Y-80732876D01*
X175120908Y-80792483D01*
X175171202Y-80927328D01*
X175171206Y-80927335D01*
X175257452Y-81042544D01*
X175257455Y-81042547D01*
X175372664Y-81128793D01*
X175372671Y-81128797D01*
X175507517Y-81179091D01*
X175507516Y-81179091D01*
X175514444Y-81179835D01*
X175567127Y-81185500D01*
X177362872Y-81185499D01*
X177422483Y-81179091D01*
X177557331Y-81128796D01*
X177672546Y-81042546D01*
X177758796Y-80927331D01*
X177809091Y-80792483D01*
X177815500Y-80732873D01*
X177815499Y-78937128D01*
X177809091Y-78877517D01*
X177758796Y-78742669D01*
X177758795Y-78742668D01*
X177758793Y-78742664D01*
X177672547Y-78627455D01*
X177672544Y-78627452D01*
X177557335Y-78541206D01*
X177557328Y-78541202D01*
X177425401Y-78491997D01*
X177369467Y-78450126D01*
X177345050Y-78384662D01*
X177359902Y-78316389D01*
X177381053Y-78288133D01*
X177494728Y-78174458D01*
X177619620Y-78002557D01*
X177716095Y-77813217D01*
X177781757Y-77611129D01*
X177781757Y-77611126D01*
X177792231Y-77545000D01*
X176898012Y-77545000D01*
X176930925Y-77487993D01*
X176965000Y-77360826D01*
X176965000Y-77229174D01*
X176930925Y-77102007D01*
X176898012Y-77045000D01*
X177792231Y-77045000D01*
X177781757Y-76978873D01*
X177781757Y-76978870D01*
X177716095Y-76776782D01*
X177619620Y-76587442D01*
X177494727Y-76415540D01*
X177494723Y-76415535D01*
X177344464Y-76265276D01*
X177344459Y-76265272D01*
X177172555Y-76140377D01*
X177163500Y-76135763D01*
X177112706Y-76087788D01*
X177095912Y-76019966D01*
X177118451Y-75953832D01*
X177163508Y-75914793D01*
X177172816Y-75910051D01*
X177252007Y-75852515D01*
X177344786Y-75785109D01*
X177344788Y-75785106D01*
X177344792Y-75785104D01*
X177495104Y-75634792D01*
X177495106Y-75634788D01*
X177495109Y-75634786D01*
X177620048Y-75462820D01*
X177620047Y-75462820D01*
X177620051Y-75462816D01*
X177716557Y-75273412D01*
X177782246Y-75071243D01*
X177815500Y-74861287D01*
X177815500Y-74648713D01*
X177782246Y-74438757D01*
X177716557Y-74236588D01*
X177620051Y-74047184D01*
X177620049Y-74047181D01*
X177620048Y-74047179D01*
X177495109Y-73875213D01*
X177344786Y-73724890D01*
X177172820Y-73599951D01*
X177172115Y-73599591D01*
X177164054Y-73595485D01*
X177113259Y-73547512D01*
X177096463Y-73479692D01*
X177118999Y-73413556D01*
X177164054Y-73374515D01*
X177172816Y-73370051D01*
X177194789Y-73354086D01*
X177344786Y-73245109D01*
X177344788Y-73245106D01*
X177344792Y-73245104D01*
X177495104Y-73094792D01*
X177495106Y-73094788D01*
X177495109Y-73094786D01*
X177620048Y-72922820D01*
X177620047Y-72922820D01*
X177620051Y-72922816D01*
X177716557Y-72733412D01*
X177782246Y-72531243D01*
X177815500Y-72321287D01*
X177815500Y-72108713D01*
X177782246Y-71898757D01*
X177716557Y-71696588D01*
X177620051Y-71507184D01*
X177620049Y-71507181D01*
X177620048Y-71507179D01*
X177495109Y-71335213D01*
X177344786Y-71184890D01*
X177172820Y-71059951D01*
X177172115Y-71059591D01*
X177164054Y-71055485D01*
X177113259Y-71007512D01*
X177096463Y-70939692D01*
X177118999Y-70873556D01*
X177164054Y-70834515D01*
X177172816Y-70830051D01*
X177294580Y-70741585D01*
X177344786Y-70705109D01*
X177344788Y-70705106D01*
X177344792Y-70705104D01*
X177495104Y-70554792D01*
X177495106Y-70554788D01*
X177495109Y-70554786D01*
X177620048Y-70382820D01*
X177620047Y-70382820D01*
X177620051Y-70382816D01*
X177716557Y-70193412D01*
X177782246Y-69991243D01*
X177815500Y-69781287D01*
X177815500Y-69568713D01*
X177782246Y-69358757D01*
X177716557Y-69156588D01*
X177620051Y-68967184D01*
X177620049Y-68967181D01*
X177620048Y-68967179D01*
X177495109Y-68795213D01*
X177344786Y-68644890D01*
X177172820Y-68519951D01*
X177172115Y-68519591D01*
X177164054Y-68515485D01*
X177113259Y-68467512D01*
X177096463Y-68399692D01*
X177118999Y-68333556D01*
X177164054Y-68294515D01*
X177172816Y-68290051D01*
X177239524Y-68241585D01*
X177344786Y-68165109D01*
X177344788Y-68165106D01*
X177344792Y-68165104D01*
X177495104Y-68014792D01*
X177495106Y-68014788D01*
X177495109Y-68014786D01*
X177620048Y-67842820D01*
X177620047Y-67842820D01*
X177620051Y-67842816D01*
X177716557Y-67653412D01*
X177782246Y-67451243D01*
X177815500Y-67241287D01*
X177815500Y-67028713D01*
X177782246Y-66818757D01*
X177716557Y-66616588D01*
X177620051Y-66427184D01*
X177620049Y-66427181D01*
X177620048Y-66427179D01*
X177495109Y-66255213D01*
X177344786Y-66104890D01*
X177172820Y-65979951D01*
X177172115Y-65979591D01*
X177164054Y-65975485D01*
X177113259Y-65927512D01*
X177096463Y-65859692D01*
X177118999Y-65793556D01*
X177164054Y-65754515D01*
X177172816Y-65750051D01*
X177194789Y-65734086D01*
X177344786Y-65625109D01*
X177344788Y-65625106D01*
X177344792Y-65625104D01*
X177495104Y-65474792D01*
X177495106Y-65474788D01*
X177495109Y-65474786D01*
X177620048Y-65302820D01*
X177620047Y-65302820D01*
X177620051Y-65302816D01*
X177716557Y-65113412D01*
X177782246Y-64911243D01*
X177815500Y-64701287D01*
X177815500Y-64488713D01*
X177782246Y-64278757D01*
X177716557Y-64076588D01*
X177620051Y-63887184D01*
X177620049Y-63887181D01*
X177620048Y-63887179D01*
X177495109Y-63715213D01*
X177344786Y-63564890D01*
X177172820Y-63439951D01*
X177172115Y-63439591D01*
X177164054Y-63435485D01*
X177113259Y-63387512D01*
X177096463Y-63319692D01*
X177118999Y-63253556D01*
X177164054Y-63214515D01*
X177172816Y-63210051D01*
X177194789Y-63194086D01*
X177344786Y-63085109D01*
X177344788Y-63085106D01*
X177344792Y-63085104D01*
X177495104Y-62934792D01*
X177495106Y-62934788D01*
X177495109Y-62934786D01*
X177620048Y-62762820D01*
X177620047Y-62762820D01*
X177620051Y-62762816D01*
X177716557Y-62573412D01*
X177782246Y-62371243D01*
X177815500Y-62161287D01*
X177815500Y-61948713D01*
X177782246Y-61738757D01*
X177716557Y-61536588D01*
X177620051Y-61347184D01*
X177620049Y-61347181D01*
X177620048Y-61347179D01*
X177495109Y-61175213D01*
X177344786Y-61024890D01*
X177172820Y-60899951D01*
X176983414Y-60803444D01*
X176983413Y-60803443D01*
X176983412Y-60803443D01*
X176781243Y-60737754D01*
X176781241Y-60737753D01*
X176781240Y-60737753D01*
X176619957Y-60712208D01*
X176571287Y-60704500D01*
X176358713Y-60704500D01*
X176310042Y-60712208D01*
X176148760Y-60737753D01*
X175946585Y-60803444D01*
X175757179Y-60899951D01*
X175585213Y-61024890D01*
X175434890Y-61175213D01*
X175309951Y-61347179D01*
X175213444Y-61536585D01*
X175147753Y-61738760D01*
X175137537Y-61803261D01*
X175114500Y-61948713D01*
X165810551Y-61948713D01*
X165683185Y-61863609D01*
X165683172Y-61863602D01*
X165537501Y-61803264D01*
X165537489Y-61803261D01*
X165382845Y-61772500D01*
X165382842Y-61772500D01*
X165225158Y-61772500D01*
X165225155Y-61772500D01*
X165070510Y-61803261D01*
X165070498Y-61803264D01*
X164924827Y-61863602D01*
X164924814Y-61863609D01*
X164793711Y-61951210D01*
X164793707Y-61951213D01*
X164682213Y-62062707D01*
X164682210Y-62062711D01*
X164594609Y-62193814D01*
X164594602Y-62193827D01*
X164534264Y-62339498D01*
X164534261Y-62339510D01*
X164503500Y-62494153D01*
X164503500Y-62515719D01*
X164483815Y-62582758D01*
X164467181Y-62603400D01*
X163580400Y-63490181D01*
X163519077Y-63523666D01*
X163492719Y-63526500D01*
X163421155Y-63526500D01*
X163266510Y-63557261D01*
X163266498Y-63557264D01*
X163120827Y-63617602D01*
X163120814Y-63617609D01*
X162989711Y-63705210D01*
X162989707Y-63705213D01*
X162878213Y-63816707D01*
X162878210Y-63816711D01*
X162790609Y-63947814D01*
X162790602Y-63947827D01*
X162730264Y-64093498D01*
X162730261Y-64093510D01*
X162699500Y-64248153D01*
X92600500Y-64248153D01*
X92600500Y-55421153D01*
X161049500Y-55421153D01*
X161049500Y-55578846D01*
X161080261Y-55733489D01*
X161080264Y-55733501D01*
X161140602Y-55879172D01*
X161140609Y-55879185D01*
X161228210Y-56010288D01*
X161228213Y-56010292D01*
X161339707Y-56121786D01*
X161339711Y-56121789D01*
X161470814Y-56209390D01*
X161470827Y-56209397D01*
X161616498Y-56269735D01*
X161616503Y-56269737D01*
X161771153Y-56300499D01*
X161771156Y-56300500D01*
X161771158Y-56300500D01*
X161928844Y-56300500D01*
X161928845Y-56300499D01*
X162083497Y-56269737D01*
X162229179Y-56209394D01*
X162360289Y-56121789D01*
X162471789Y-56010289D01*
X162559394Y-55879179D01*
X162619737Y-55733497D01*
X162641156Y-55625812D01*
X162673539Y-55563906D01*
X162675035Y-55562382D01*
X163193141Y-55044276D01*
X163254462Y-55010793D01*
X163305009Y-55010342D01*
X163358216Y-55020925D01*
X163371157Y-55023500D01*
X163371158Y-55023500D01*
X163528844Y-55023500D01*
X163528845Y-55023499D01*
X163683497Y-54992737D01*
X163829179Y-54932394D01*
X163960289Y-54844789D01*
X164071789Y-54733289D01*
X164159394Y-54602179D01*
X164219737Y-54456497D01*
X164250500Y-54301842D01*
X164250500Y-54144158D01*
X164250500Y-54144155D01*
X164250499Y-54144153D01*
X164238957Y-54086129D01*
X164219737Y-53989503D01*
X164204759Y-53953343D01*
X164159397Y-53843827D01*
X164159390Y-53843814D01*
X164071789Y-53712711D01*
X164071786Y-53712707D01*
X163960292Y-53601213D01*
X163960288Y-53601210D01*
X163829185Y-53513609D01*
X163829172Y-53513602D01*
X163683501Y-53453264D01*
X163683489Y-53453261D01*
X163528845Y-53422500D01*
X163528842Y-53422500D01*
X163371158Y-53422500D01*
X163371155Y-53422500D01*
X163216510Y-53453261D01*
X163216498Y-53453264D01*
X163070827Y-53513602D01*
X163070815Y-53513609D01*
X162939709Y-53601212D01*
X162939703Y-53601216D01*
X162922722Y-53618198D01*
X162915799Y-53622824D01*
X162912862Y-53627056D01*
X162882512Y-53645069D01*
X162878974Y-53646535D01*
X162829766Y-53666917D01*
X162829764Y-53666918D01*
X162753729Y-53717724D01*
X162753728Y-53717725D01*
X162726989Y-53735590D01*
X161787672Y-54674907D01*
X161726349Y-54708392D01*
X161724183Y-54708843D01*
X161616508Y-54730261D01*
X161616498Y-54730264D01*
X161470827Y-54790602D01*
X161470814Y-54790609D01*
X161339711Y-54878210D01*
X161339707Y-54878213D01*
X161228213Y-54989707D01*
X161228210Y-54989711D01*
X161140609Y-55120814D01*
X161140602Y-55120827D01*
X161080264Y-55266498D01*
X161080261Y-55266510D01*
X161049500Y-55421153D01*
X92600500Y-55421153D01*
X92600500Y-45619983D01*
X97244500Y-45619983D01*
X97244500Y-46920001D01*
X97244501Y-46920018D01*
X97255000Y-47022796D01*
X97255001Y-47022799D01*
X97310185Y-47189331D01*
X97310187Y-47189336D01*
X97402289Y-47338657D01*
X97526344Y-47462712D01*
X97681120Y-47558178D01*
X97727845Y-47610126D01*
X97739068Y-47679088D01*
X97711224Y-47743171D01*
X97703706Y-47751398D01*
X97564889Y-47890215D01*
X97439951Y-48062179D01*
X97343444Y-48251585D01*
X97277753Y-48453760D01*
X97252812Y-48611231D01*
X97244500Y-48663713D01*
X97244500Y-48876287D01*
X97252811Y-48928760D01*
X97277753Y-49086239D01*
X97343444Y-49288414D01*
X97439951Y-49477820D01*
X97564890Y-49649786D01*
X97715209Y-49800105D01*
X97715214Y-49800109D01*
X97879793Y-49919682D01*
X97922459Y-49975011D01*
X97928438Y-50044625D01*
X97895833Y-50106420D01*
X97879793Y-50120318D01*
X97715214Y-50239890D01*
X97715209Y-50239894D01*
X97564890Y-50390213D01*
X97439951Y-50562179D01*
X97343444Y-50751585D01*
X97277753Y-50953760D01*
X97244500Y-51163713D01*
X97244500Y-51376286D01*
X97277753Y-51586239D01*
X97343444Y-51788414D01*
X97439951Y-51977820D01*
X97564890Y-52149786D01*
X97715209Y-52300105D01*
X97715214Y-52300109D01*
X97880218Y-52419991D01*
X97922884Y-52475320D01*
X97928863Y-52544934D01*
X97896258Y-52606729D01*
X97880218Y-52620627D01*
X97715540Y-52740272D01*
X97715535Y-52740276D01*
X97565276Y-52890535D01*
X97565272Y-52890540D01*
X97440379Y-53062442D01*
X97343904Y-53251782D01*
X97278242Y-53453870D01*
X97278242Y-53453873D01*
X97267769Y-53520000D01*
X98315854Y-53520000D01*
X98277370Y-53586657D01*
X98245000Y-53707465D01*
X98245000Y-53832535D01*
X98277370Y-53953343D01*
X98315854Y-54020000D01*
X97267769Y-54020000D01*
X97278242Y-54086126D01*
X97278242Y-54086129D01*
X97343904Y-54288217D01*
X97440379Y-54477557D01*
X97565272Y-54649459D01*
X97565276Y-54649464D01*
X97715535Y-54799723D01*
X97715540Y-54799727D01*
X97887442Y-54924620D01*
X98076782Y-55021095D01*
X98278872Y-55086757D01*
X98470000Y-55117029D01*
X98470000Y-54174145D01*
X98536657Y-54212630D01*
X98657465Y-54245000D01*
X98782535Y-54245000D01*
X98903343Y-54212630D01*
X98970000Y-54174145D01*
X98970000Y-55117028D01*
X99161127Y-55086757D01*
X99363217Y-55021095D01*
X99552557Y-54924620D01*
X99724459Y-54799727D01*
X99724464Y-54799723D01*
X99874723Y-54649464D01*
X99874727Y-54649459D01*
X99999620Y-54477557D01*
X100096095Y-54288217D01*
X100161757Y-54086129D01*
X100161757Y-54086126D01*
X100172231Y-54020000D01*
X99124146Y-54020000D01*
X99162630Y-53953343D01*
X99195000Y-53832535D01*
X99195000Y-53707465D01*
X99162630Y-53586657D01*
X99124146Y-53520000D01*
X100172231Y-53520000D01*
X100161757Y-53453873D01*
X100161757Y-53453870D01*
X100096095Y-53251782D01*
X99999620Y-53062442D01*
X99874727Y-52890540D01*
X99874723Y-52890535D01*
X99724464Y-52740276D01*
X99724459Y-52740272D01*
X99559781Y-52620627D01*
X99517115Y-52565297D01*
X99511136Y-52495684D01*
X99543741Y-52433889D01*
X99559776Y-52419994D01*
X99724792Y-52300104D01*
X99875104Y-52149792D01*
X99875106Y-52149788D01*
X99875109Y-52149786D01*
X100000048Y-51977820D01*
X100000047Y-51977820D01*
X100000051Y-51977816D01*
X100096557Y-51788412D01*
X100162246Y-51586243D01*
X100195500Y-51376287D01*
X100195500Y-51163713D01*
X100162246Y-50953757D01*
X100096557Y-50751588D01*
X100000051Y-50562184D01*
X100000049Y-50562181D01*
X100000048Y-50562179D01*
X99875109Y-50390213D01*
X99724792Y-50239896D01*
X99672957Y-50202236D01*
X99560204Y-50120316D01*
X99517540Y-50064989D01*
X99511561Y-49995376D01*
X99544166Y-49933580D01*
X99560199Y-49919686D01*
X99724792Y-49800104D01*
X99875104Y-49649792D01*
X99875106Y-49649788D01*
X99875109Y-49649786D01*
X100000048Y-49477820D01*
X100000047Y-49477820D01*
X100000051Y-49477816D01*
X100096557Y-49288412D01*
X100162246Y-49086243D01*
X100195500Y-48876287D01*
X100195500Y-48663713D01*
X100184615Y-48594991D01*
X100184614Y-48594983D01*
X151159500Y-48594983D01*
X151159500Y-50145001D01*
X151159501Y-50145018D01*
X151170000Y-50247796D01*
X151170001Y-50247799D01*
X151215894Y-50386294D01*
X151225186Y-50414334D01*
X151317288Y-50563656D01*
X151441344Y-50687712D01*
X151590666Y-50779814D01*
X151757203Y-50834999D01*
X151859991Y-50845500D01*
X153160008Y-50845499D01*
X153262797Y-50834999D01*
X153429334Y-50779814D01*
X153578656Y-50687712D01*
X153702712Y-50563656D01*
X153794814Y-50414334D01*
X153794814Y-50414331D01*
X153798178Y-50408879D01*
X153850126Y-50362154D01*
X153919088Y-50350931D01*
X153983170Y-50378774D01*
X153991398Y-50386294D01*
X154130213Y-50525109D01*
X154302179Y-50650048D01*
X154302181Y-50650049D01*
X154302184Y-50650051D01*
X154491588Y-50746557D01*
X154693757Y-50812246D01*
X154903713Y-50845500D01*
X154903714Y-50845500D01*
X155116286Y-50845500D01*
X155116287Y-50845500D01*
X155326243Y-50812246D01*
X155528412Y-50746557D01*
X155717816Y-50650051D01*
X155739789Y-50634086D01*
X155889786Y-50525109D01*
X155889788Y-50525106D01*
X155889792Y-50525104D01*
X156040104Y-50374792D01*
X156159683Y-50210204D01*
X156215011Y-50167540D01*
X156284624Y-50161561D01*
X156346420Y-50194166D01*
X156360313Y-50210199D01*
X156462560Y-50350931D01*
X156479896Y-50374792D01*
X156630213Y-50525109D01*
X156802179Y-50650048D01*
X156802181Y-50650049D01*
X156802184Y-50650051D01*
X156991588Y-50746557D01*
X157193757Y-50812246D01*
X157403713Y-50845500D01*
X157403714Y-50845500D01*
X157616286Y-50845500D01*
X157616287Y-50845500D01*
X157826243Y-50812246D01*
X158028412Y-50746557D01*
X158217816Y-50650051D01*
X158239789Y-50634086D01*
X158389786Y-50525109D01*
X158389788Y-50525106D01*
X158389792Y-50525104D01*
X158540104Y-50374792D01*
X158659683Y-50210204D01*
X158715011Y-50167540D01*
X158784624Y-50161561D01*
X158846420Y-50194166D01*
X158860313Y-50210199D01*
X158962560Y-50350931D01*
X158979896Y-50374792D01*
X159130213Y-50525109D01*
X159302179Y-50650048D01*
X159302181Y-50650049D01*
X159302184Y-50650051D01*
X159491588Y-50746557D01*
X159693757Y-50812246D01*
X159903713Y-50845500D01*
X159903714Y-50845500D01*
X160116286Y-50845500D01*
X160116287Y-50845500D01*
X160326243Y-50812246D01*
X160528412Y-50746557D01*
X160717816Y-50650051D01*
X160739789Y-50634086D01*
X160889786Y-50525109D01*
X160889788Y-50525106D01*
X160889792Y-50525104D01*
X161040104Y-50374792D01*
X161040106Y-50374788D01*
X161040109Y-50374786D01*
X161165048Y-50202820D01*
X161165047Y-50202820D01*
X161165051Y-50202816D01*
X161261557Y-50013412D01*
X161327246Y-49811243D01*
X161360500Y-49601287D01*
X161360500Y-49138713D01*
X161327246Y-48928757D01*
X161261557Y-48726588D01*
X161165051Y-48537184D01*
X161165049Y-48537181D01*
X161165048Y-48537179D01*
X161040109Y-48365213D01*
X160889786Y-48214890D01*
X160717820Y-48089951D01*
X160528414Y-47993444D01*
X160528413Y-47993443D01*
X160528412Y-47993443D01*
X160326243Y-47927754D01*
X160326241Y-47927753D01*
X160326240Y-47927753D01*
X160164957Y-47902208D01*
X160116287Y-47894500D01*
X159903713Y-47894500D01*
X159855042Y-47902208D01*
X159693760Y-47927753D01*
X159491585Y-47993444D01*
X159302179Y-48089951D01*
X159130213Y-48214890D01*
X158979894Y-48365209D01*
X158979890Y-48365214D01*
X158860318Y-48529793D01*
X158804989Y-48572459D01*
X158735375Y-48578438D01*
X158673580Y-48545833D01*
X158659682Y-48529793D01*
X158540109Y-48365214D01*
X158540105Y-48365209D01*
X158389786Y-48214890D01*
X158217820Y-48089951D01*
X158028414Y-47993444D01*
X158028413Y-47993443D01*
X158028412Y-47993443D01*
X157826243Y-47927754D01*
X157826241Y-47927753D01*
X157826240Y-47927753D01*
X157664957Y-47902208D01*
X157616287Y-47894500D01*
X157403713Y-47894500D01*
X157355042Y-47902208D01*
X157193760Y-47927753D01*
X156991585Y-47993444D01*
X156802179Y-48089951D01*
X156630213Y-48214890D01*
X156479894Y-48365209D01*
X156479890Y-48365214D01*
X156360318Y-48529793D01*
X156304989Y-48572459D01*
X156235375Y-48578438D01*
X156173580Y-48545833D01*
X156159682Y-48529793D01*
X156040109Y-48365214D01*
X156040105Y-48365209D01*
X155889786Y-48214890D01*
X155717820Y-48089951D01*
X155528414Y-47993444D01*
X155528413Y-47993443D01*
X155528412Y-47993443D01*
X155326243Y-47927754D01*
X155326241Y-47927753D01*
X155326240Y-47927753D01*
X155164957Y-47902208D01*
X155116287Y-47894500D01*
X154903713Y-47894500D01*
X154855042Y-47902208D01*
X154693760Y-47927753D01*
X154491585Y-47993444D01*
X154302179Y-48089951D01*
X154130215Y-48214889D01*
X153991398Y-48353706D01*
X153930075Y-48387190D01*
X153860383Y-48382206D01*
X153804450Y-48340334D01*
X153798178Y-48331120D01*
X153702712Y-48176344D01*
X153578657Y-48052289D01*
X153578656Y-48052288D01*
X153441711Y-47967820D01*
X153429336Y-47960187D01*
X153429331Y-47960185D01*
X153427862Y-47959698D01*
X153262797Y-47905001D01*
X153262795Y-47905000D01*
X153160010Y-47894500D01*
X151859998Y-47894500D01*
X151859981Y-47894501D01*
X151757203Y-47905000D01*
X151757200Y-47905001D01*
X151590668Y-47960185D01*
X151590663Y-47960187D01*
X151441342Y-48052289D01*
X151317289Y-48176342D01*
X151225187Y-48325663D01*
X151225185Y-48325668D01*
X151220325Y-48340334D01*
X151170001Y-48492203D01*
X151170001Y-48492204D01*
X151170000Y-48492204D01*
X151159500Y-48594983D01*
X100184614Y-48594983D01*
X100170553Y-48506203D01*
X100162246Y-48453757D01*
X100096557Y-48251588D01*
X100000051Y-48062184D01*
X100000049Y-48062181D01*
X100000048Y-48062179D01*
X99875109Y-47890213D01*
X99736294Y-47751398D01*
X99702809Y-47690075D01*
X99707793Y-47620383D01*
X99749665Y-47564450D01*
X99758879Y-47558178D01*
X99764331Y-47554814D01*
X99764334Y-47554814D01*
X99913656Y-47462712D01*
X100037712Y-47338656D01*
X100129814Y-47189334D01*
X100184999Y-47022797D01*
X100195500Y-46920009D01*
X100195499Y-45619992D01*
X100184999Y-45517203D01*
X100129814Y-45350666D01*
X100037712Y-45201344D01*
X99971627Y-45135259D01*
X106349500Y-45135259D01*
X106349500Y-45364742D01*
X106369573Y-45517200D01*
X106379452Y-45592239D01*
X106386890Y-45619998D01*
X106438842Y-45813888D01*
X106526650Y-46025877D01*
X106526657Y-46025891D01*
X106641392Y-46224618D01*
X106781081Y-46406662D01*
X106781089Y-46406671D01*
X106943330Y-46568912D01*
X106943338Y-46568919D01*
X107125382Y-46708608D01*
X107125385Y-46708609D01*
X107125388Y-46708612D01*
X107324112Y-46823345D01*
X107324117Y-46823347D01*
X107324123Y-46823350D01*
X107415480Y-46861191D01*
X107536113Y-46911159D01*
X107757762Y-46970549D01*
X107985266Y-47000501D01*
X107985273Y-47000501D01*
X108214727Y-47000501D01*
X108214734Y-47000501D01*
X108442238Y-46970549D01*
X108663887Y-46911159D01*
X108875888Y-46823345D01*
X109074612Y-46708612D01*
X109256661Y-46568920D01*
X109256665Y-46568915D01*
X109256670Y-46568912D01*
X109418911Y-46406671D01*
X109418914Y-46406666D01*
X109418919Y-46406662D01*
X109558611Y-46224613D01*
X109673344Y-46025889D01*
X109761158Y-45813888D01*
X109820548Y-45592239D01*
X109850500Y-45364735D01*
X109850500Y-45135267D01*
X109850499Y-45135259D01*
X164349500Y-45135259D01*
X164349500Y-45364742D01*
X164369573Y-45517200D01*
X164379452Y-45592239D01*
X164386890Y-45619998D01*
X164438842Y-45813888D01*
X164526650Y-46025877D01*
X164526657Y-46025891D01*
X164641392Y-46224618D01*
X164781081Y-46406662D01*
X164781089Y-46406671D01*
X164943330Y-46568912D01*
X164943338Y-46568919D01*
X165125382Y-46708608D01*
X165125385Y-46708609D01*
X165125388Y-46708612D01*
X165324112Y-46823345D01*
X165324117Y-46823347D01*
X165324123Y-46823350D01*
X165415480Y-46861191D01*
X165536113Y-46911159D01*
X165757762Y-46970549D01*
X165985266Y-47000501D01*
X165985273Y-47000501D01*
X166214727Y-47000501D01*
X166214734Y-47000501D01*
X166442238Y-46970549D01*
X166663887Y-46911159D01*
X166875888Y-46823345D01*
X167074612Y-46708612D01*
X167256661Y-46568920D01*
X167256665Y-46568915D01*
X167256670Y-46568912D01*
X167418911Y-46406671D01*
X167418914Y-46406666D01*
X167418919Y-46406662D01*
X167558611Y-46224613D01*
X167673344Y-46025889D01*
X167761158Y-45813888D01*
X167820548Y-45592239D01*
X167850500Y-45364735D01*
X167850500Y-45135267D01*
X167820548Y-44907763D01*
X167761158Y-44686114D01*
X167697642Y-44532774D01*
X167673349Y-44474124D01*
X167673346Y-44474118D01*
X167673344Y-44474113D01*
X167558611Y-44275389D01*
X167558608Y-44275386D01*
X167558607Y-44275383D01*
X167418918Y-44093339D01*
X167418911Y-44093331D01*
X167256670Y-43931090D01*
X167256661Y-43931082D01*
X167074617Y-43791393D01*
X166875890Y-43676658D01*
X166875876Y-43676651D01*
X166663887Y-43588843D01*
X166442238Y-43529453D01*
X166404215Y-43524447D01*
X166214741Y-43499501D01*
X166214734Y-43499501D01*
X165985266Y-43499501D01*
X165985258Y-43499501D01*
X165768715Y-43528010D01*
X165757762Y-43529453D01*
X165664076Y-43554555D01*
X165536112Y-43588843D01*
X165324123Y-43676651D01*
X165324109Y-43676658D01*
X165125382Y-43791393D01*
X164943338Y-43931082D01*
X164781081Y-44093339D01*
X164641392Y-44275383D01*
X164526657Y-44474110D01*
X164526650Y-44474124D01*
X164438842Y-44686113D01*
X164379453Y-44907760D01*
X164379451Y-44907771D01*
X164349500Y-45135259D01*
X109850499Y-45135259D01*
X109820548Y-44907763D01*
X109761158Y-44686114D01*
X109697642Y-44532774D01*
X109673349Y-44474124D01*
X109673346Y-44474118D01*
X109673344Y-44474113D01*
X109558611Y-44275389D01*
X109558608Y-44275386D01*
X109558607Y-44275383D01*
X109418918Y-44093339D01*
X109418911Y-44093331D01*
X109256670Y-43931090D01*
X109256661Y-43931082D01*
X109074617Y-43791393D01*
X108875890Y-43676658D01*
X108875876Y-43676651D01*
X108663887Y-43588843D01*
X108442238Y-43529453D01*
X108404215Y-43524447D01*
X108214741Y-43499501D01*
X108214734Y-43499501D01*
X107985266Y-43499501D01*
X107985258Y-43499501D01*
X107768715Y-43528010D01*
X107757762Y-43529453D01*
X107664076Y-43554555D01*
X107536112Y-43588843D01*
X107324123Y-43676651D01*
X107324109Y-43676658D01*
X107125382Y-43791393D01*
X106943338Y-43931082D01*
X106781081Y-44093339D01*
X106641392Y-44275383D01*
X106526657Y-44474110D01*
X106526650Y-44474124D01*
X106438842Y-44686113D01*
X106379453Y-44907760D01*
X106379451Y-44907771D01*
X106349500Y-45135259D01*
X99971627Y-45135259D01*
X99913656Y-45077288D01*
X99764334Y-44985186D01*
X99597797Y-44930001D01*
X99597795Y-44930000D01*
X99495010Y-44919500D01*
X97944998Y-44919500D01*
X97944981Y-44919501D01*
X97842203Y-44930000D01*
X97842200Y-44930001D01*
X97675668Y-44985185D01*
X97675663Y-44985187D01*
X97526342Y-45077289D01*
X97402289Y-45201342D01*
X97310187Y-45350663D01*
X97310185Y-45350668D01*
X97284621Y-45427816D01*
X97255001Y-45517203D01*
X97255001Y-45517204D01*
X97255000Y-45517204D01*
X97244500Y-45619983D01*
X92600500Y-45619983D01*
X92600500Y-39142135D01*
X114809500Y-39142135D01*
X114809500Y-40937870D01*
X114809501Y-40937876D01*
X114815908Y-40997483D01*
X114866202Y-41132328D01*
X114866206Y-41132335D01*
X114952452Y-41247544D01*
X114952455Y-41247547D01*
X115067664Y-41333793D01*
X115067671Y-41333797D01*
X115202517Y-41384091D01*
X115202516Y-41384091D01*
X115209444Y-41384835D01*
X115262127Y-41390500D01*
X117057872Y-41390499D01*
X117117483Y-41384091D01*
X117252331Y-41333796D01*
X117367546Y-41247546D01*
X117453796Y-41132331D01*
X117502810Y-41000916D01*
X117544681Y-40944984D01*
X117610145Y-40920566D01*
X117678418Y-40935417D01*
X117706673Y-40956569D01*
X117820213Y-41070109D01*
X117992179Y-41195048D01*
X117992181Y-41195049D01*
X117992184Y-41195051D01*
X118181588Y-41291557D01*
X118383757Y-41357246D01*
X118593713Y-41390500D01*
X118593714Y-41390500D01*
X118806286Y-41390500D01*
X118806287Y-41390500D01*
X119016243Y-41357246D01*
X119218412Y-41291557D01*
X119407816Y-41195051D01*
X119494138Y-41132335D01*
X119579786Y-41070109D01*
X119579788Y-41070106D01*
X119579792Y-41070104D01*
X119730104Y-40919792D01*
X119730106Y-40919788D01*
X119730109Y-40919786D01*
X119817695Y-40799232D01*
X119855051Y-40747816D01*
X119859793Y-40738508D01*
X119907763Y-40687711D01*
X119975583Y-40670911D01*
X120041719Y-40693445D01*
X120080763Y-40738500D01*
X120085377Y-40747555D01*
X120210272Y-40919459D01*
X120210276Y-40919464D01*
X120360535Y-41069723D01*
X120360540Y-41069727D01*
X120532442Y-41194620D01*
X120721782Y-41291095D01*
X120923871Y-41356757D01*
X120990000Y-41367231D01*
X120990000Y-40473012D01*
X121047007Y-40505925D01*
X121174174Y-40540000D01*
X121305826Y-40540000D01*
X121432993Y-40505925D01*
X121490000Y-40473012D01*
X121490000Y-41367230D01*
X121556126Y-41356757D01*
X121556129Y-41356757D01*
X121758217Y-41291095D01*
X121947557Y-41194620D01*
X122119459Y-41069727D01*
X122119464Y-41069723D01*
X122269723Y-40919464D01*
X122269727Y-40919459D01*
X122394620Y-40747558D01*
X122399232Y-40738507D01*
X122447205Y-40687709D01*
X122515025Y-40670912D01*
X122581161Y-40693447D01*
X122620204Y-40738504D01*
X122624949Y-40747817D01*
X122749890Y-40919786D01*
X122900213Y-41070109D01*
X123072179Y-41195048D01*
X123072181Y-41195049D01*
X123072184Y-41195051D01*
X123261588Y-41291557D01*
X123463757Y-41357246D01*
X123673713Y-41390500D01*
X123673714Y-41390500D01*
X123886286Y-41390500D01*
X123886287Y-41390500D01*
X124096243Y-41357246D01*
X124298412Y-41291557D01*
X124487816Y-41195051D01*
X124574138Y-41132335D01*
X124659786Y-41070109D01*
X124659788Y-41070106D01*
X124659792Y-41070104D01*
X124810104Y-40919792D01*
X124810106Y-40919788D01*
X124810109Y-40919786D01*
X124935048Y-40747820D01*
X124935047Y-40747820D01*
X124935051Y-40747816D01*
X125031557Y-40558412D01*
X125097246Y-40356243D01*
X125130500Y-40146287D01*
X125130500Y-39933713D01*
X125097246Y-39723757D01*
X125031557Y-39521588D01*
X124935051Y-39332184D01*
X124935049Y-39332181D01*
X124935048Y-39332179D01*
X124810109Y-39160213D01*
X124659786Y-39009890D01*
X124487820Y-38884951D01*
X124298414Y-38788444D01*
X124298413Y-38788443D01*
X124298412Y-38788443D01*
X124096243Y-38722754D01*
X124096241Y-38722753D01*
X124096240Y-38722753D01*
X123934957Y-38697208D01*
X123886287Y-38689500D01*
X123673713Y-38689500D01*
X123625042Y-38697208D01*
X123463760Y-38722753D01*
X123261585Y-38788444D01*
X123072179Y-38884951D01*
X122900213Y-39009890D01*
X122749890Y-39160213D01*
X122624949Y-39332182D01*
X122620202Y-39341499D01*
X122572227Y-39392293D01*
X122504405Y-39409087D01*
X122438271Y-39386548D01*
X122399234Y-39341495D01*
X122394622Y-39332444D01*
X122269727Y-39160540D01*
X122269723Y-39160535D01*
X122119464Y-39010276D01*
X122119459Y-39010272D01*
X121947557Y-38885379D01*
X121758215Y-38788903D01*
X121556124Y-38723241D01*
X121490000Y-38712768D01*
X121490000Y-39606988D01*
X121432993Y-39574075D01*
X121305826Y-39540000D01*
X121174174Y-39540000D01*
X121047007Y-39574075D01*
X120990000Y-39606988D01*
X120990000Y-38712768D01*
X120989999Y-38712768D01*
X120923875Y-38723241D01*
X120721784Y-38788903D01*
X120532442Y-38885379D01*
X120360540Y-39010272D01*
X120360535Y-39010276D01*
X120210276Y-39160535D01*
X120210272Y-39160540D01*
X120085378Y-39332443D01*
X120080762Y-39341502D01*
X120032784Y-39392295D01*
X119964963Y-39409087D01*
X119898829Y-39386546D01*
X119859794Y-39341493D01*
X119855051Y-39332184D01*
X119855049Y-39332181D01*
X119855048Y-39332179D01*
X119730109Y-39160213D01*
X119579786Y-39009890D01*
X119407820Y-38884951D01*
X119218414Y-38788444D01*
X119218413Y-38788443D01*
X119218412Y-38788443D01*
X119016243Y-38722754D01*
X119016241Y-38722753D01*
X119016240Y-38722753D01*
X118854957Y-38697208D01*
X118806287Y-38689500D01*
X118593713Y-38689500D01*
X118545042Y-38697208D01*
X118383760Y-38722753D01*
X118181585Y-38788444D01*
X117992179Y-38884951D01*
X117820215Y-39009889D01*
X117706673Y-39123431D01*
X117645350Y-39156915D01*
X117575658Y-39151931D01*
X117519725Y-39110059D01*
X117502810Y-39079082D01*
X117453797Y-38947671D01*
X117453793Y-38947664D01*
X117367547Y-38832455D01*
X117367544Y-38832452D01*
X117252335Y-38746206D01*
X117252328Y-38746202D01*
X117117482Y-38695908D01*
X117117483Y-38695908D01*
X117057883Y-38689501D01*
X117057881Y-38689500D01*
X117057873Y-38689500D01*
X117057864Y-38689500D01*
X115262129Y-38689500D01*
X115262123Y-38689501D01*
X115202516Y-38695908D01*
X115067671Y-38746202D01*
X115067664Y-38746206D01*
X114952455Y-38832452D01*
X114952452Y-38832455D01*
X114866206Y-38947664D01*
X114866202Y-38947671D01*
X114815908Y-39082517D01*
X114809501Y-39142116D01*
X114809500Y-39142135D01*
X92600500Y-39142135D01*
X92600500Y-34373920D01*
X135429499Y-34373920D01*
X135458340Y-34518907D01*
X135458343Y-34518917D01*
X135514912Y-34655488D01*
X135514919Y-34655501D01*
X135597048Y-34778415D01*
X135597051Y-34778419D01*
X135701580Y-34882948D01*
X135701584Y-34882951D01*
X135824498Y-34965080D01*
X135824511Y-34965087D01*
X135961082Y-35021656D01*
X135961087Y-35021658D01*
X135961091Y-35021658D01*
X135961092Y-35021659D01*
X136106079Y-35050500D01*
X136106082Y-35050500D01*
X136253920Y-35050500D01*
X136351462Y-35031096D01*
X136398913Y-35021658D01*
X136535495Y-34965084D01*
X136658416Y-34882951D01*
X136762951Y-34778416D01*
X136845084Y-34655495D01*
X136901658Y-34518913D01*
X136930500Y-34373920D01*
X139829499Y-34373920D01*
X139858340Y-34518907D01*
X139858343Y-34518917D01*
X139914912Y-34655488D01*
X139914919Y-34655501D01*
X139997048Y-34778415D01*
X139997051Y-34778419D01*
X140101580Y-34882948D01*
X140101584Y-34882951D01*
X140224498Y-34965080D01*
X140224511Y-34965087D01*
X140361082Y-35021656D01*
X140361087Y-35021658D01*
X140361091Y-35021658D01*
X140361092Y-35021659D01*
X140506079Y-35050500D01*
X140506082Y-35050500D01*
X140653920Y-35050500D01*
X140751462Y-35031096D01*
X140798913Y-35021658D01*
X140935495Y-34965084D01*
X141058416Y-34882951D01*
X141162951Y-34778416D01*
X141245084Y-34655495D01*
X141301658Y-34518913D01*
X141309509Y-34479443D01*
X141314627Y-34453713D01*
X177149500Y-34453713D01*
X177149500Y-34666286D01*
X177167259Y-34778416D01*
X177182754Y-34876243D01*
X177230002Y-35021658D01*
X177248444Y-35078414D01*
X177344951Y-35267820D01*
X177469890Y-35439786D01*
X177620213Y-35590109D01*
X177792182Y-35715050D01*
X177800946Y-35719516D01*
X177851742Y-35767491D01*
X177868536Y-35835312D01*
X177845998Y-35901447D01*
X177800946Y-35940484D01*
X177792182Y-35944949D01*
X177620213Y-36069890D01*
X177469890Y-36220213D01*
X177344951Y-36392179D01*
X177248444Y-36581585D01*
X177182753Y-36783760D01*
X177149500Y-36993713D01*
X177149500Y-37206286D01*
X177182753Y-37416239D01*
X177248444Y-37618414D01*
X177344951Y-37807820D01*
X177469890Y-37979786D01*
X177620213Y-38130109D01*
X177792179Y-38255048D01*
X177792181Y-38255049D01*
X177792184Y-38255051D01*
X177801493Y-38259794D01*
X177852290Y-38307766D01*
X177869087Y-38375587D01*
X177846552Y-38441722D01*
X177801502Y-38480762D01*
X177792443Y-38485378D01*
X177620540Y-38610272D01*
X177620535Y-38610276D01*
X177470276Y-38760535D01*
X177470272Y-38760540D01*
X177345379Y-38932442D01*
X177248904Y-39121782D01*
X177183242Y-39323870D01*
X177183242Y-39323873D01*
X177172769Y-39390000D01*
X178066988Y-39390000D01*
X178034075Y-39447007D01*
X178000000Y-39574174D01*
X178000000Y-39705826D01*
X178034075Y-39832993D01*
X178066988Y-39890000D01*
X177172769Y-39890000D01*
X177183242Y-39956126D01*
X177183242Y-39956129D01*
X177248904Y-40158217D01*
X177345379Y-40347557D01*
X177470272Y-40519459D01*
X177470276Y-40519464D01*
X177620535Y-40669723D01*
X177620540Y-40669727D01*
X177792444Y-40794622D01*
X177801495Y-40799234D01*
X177852292Y-40847208D01*
X177869087Y-40915029D01*
X177846550Y-40981164D01*
X177801499Y-41020202D01*
X177792182Y-41024949D01*
X177620213Y-41149890D01*
X177469890Y-41300213D01*
X177344951Y-41472179D01*
X177248444Y-41661585D01*
X177182753Y-41863760D01*
X177149500Y-42073713D01*
X177149500Y-42286286D01*
X177182753Y-42496239D01*
X177248444Y-42698414D01*
X177344951Y-42887820D01*
X177469890Y-43059786D01*
X177620213Y-43210109D01*
X177792182Y-43335050D01*
X177800946Y-43339516D01*
X177851742Y-43387491D01*
X177868536Y-43455312D01*
X177845998Y-43521447D01*
X177800946Y-43560484D01*
X177792182Y-43564949D01*
X177620213Y-43689890D01*
X177469890Y-43840213D01*
X177344951Y-44012179D01*
X177248444Y-44201585D01*
X177182753Y-44403760D01*
X177149500Y-44613713D01*
X177149500Y-44826286D01*
X177182150Y-45032433D01*
X177182754Y-45036243D01*
X177236398Y-45201342D01*
X177248444Y-45238414D01*
X177344951Y-45427820D01*
X177469890Y-45599786D01*
X177620213Y-45750109D01*
X177792182Y-45875050D01*
X177800946Y-45879516D01*
X177851742Y-45927491D01*
X177868536Y-45995312D01*
X177845998Y-46061447D01*
X177800946Y-46100484D01*
X177792182Y-46104949D01*
X177620213Y-46229890D01*
X177469890Y-46380213D01*
X177344951Y-46552179D01*
X177248444Y-46741585D01*
X177182753Y-46943760D01*
X177149500Y-47153713D01*
X177149500Y-47366286D01*
X177179892Y-47558178D01*
X177182754Y-47576243D01*
X177236992Y-47743171D01*
X177248444Y-47778414D01*
X177344951Y-47967820D01*
X177469890Y-48139786D01*
X177583430Y-48253326D01*
X177616915Y-48314649D01*
X177611931Y-48384341D01*
X177570059Y-48440274D01*
X177539083Y-48457189D01*
X177407669Y-48506203D01*
X177407664Y-48506206D01*
X177292455Y-48592452D01*
X177292452Y-48592455D01*
X177206206Y-48707664D01*
X177206202Y-48707671D01*
X177155908Y-48842517D01*
X177152278Y-48876286D01*
X177149501Y-48902123D01*
X177149500Y-48902135D01*
X177149500Y-50697870D01*
X177149501Y-50697876D01*
X177155908Y-50757483D01*
X177206202Y-50892328D01*
X177206206Y-50892335D01*
X177292452Y-51007544D01*
X177292455Y-51007547D01*
X177407664Y-51093793D01*
X177407671Y-51093797D01*
X177542517Y-51144091D01*
X177542516Y-51144091D01*
X177549444Y-51144835D01*
X177602127Y-51150500D01*
X179397872Y-51150499D01*
X179457483Y-51144091D01*
X179592331Y-51093796D01*
X179707546Y-51007546D01*
X179793796Y-50892331D01*
X179844091Y-50757483D01*
X179850500Y-50697873D01*
X179850499Y-48902128D01*
X179844091Y-48842517D01*
X179800852Y-48726588D01*
X179793797Y-48707671D01*
X179793793Y-48707664D01*
X179707547Y-48592455D01*
X179707544Y-48592452D01*
X179592335Y-48506206D01*
X179592328Y-48506202D01*
X179460917Y-48457189D01*
X179404983Y-48415318D01*
X179380566Y-48349853D01*
X179395418Y-48281580D01*
X179416563Y-48253332D01*
X179530104Y-48139792D01*
X179655051Y-47967816D01*
X179751557Y-47778412D01*
X179817246Y-47576243D01*
X179850500Y-47366287D01*
X179850500Y-47153713D01*
X179817246Y-46943757D01*
X179751557Y-46741588D01*
X179655051Y-46552184D01*
X179655049Y-46552181D01*
X179655048Y-46552179D01*
X179530109Y-46380213D01*
X179379786Y-46229890D01*
X179207820Y-46104951D01*
X179207115Y-46104591D01*
X179199054Y-46100485D01*
X179148259Y-46052512D01*
X179131463Y-45984692D01*
X179153999Y-45918556D01*
X179199054Y-45879515D01*
X179207816Y-45875051D01*
X179270688Y-45829372D01*
X179379786Y-45750109D01*
X179379788Y-45750106D01*
X179379792Y-45750104D01*
X179530104Y-45599792D01*
X179530106Y-45599788D01*
X179530109Y-45599786D01*
X179655048Y-45427820D01*
X179655047Y-45427820D01*
X179655051Y-45427816D01*
X179751557Y-45238412D01*
X179817246Y-45036243D01*
X179850500Y-44826287D01*
X179850500Y-44613713D01*
X179817246Y-44403757D01*
X179751557Y-44201588D01*
X179655051Y-44012184D01*
X179655049Y-44012181D01*
X179655048Y-44012179D01*
X179530109Y-43840213D01*
X179379786Y-43689890D01*
X179207820Y-43564951D01*
X179207115Y-43564591D01*
X179199054Y-43560485D01*
X179148259Y-43512512D01*
X179131463Y-43444692D01*
X179153999Y-43378556D01*
X179199054Y-43339515D01*
X179207816Y-43335051D01*
X179229789Y-43319086D01*
X179379786Y-43210109D01*
X179379788Y-43210106D01*
X179379792Y-43210104D01*
X179530104Y-43059792D01*
X179530106Y-43059788D01*
X179530109Y-43059786D01*
X179655048Y-42887820D01*
X179655047Y-42887820D01*
X179655051Y-42887816D01*
X179751557Y-42698412D01*
X179817246Y-42496243D01*
X179850500Y-42286287D01*
X179850500Y-42073713D01*
X179817246Y-41863757D01*
X179751557Y-41661588D01*
X179655051Y-41472184D01*
X179655049Y-41472181D01*
X179655048Y-41472179D01*
X179530109Y-41300213D01*
X179379786Y-41149890D01*
X179207817Y-41024949D01*
X179198504Y-41020204D01*
X179147707Y-40972230D01*
X179130912Y-40904409D01*
X179153449Y-40838274D01*
X179198507Y-40799232D01*
X179207558Y-40794620D01*
X179379459Y-40669727D01*
X179379464Y-40669723D01*
X179529723Y-40519464D01*
X179529727Y-40519459D01*
X179654620Y-40347557D01*
X179751095Y-40158217D01*
X179816757Y-39956129D01*
X179816757Y-39956126D01*
X179827231Y-39890000D01*
X178933012Y-39890000D01*
X178965925Y-39832993D01*
X179000000Y-39705826D01*
X179000000Y-39574174D01*
X178965925Y-39447007D01*
X178933012Y-39390000D01*
X179827231Y-39390000D01*
X179816757Y-39323873D01*
X179816757Y-39323870D01*
X179751095Y-39121782D01*
X179654620Y-38932442D01*
X179529727Y-38760540D01*
X179529723Y-38760535D01*
X179379464Y-38610276D01*
X179379459Y-38610272D01*
X179207555Y-38485377D01*
X179198500Y-38480763D01*
X179147706Y-38432788D01*
X179130912Y-38364966D01*
X179153451Y-38298832D01*
X179198508Y-38259793D01*
X179207816Y-38255051D01*
X179287007Y-38197515D01*
X179379786Y-38130109D01*
X179379788Y-38130106D01*
X179379792Y-38130104D01*
X179530104Y-37979792D01*
X179530106Y-37979788D01*
X179530109Y-37979786D01*
X179655048Y-37807820D01*
X179655047Y-37807820D01*
X179655051Y-37807816D01*
X179751557Y-37618412D01*
X179817246Y-37416243D01*
X179850500Y-37206287D01*
X179850500Y-36993713D01*
X179817246Y-36783757D01*
X179751557Y-36581588D01*
X179655051Y-36392184D01*
X179655049Y-36392181D01*
X179655048Y-36392179D01*
X179530109Y-36220213D01*
X179379786Y-36069890D01*
X179207820Y-35944951D01*
X179207115Y-35944591D01*
X179199054Y-35940485D01*
X179148259Y-35892512D01*
X179131463Y-35824692D01*
X179153999Y-35758556D01*
X179199054Y-35719515D01*
X179207816Y-35715051D01*
X179229789Y-35699086D01*
X179379786Y-35590109D01*
X179379788Y-35590106D01*
X179379792Y-35590104D01*
X179530104Y-35439792D01*
X179530106Y-35439788D01*
X179530109Y-35439786D01*
X179655048Y-35267820D01*
X179655047Y-35267820D01*
X179655051Y-35267816D01*
X179751557Y-35078412D01*
X179817246Y-34876243D01*
X179850500Y-34666287D01*
X179850500Y-34453713D01*
X179817246Y-34243757D01*
X179751557Y-34041588D01*
X179655051Y-33852184D01*
X179655049Y-33852181D01*
X179655048Y-33852179D01*
X179530109Y-33680213D01*
X179379786Y-33529890D01*
X179207820Y-33404951D01*
X179018414Y-33308444D01*
X179018413Y-33308443D01*
X179018412Y-33308443D01*
X178816243Y-33242754D01*
X178816241Y-33242753D01*
X178816240Y-33242753D01*
X178654957Y-33217208D01*
X178606287Y-33209500D01*
X178393713Y-33209500D01*
X178345042Y-33217208D01*
X178183760Y-33242753D01*
X177981585Y-33308444D01*
X177792179Y-33404951D01*
X177620213Y-33529890D01*
X177469890Y-33680213D01*
X177344951Y-33852179D01*
X177248444Y-34041585D01*
X177182753Y-34243760D01*
X177149500Y-34453713D01*
X141314627Y-34453713D01*
X141320409Y-34424649D01*
X141330500Y-34373920D01*
X141330500Y-34226079D01*
X141301659Y-34081092D01*
X141301658Y-34081091D01*
X141301658Y-34081087D01*
X141285296Y-34041585D01*
X141245087Y-33944511D01*
X141245080Y-33944498D01*
X141162951Y-33821584D01*
X141162948Y-33821580D01*
X141058419Y-33717051D01*
X141058415Y-33717048D01*
X140935501Y-33634919D01*
X140935488Y-33634912D01*
X140798917Y-33578343D01*
X140798907Y-33578340D01*
X140653920Y-33549500D01*
X140653918Y-33549500D01*
X140506082Y-33549500D01*
X140506080Y-33549500D01*
X140361092Y-33578340D01*
X140361082Y-33578343D01*
X140224511Y-33634912D01*
X140224498Y-33634919D01*
X140101584Y-33717048D01*
X140101580Y-33717051D01*
X139997051Y-33821580D01*
X139997048Y-33821584D01*
X139914919Y-33944498D01*
X139914912Y-33944511D01*
X139858343Y-34081082D01*
X139858340Y-34081092D01*
X139829500Y-34226079D01*
X139829500Y-34226082D01*
X139829500Y-34373918D01*
X139829500Y-34373920D01*
X139829499Y-34373920D01*
X136930500Y-34373920D01*
X136930500Y-34373918D01*
X136930500Y-34226082D01*
X136930500Y-34226079D01*
X136901659Y-34081092D01*
X136901658Y-34081091D01*
X136901658Y-34081087D01*
X136885296Y-34041585D01*
X136845087Y-33944511D01*
X136845080Y-33944498D01*
X136762951Y-33821584D01*
X136762948Y-33821580D01*
X136658419Y-33717051D01*
X136658415Y-33717048D01*
X136535501Y-33634919D01*
X136535488Y-33634912D01*
X136398917Y-33578343D01*
X136398907Y-33578340D01*
X136253920Y-33549500D01*
X136253918Y-33549500D01*
X136106082Y-33549500D01*
X136106080Y-33549500D01*
X135961092Y-33578340D01*
X135961082Y-33578343D01*
X135824511Y-33634912D01*
X135824498Y-33634919D01*
X135701584Y-33717048D01*
X135701580Y-33717051D01*
X135597051Y-33821580D01*
X135597048Y-33821584D01*
X135514919Y-33944498D01*
X135514912Y-33944511D01*
X135458343Y-34081082D01*
X135458340Y-34081092D01*
X135429500Y-34226079D01*
X135429500Y-34226082D01*
X135429500Y-34373918D01*
X135429500Y-34373920D01*
X135429499Y-34373920D01*
X92600500Y-34373920D01*
X92600500Y-32753751D01*
X92600726Y-32746264D01*
X92618271Y-32456206D01*
X92620076Y-32441341D01*
X92671780Y-32159203D01*
X92675364Y-32144665D01*
X92760696Y-31870822D01*
X92765998Y-31856842D01*
X92883727Y-31595256D01*
X92890678Y-31582011D01*
X93039079Y-31336527D01*
X93047566Y-31324231D01*
X93224480Y-31098417D01*
X93234395Y-31087226D01*
X93437226Y-30884396D01*
X93448417Y-30874481D01*
X93674230Y-30697567D01*
X93686526Y-30689080D01*
X93932016Y-30540676D01*
X93945249Y-30533731D01*
X94206841Y-30415998D01*
X94220821Y-30410696D01*
X94494668Y-30325362D01*
X94509198Y-30321780D01*
X94791344Y-30270075D01*
X94806201Y-30268271D01*
X95096248Y-30250727D01*
X95103735Y-30250501D01*
X95165893Y-30250501D01*
X179034108Y-30250501D01*
X179096249Y-30250501D01*
X179103736Y-30250727D01*
G37*
%TD.AperFunction*%
%TD*%
M02*
