M48
; DRILL file {KiCad 9.0.0} date 2025-05-06T13:43:18-0600
; FORMAT={-:-/ absolute / metric / decimal}
; #@! TF.CreationDate,2025-05-06T13:43:18-06:00
; #@! TF.GenerationSoftware,Kicad,Pcbnew,9.0.0
; #@! TF.FileFunction,Plated,1,2,PTH
FMAT,2
METRIC
; #@! TA.AperFunction,Plated,PTH,ViaDrill
T1C0.300
; #@! TA.AperFunction,Plated,PTH,ComponentDrill
T2C0.950
; #@! TA.AperFunction,Plated,PTH,ComponentDrill
T3C1.000
%
G90
G05
T1
X100.25Y-97.2
X101.55Y-104.85
X120.9Y-71.0
X129.5Y-101.483
X131.35Y-77.8
X132.07Y-71.58
X132.529Y-104.421
X133.26Y-70.57
X133.51Y-59.26
X133.64Y-85.39
X135.22Y-88.64
X135.3Y-31.06
X135.31Y-31.97
X135.31Y-36.46
X135.31Y-37.25
X135.31Y-75.73
X136.78Y-35.48
X137.2Y-59.89
X137.96Y-77.27
X138.32Y-48.63
X141.24Y-79.92
X141.41Y-36.42
X141.42Y-37.15
X141.43Y-31.09
X141.43Y-31.9
X142.3Y-74.08
X142.39Y-77.29
X145.11Y-70.69
X147.17Y-41.28
X148.07Y-63.56
X148.4Y-32.585
X148.43Y-76.28
X148.46Y-78.57
X148.58Y-83.95
X148.85Y-62.75
X150.07Y-72.38
X153.88Y-30.56
X156.3Y-38.97
X156.42Y-36.24
X157.7Y-38.95
X159.973Y-93.15
X160.49Y-38.99
X161.55Y-95.2
X161.85Y-55.5
X162.82Y-30.55
X163.45Y-54.223
X163.5Y-64.327
X165.304Y-62.573
X173.35Y-99.58
X173.99Y-90.01
X174.0Y-92.9
X175.25Y-98.05
T2
X97.51Y-66.26
X97.51Y-68.76
X97.51Y-71.26
X97.51Y-73.76
X97.51Y-76.26
X97.51Y-78.76
X98.72Y-46.27
X98.72Y-48.77
X98.72Y-51.27
X98.72Y-53.77
X152.51Y-49.37
X155.01Y-49.37
X157.51Y-49.37
X158.9Y-89.5
X158.9Y-92.0
X158.9Y-94.5
X158.9Y-97.0
X158.9Y-99.5
X160.01Y-49.37
T3
X111.75Y-98.975
X114.25Y-98.975
X116.16Y-40.04
X118.7Y-40.04
X121.24Y-40.04
X122.3Y-99.0
X123.78Y-40.04
X124.8Y-99.0
X135.11Y-100.85
X137.65Y-100.85
X140.19Y-100.85
X142.73Y-100.85
X176.465Y-62.055
X176.465Y-64.595
X176.465Y-67.135
X176.465Y-69.675
X176.465Y-72.215
X176.465Y-74.755
X176.465Y-77.295
X176.465Y-79.835
X178.5Y-34.56
X178.5Y-37.1
X178.5Y-39.64
X178.5Y-42.18
X178.5Y-44.72
X178.5Y-47.26
X178.5Y-49.8
M30
