%TF.GenerationSoftware,KiCad,Pcbnew,9.0.0*%
%TF.CreationDate,2025-05-06T13:44:15-06:00*%
%TF.ProjectId,2025_04_STM32F103_RobotBrain,32303235-5f30-4345-9f53-544d33324631,rev?*%
%TF.SameCoordinates,Original*%
%TF.FileFunction,Legend,Top*%
%TF.FilePolarity,Positive*%
%FSLAX46Y46*%
G04 Gerber Fmt 4.6, Leading zero omitted, Abs format (unit mm)*
G04 Created by KiCad (PCBNEW 9.0.0) date 2025-05-06 13:44:15*
%MOMM*%
%LPD*%
G01*
G04 APERTURE LIST*
%ADD10C,0.150000*%
%ADD11C,0.254000*%
%ADD12C,0.120000*%
%ADD13C,0.100000*%
%ADD14C,0.127000*%
%ADD15C,0.200000*%
G04 APERTURE END LIST*
D10*
X107504761Y-69988152D02*
X107504761Y-70654819D01*
X107076190Y-69988152D02*
X107076190Y-70511961D01*
X107076190Y-70511961D02*
X107123809Y-70607200D01*
X107123809Y-70607200D02*
X107219047Y-70654819D01*
X107219047Y-70654819D02*
X107361904Y-70654819D01*
X107361904Y-70654819D02*
X107457142Y-70607200D01*
X107457142Y-70607200D02*
X107504761Y-70559580D01*
X107980952Y-70654819D02*
X107980952Y-69654819D01*
X107980952Y-69654819D02*
X108361904Y-69654819D01*
X108361904Y-69654819D02*
X108457142Y-69702438D01*
X108457142Y-69702438D02*
X108504761Y-69750057D01*
X108504761Y-69750057D02*
X108552380Y-69845295D01*
X108552380Y-69845295D02*
X108552380Y-69988152D01*
X108552380Y-69988152D02*
X108504761Y-70083390D01*
X108504761Y-70083390D02*
X108457142Y-70131009D01*
X108457142Y-70131009D02*
X108361904Y-70178628D01*
X108361904Y-70178628D02*
X107980952Y-70178628D01*
X110076190Y-70131009D02*
X110219047Y-70178628D01*
X110219047Y-70178628D02*
X110266666Y-70226247D01*
X110266666Y-70226247D02*
X110314285Y-70321485D01*
X110314285Y-70321485D02*
X110314285Y-70464342D01*
X110314285Y-70464342D02*
X110266666Y-70559580D01*
X110266666Y-70559580D02*
X110219047Y-70607200D01*
X110219047Y-70607200D02*
X110123809Y-70654819D01*
X110123809Y-70654819D02*
X109742857Y-70654819D01*
X109742857Y-70654819D02*
X109742857Y-69654819D01*
X109742857Y-69654819D02*
X110076190Y-69654819D01*
X110076190Y-69654819D02*
X110171428Y-69702438D01*
X110171428Y-69702438D02*
X110219047Y-69750057D01*
X110219047Y-69750057D02*
X110266666Y-69845295D01*
X110266666Y-69845295D02*
X110266666Y-69940533D01*
X110266666Y-69940533D02*
X110219047Y-70035771D01*
X110219047Y-70035771D02*
X110171428Y-70083390D01*
X110171428Y-70083390D02*
X110076190Y-70131009D01*
X110076190Y-70131009D02*
X109742857Y-70131009D01*
X110933333Y-69654819D02*
X111123809Y-69654819D01*
X111123809Y-69654819D02*
X111219047Y-69702438D01*
X111219047Y-69702438D02*
X111314285Y-69797676D01*
X111314285Y-69797676D02*
X111361904Y-69988152D01*
X111361904Y-69988152D02*
X111361904Y-70321485D01*
X111361904Y-70321485D02*
X111314285Y-70511961D01*
X111314285Y-70511961D02*
X111219047Y-70607200D01*
X111219047Y-70607200D02*
X111123809Y-70654819D01*
X111123809Y-70654819D02*
X110933333Y-70654819D01*
X110933333Y-70654819D02*
X110838095Y-70607200D01*
X110838095Y-70607200D02*
X110742857Y-70511961D01*
X110742857Y-70511961D02*
X110695238Y-70321485D01*
X110695238Y-70321485D02*
X110695238Y-69988152D01*
X110695238Y-69988152D02*
X110742857Y-69797676D01*
X110742857Y-69797676D02*
X110838095Y-69702438D01*
X110838095Y-69702438D02*
X110933333Y-69654819D01*
X111980952Y-69654819D02*
X112171428Y-69654819D01*
X112171428Y-69654819D02*
X112266666Y-69702438D01*
X112266666Y-69702438D02*
X112361904Y-69797676D01*
X112361904Y-69797676D02*
X112409523Y-69988152D01*
X112409523Y-69988152D02*
X112409523Y-70321485D01*
X112409523Y-70321485D02*
X112361904Y-70511961D01*
X112361904Y-70511961D02*
X112266666Y-70607200D01*
X112266666Y-70607200D02*
X112171428Y-70654819D01*
X112171428Y-70654819D02*
X111980952Y-70654819D01*
X111980952Y-70654819D02*
X111885714Y-70607200D01*
X111885714Y-70607200D02*
X111790476Y-70511961D01*
X111790476Y-70511961D02*
X111742857Y-70321485D01*
X111742857Y-70321485D02*
X111742857Y-69988152D01*
X111742857Y-69988152D02*
X111790476Y-69797676D01*
X111790476Y-69797676D02*
X111885714Y-69702438D01*
X111885714Y-69702438D02*
X111980952Y-69654819D01*
X112695238Y-69654819D02*
X113266666Y-69654819D01*
X112980952Y-70654819D02*
X112980952Y-69654819D01*
X162585000Y-80945000D02*
X166585000Y-80945000D01*
X162585000Y-80945000D02*
X162585000Y-76945000D01*
X173165000Y-60945000D02*
X165165000Y-60945000D01*
X111104819Y-94830476D02*
X111104819Y-95306666D01*
X111104819Y-95306666D02*
X111581009Y-95354285D01*
X111581009Y-95354285D02*
X111533390Y-95306666D01*
X111533390Y-95306666D02*
X111485771Y-95211428D01*
X111485771Y-95211428D02*
X111485771Y-94973333D01*
X111485771Y-94973333D02*
X111533390Y-94878095D01*
X111533390Y-94878095D02*
X111581009Y-94830476D01*
X111581009Y-94830476D02*
X111676247Y-94782857D01*
X111676247Y-94782857D02*
X111914342Y-94782857D01*
X111914342Y-94782857D02*
X112009580Y-94830476D01*
X112009580Y-94830476D02*
X112057200Y-94878095D01*
X112057200Y-94878095D02*
X112104819Y-94973333D01*
X112104819Y-94973333D02*
X112104819Y-95211428D01*
X112104819Y-95211428D02*
X112057200Y-95306666D01*
X112057200Y-95306666D02*
X112009580Y-95354285D01*
X111104819Y-94497142D02*
X112104819Y-94163809D01*
X112104819Y-94163809D02*
X111104819Y-93830476D01*
X101840476Y-73304819D02*
X102507142Y-74304819D01*
X102507142Y-73304819D02*
X101840476Y-74304819D01*
X102840476Y-73400057D02*
X102888095Y-73352438D01*
X102888095Y-73352438D02*
X102983333Y-73304819D01*
X102983333Y-73304819D02*
X103221428Y-73304819D01*
X103221428Y-73304819D02*
X103316666Y-73352438D01*
X103316666Y-73352438D02*
X103364285Y-73400057D01*
X103364285Y-73400057D02*
X103411904Y-73495295D01*
X103411904Y-73495295D02*
X103411904Y-73590533D01*
X103411904Y-73590533D02*
X103364285Y-73733390D01*
X103364285Y-73733390D02*
X102792857Y-74304819D01*
X102792857Y-74304819D02*
X103411904Y-74304819D01*
X140081009Y-98631904D02*
X140081009Y-98298571D01*
X140604819Y-98155714D02*
X140604819Y-98631904D01*
X140604819Y-98631904D02*
X139604819Y-98631904D01*
X139604819Y-98631904D02*
X139604819Y-98155714D01*
X140509580Y-97155714D02*
X140557200Y-97203333D01*
X140557200Y-97203333D02*
X140604819Y-97346190D01*
X140604819Y-97346190D02*
X140604819Y-97441428D01*
X140604819Y-97441428D02*
X140557200Y-97584285D01*
X140557200Y-97584285D02*
X140461961Y-97679523D01*
X140461961Y-97679523D02*
X140366723Y-97727142D01*
X140366723Y-97727142D02*
X140176247Y-97774761D01*
X140176247Y-97774761D02*
X140033390Y-97774761D01*
X140033390Y-97774761D02*
X139842914Y-97727142D01*
X139842914Y-97727142D02*
X139747676Y-97679523D01*
X139747676Y-97679523D02*
X139652438Y-97584285D01*
X139652438Y-97584285D02*
X139604819Y-97441428D01*
X139604819Y-97441428D02*
X139604819Y-97346190D01*
X139604819Y-97346190D02*
X139652438Y-97203333D01*
X139652438Y-97203333D02*
X139700057Y-97155714D01*
X140604819Y-96727142D02*
X139604819Y-96727142D01*
X140081009Y-96727142D02*
X140081009Y-96155714D01*
X140604819Y-96155714D02*
X139604819Y-96155714D01*
X139604819Y-95489047D02*
X139604819Y-95298571D01*
X139604819Y-95298571D02*
X139652438Y-95203333D01*
X139652438Y-95203333D02*
X139747676Y-95108095D01*
X139747676Y-95108095D02*
X139938152Y-95060476D01*
X139938152Y-95060476D02*
X140271485Y-95060476D01*
X140271485Y-95060476D02*
X140461961Y-95108095D01*
X140461961Y-95108095D02*
X140557200Y-95203333D01*
X140557200Y-95203333D02*
X140604819Y-95298571D01*
X140604819Y-95298571D02*
X140604819Y-95489047D01*
X140604819Y-95489047D02*
X140557200Y-95584285D01*
X140557200Y-95584285D02*
X140461961Y-95679523D01*
X140461961Y-95679523D02*
X140271485Y-95727142D01*
X140271485Y-95727142D02*
X139938152Y-95727142D01*
X139938152Y-95727142D02*
X139747676Y-95679523D01*
X139747676Y-95679523D02*
X139652438Y-95584285D01*
X139652438Y-95584285D02*
X139604819Y-95489047D01*
X152009524Y-97741009D02*
X152342857Y-97741009D01*
X152485714Y-98264819D02*
X152009524Y-98264819D01*
X152009524Y-98264819D02*
X152009524Y-97264819D01*
X152009524Y-97264819D02*
X152485714Y-97264819D01*
X153438095Y-98264819D02*
X152866667Y-98264819D01*
X153152381Y-98264819D02*
X153152381Y-97264819D01*
X153152381Y-97264819D02*
X153057143Y-97407676D01*
X153057143Y-97407676D02*
X152961905Y-97502914D01*
X152961905Y-97502914D02*
X152866667Y-97550533D01*
X154200000Y-97741009D02*
X154342857Y-97788628D01*
X154342857Y-97788628D02*
X154390476Y-97836247D01*
X154390476Y-97836247D02*
X154438095Y-97931485D01*
X154438095Y-97931485D02*
X154438095Y-98074342D01*
X154438095Y-98074342D02*
X154390476Y-98169580D01*
X154390476Y-98169580D02*
X154342857Y-98217200D01*
X154342857Y-98217200D02*
X154247619Y-98264819D01*
X154247619Y-98264819D02*
X153866667Y-98264819D01*
X153866667Y-98264819D02*
X153866667Y-97264819D01*
X153866667Y-97264819D02*
X154200000Y-97264819D01*
X154200000Y-97264819D02*
X154295238Y-97312438D01*
X154295238Y-97312438D02*
X154342857Y-97360057D01*
X154342857Y-97360057D02*
X154390476Y-97455295D01*
X154390476Y-97455295D02*
X154390476Y-97550533D01*
X154390476Y-97550533D02*
X154342857Y-97645771D01*
X154342857Y-97645771D02*
X154295238Y-97693390D01*
X154295238Y-97693390D02*
X154200000Y-97741009D01*
X154200000Y-97741009D02*
X153866667Y-97741009D01*
X155149104Y-46008094D02*
X155149104Y-45531904D01*
X155434819Y-46103332D02*
X154434819Y-45769999D01*
X154434819Y-45769999D02*
X155434819Y-45436666D01*
X155434819Y-45103332D02*
X154434819Y-45103332D01*
X154434819Y-45103332D02*
X155434819Y-44531904D01*
X155434819Y-44531904D02*
X154434819Y-44531904D01*
X155434819Y-43531904D02*
X155434819Y-44103332D01*
X155434819Y-43817618D02*
X154434819Y-43817618D01*
X154434819Y-43817618D02*
X154577676Y-43912856D01*
X154577676Y-43912856D02*
X154672914Y-44008094D01*
X154672914Y-44008094D02*
X154720533Y-44103332D01*
X173396667Y-69234819D02*
X174063333Y-70234819D01*
X174063333Y-69234819D02*
X173396667Y-70234819D01*
X120722438Y-44441904D02*
X120674819Y-44537142D01*
X120674819Y-44537142D02*
X120674819Y-44679999D01*
X120674819Y-44679999D02*
X120722438Y-44822856D01*
X120722438Y-44822856D02*
X120817676Y-44918094D01*
X120817676Y-44918094D02*
X120912914Y-44965713D01*
X120912914Y-44965713D02*
X121103390Y-45013332D01*
X121103390Y-45013332D02*
X121246247Y-45013332D01*
X121246247Y-45013332D02*
X121436723Y-44965713D01*
X121436723Y-44965713D02*
X121531961Y-44918094D01*
X121531961Y-44918094D02*
X121627200Y-44822856D01*
X121627200Y-44822856D02*
X121674819Y-44679999D01*
X121674819Y-44679999D02*
X121674819Y-44584761D01*
X121674819Y-44584761D02*
X121627200Y-44441904D01*
X121627200Y-44441904D02*
X121579580Y-44394285D01*
X121579580Y-44394285D02*
X121246247Y-44394285D01*
X121246247Y-44394285D02*
X121246247Y-44584761D01*
X121674819Y-43965713D02*
X120674819Y-43965713D01*
X120674819Y-43965713D02*
X121674819Y-43394285D01*
X121674819Y-43394285D02*
X120674819Y-43394285D01*
X121674819Y-42918094D02*
X120674819Y-42918094D01*
X120674819Y-42918094D02*
X120674819Y-42679999D01*
X120674819Y-42679999D02*
X120722438Y-42537142D01*
X120722438Y-42537142D02*
X120817676Y-42441904D01*
X120817676Y-42441904D02*
X120912914Y-42394285D01*
X120912914Y-42394285D02*
X121103390Y-42346666D01*
X121103390Y-42346666D02*
X121246247Y-42346666D01*
X121246247Y-42346666D02*
X121436723Y-42394285D01*
X121436723Y-42394285D02*
X121531961Y-42441904D01*
X121531961Y-42441904D02*
X121627200Y-42537142D01*
X121627200Y-42537142D02*
X121674819Y-42679999D01*
X121674819Y-42679999D02*
X121674819Y-42918094D01*
X172888572Y-34964819D02*
X172888572Y-33964819D01*
X172888572Y-33964819D02*
X173221905Y-34679104D01*
X173221905Y-34679104D02*
X173555238Y-33964819D01*
X173555238Y-33964819D02*
X173555238Y-34964819D01*
X174221905Y-33964819D02*
X174412381Y-33964819D01*
X174412381Y-33964819D02*
X174507619Y-34012438D01*
X174507619Y-34012438D02*
X174602857Y-34107676D01*
X174602857Y-34107676D02*
X174650476Y-34298152D01*
X174650476Y-34298152D02*
X174650476Y-34631485D01*
X174650476Y-34631485D02*
X174602857Y-34821961D01*
X174602857Y-34821961D02*
X174507619Y-34917200D01*
X174507619Y-34917200D02*
X174412381Y-34964819D01*
X174412381Y-34964819D02*
X174221905Y-34964819D01*
X174221905Y-34964819D02*
X174126667Y-34917200D01*
X174126667Y-34917200D02*
X174031429Y-34821961D01*
X174031429Y-34821961D02*
X173983810Y-34631485D01*
X173983810Y-34631485D02*
X173983810Y-34298152D01*
X173983810Y-34298152D02*
X174031429Y-34107676D01*
X174031429Y-34107676D02*
X174126667Y-34012438D01*
X174126667Y-34012438D02*
X174221905Y-33964819D01*
X175031429Y-34917200D02*
X175174286Y-34964819D01*
X175174286Y-34964819D02*
X175412381Y-34964819D01*
X175412381Y-34964819D02*
X175507619Y-34917200D01*
X175507619Y-34917200D02*
X175555238Y-34869580D01*
X175555238Y-34869580D02*
X175602857Y-34774342D01*
X175602857Y-34774342D02*
X175602857Y-34679104D01*
X175602857Y-34679104D02*
X175555238Y-34583866D01*
X175555238Y-34583866D02*
X175507619Y-34536247D01*
X175507619Y-34536247D02*
X175412381Y-34488628D01*
X175412381Y-34488628D02*
X175221905Y-34441009D01*
X175221905Y-34441009D02*
X175126667Y-34393390D01*
X175126667Y-34393390D02*
X175079048Y-34345771D01*
X175079048Y-34345771D02*
X175031429Y-34250533D01*
X175031429Y-34250533D02*
X175031429Y-34155295D01*
X175031429Y-34155295D02*
X175079048Y-34060057D01*
X175079048Y-34060057D02*
X175126667Y-34012438D01*
X175126667Y-34012438D02*
X175221905Y-33964819D01*
X175221905Y-33964819D02*
X175460000Y-33964819D01*
X175460000Y-33964819D02*
X175602857Y-34012438D01*
X176031429Y-34964819D02*
X176031429Y-33964819D01*
X101981905Y-45694819D02*
X102600952Y-45694819D01*
X102600952Y-45694819D02*
X102267619Y-46075771D01*
X102267619Y-46075771D02*
X102410476Y-46075771D01*
X102410476Y-46075771D02*
X102505714Y-46123390D01*
X102505714Y-46123390D02*
X102553333Y-46171009D01*
X102553333Y-46171009D02*
X102600952Y-46266247D01*
X102600952Y-46266247D02*
X102600952Y-46504342D01*
X102600952Y-46504342D02*
X102553333Y-46599580D01*
X102553333Y-46599580D02*
X102505714Y-46647200D01*
X102505714Y-46647200D02*
X102410476Y-46694819D01*
X102410476Y-46694819D02*
X102124762Y-46694819D01*
X102124762Y-46694819D02*
X102029524Y-46647200D01*
X102029524Y-46647200D02*
X101981905Y-46599580D01*
X102886667Y-45694819D02*
X103220000Y-46694819D01*
X103220000Y-46694819D02*
X103553333Y-45694819D01*
X103791429Y-45694819D02*
X104410476Y-45694819D01*
X104410476Y-45694819D02*
X104077143Y-46075771D01*
X104077143Y-46075771D02*
X104220000Y-46075771D01*
X104220000Y-46075771D02*
X104315238Y-46123390D01*
X104315238Y-46123390D02*
X104362857Y-46171009D01*
X104362857Y-46171009D02*
X104410476Y-46266247D01*
X104410476Y-46266247D02*
X104410476Y-46504342D01*
X104410476Y-46504342D02*
X104362857Y-46599580D01*
X104362857Y-46599580D02*
X104315238Y-46647200D01*
X104315238Y-46647200D02*
X104220000Y-46694819D01*
X104220000Y-46694819D02*
X103934286Y-46694819D01*
X103934286Y-46694819D02*
X103839048Y-46647200D01*
X103839048Y-46647200D02*
X103791429Y-46599580D01*
X151830952Y-90081009D02*
X152164285Y-90081009D01*
X152307142Y-90604819D02*
X151830952Y-90604819D01*
X151830952Y-90604819D02*
X151830952Y-89604819D01*
X151830952Y-89604819D02*
X152307142Y-89604819D01*
X152688095Y-89700057D02*
X152735714Y-89652438D01*
X152735714Y-89652438D02*
X152830952Y-89604819D01*
X152830952Y-89604819D02*
X153069047Y-89604819D01*
X153069047Y-89604819D02*
X153164285Y-89652438D01*
X153164285Y-89652438D02*
X153211904Y-89700057D01*
X153211904Y-89700057D02*
X153259523Y-89795295D01*
X153259523Y-89795295D02*
X153259523Y-89890533D01*
X153259523Y-89890533D02*
X153211904Y-90033390D01*
X153211904Y-90033390D02*
X152640476Y-90604819D01*
X152640476Y-90604819D02*
X153259523Y-90604819D01*
X153640476Y-90319104D02*
X154116666Y-90319104D01*
X153545238Y-90604819D02*
X153878571Y-89604819D01*
X153878571Y-89604819D02*
X154211904Y-90604819D01*
X101918095Y-48274819D02*
X102489523Y-48274819D01*
X102203809Y-49274819D02*
X102203809Y-48274819D01*
X102727619Y-48274819D02*
X103394285Y-49274819D01*
X103394285Y-48274819D02*
X102727619Y-49274819D01*
X102448095Y-53532438D02*
X102352857Y-53484819D01*
X102352857Y-53484819D02*
X102210000Y-53484819D01*
X102210000Y-53484819D02*
X102067143Y-53532438D01*
X102067143Y-53532438D02*
X101971905Y-53627676D01*
X101971905Y-53627676D02*
X101924286Y-53722914D01*
X101924286Y-53722914D02*
X101876667Y-53913390D01*
X101876667Y-53913390D02*
X101876667Y-54056247D01*
X101876667Y-54056247D02*
X101924286Y-54246723D01*
X101924286Y-54246723D02*
X101971905Y-54341961D01*
X101971905Y-54341961D02*
X102067143Y-54437200D01*
X102067143Y-54437200D02*
X102210000Y-54484819D01*
X102210000Y-54484819D02*
X102305238Y-54484819D01*
X102305238Y-54484819D02*
X102448095Y-54437200D01*
X102448095Y-54437200D02*
X102495714Y-54389580D01*
X102495714Y-54389580D02*
X102495714Y-54056247D01*
X102495714Y-54056247D02*
X102305238Y-54056247D01*
X102924286Y-54484819D02*
X102924286Y-53484819D01*
X102924286Y-53484819D02*
X103495714Y-54484819D01*
X103495714Y-54484819D02*
X103495714Y-53484819D01*
X103971905Y-54484819D02*
X103971905Y-53484819D01*
X103971905Y-53484819D02*
X104210000Y-53484819D01*
X104210000Y-53484819D02*
X104352857Y-53532438D01*
X104352857Y-53532438D02*
X104448095Y-53627676D01*
X104448095Y-53627676D02*
X104495714Y-53722914D01*
X104495714Y-53722914D02*
X104543333Y-53913390D01*
X104543333Y-53913390D02*
X104543333Y-54056247D01*
X104543333Y-54056247D02*
X104495714Y-54246723D01*
X104495714Y-54246723D02*
X104448095Y-54341961D01*
X104448095Y-54341961D02*
X104352857Y-54437200D01*
X104352857Y-54437200D02*
X104210000Y-54484819D01*
X104210000Y-54484819D02*
X103971905Y-54484819D01*
X135296667Y-104514819D02*
X135296667Y-103514819D01*
X135296667Y-103991009D02*
X135868095Y-103991009D01*
X135868095Y-104514819D02*
X135868095Y-103514819D01*
X136915714Y-104419580D02*
X136868095Y-104467200D01*
X136868095Y-104467200D02*
X136725238Y-104514819D01*
X136725238Y-104514819D02*
X136630000Y-104514819D01*
X136630000Y-104514819D02*
X136487143Y-104467200D01*
X136487143Y-104467200D02*
X136391905Y-104371961D01*
X136391905Y-104371961D02*
X136344286Y-104276723D01*
X136344286Y-104276723D02*
X136296667Y-104086247D01*
X136296667Y-104086247D02*
X136296667Y-103943390D01*
X136296667Y-103943390D02*
X136344286Y-103752914D01*
X136344286Y-103752914D02*
X136391905Y-103657676D01*
X136391905Y-103657676D02*
X136487143Y-103562438D01*
X136487143Y-103562438D02*
X136630000Y-103514819D01*
X136630000Y-103514819D02*
X136725238Y-103514819D01*
X136725238Y-103514819D02*
X136868095Y-103562438D01*
X136868095Y-103562438D02*
X136915714Y-103610057D01*
X137344286Y-104133866D02*
X138106191Y-104133866D01*
X138534762Y-104467200D02*
X138677619Y-104514819D01*
X138677619Y-104514819D02*
X138915714Y-104514819D01*
X138915714Y-104514819D02*
X139010952Y-104467200D01*
X139010952Y-104467200D02*
X139058571Y-104419580D01*
X139058571Y-104419580D02*
X139106190Y-104324342D01*
X139106190Y-104324342D02*
X139106190Y-104229104D01*
X139106190Y-104229104D02*
X139058571Y-104133866D01*
X139058571Y-104133866D02*
X139010952Y-104086247D01*
X139010952Y-104086247D02*
X138915714Y-104038628D01*
X138915714Y-104038628D02*
X138725238Y-103991009D01*
X138725238Y-103991009D02*
X138630000Y-103943390D01*
X138630000Y-103943390D02*
X138582381Y-103895771D01*
X138582381Y-103895771D02*
X138534762Y-103800533D01*
X138534762Y-103800533D02*
X138534762Y-103705295D01*
X138534762Y-103705295D02*
X138582381Y-103610057D01*
X138582381Y-103610057D02*
X138630000Y-103562438D01*
X138630000Y-103562438D02*
X138725238Y-103514819D01*
X138725238Y-103514819D02*
X138963333Y-103514819D01*
X138963333Y-103514819D02*
X139106190Y-103562438D01*
X140106190Y-104514819D02*
X139772857Y-104038628D01*
X139534762Y-104514819D02*
X139534762Y-103514819D01*
X139534762Y-103514819D02*
X139915714Y-103514819D01*
X139915714Y-103514819D02*
X140010952Y-103562438D01*
X140010952Y-103562438D02*
X140058571Y-103610057D01*
X140058571Y-103610057D02*
X140106190Y-103705295D01*
X140106190Y-103705295D02*
X140106190Y-103848152D01*
X140106190Y-103848152D02*
X140058571Y-103943390D01*
X140058571Y-103943390D02*
X140010952Y-103991009D01*
X140010952Y-103991009D02*
X139915714Y-104038628D01*
X139915714Y-104038628D02*
X139534762Y-104038628D01*
X140725238Y-103514819D02*
X140820476Y-103514819D01*
X140820476Y-103514819D02*
X140915714Y-103562438D01*
X140915714Y-103562438D02*
X140963333Y-103610057D01*
X140963333Y-103610057D02*
X141010952Y-103705295D01*
X141010952Y-103705295D02*
X141058571Y-103895771D01*
X141058571Y-103895771D02*
X141058571Y-104133866D01*
X141058571Y-104133866D02*
X141010952Y-104324342D01*
X141010952Y-104324342D02*
X140963333Y-104419580D01*
X140963333Y-104419580D02*
X140915714Y-104467200D01*
X140915714Y-104467200D02*
X140820476Y-104514819D01*
X140820476Y-104514819D02*
X140725238Y-104514819D01*
X140725238Y-104514819D02*
X140630000Y-104467200D01*
X140630000Y-104467200D02*
X140582381Y-104419580D01*
X140582381Y-104419580D02*
X140534762Y-104324342D01*
X140534762Y-104324342D02*
X140487143Y-104133866D01*
X140487143Y-104133866D02*
X140487143Y-103895771D01*
X140487143Y-103895771D02*
X140534762Y-103705295D01*
X140534762Y-103705295D02*
X140582381Y-103610057D01*
X140582381Y-103610057D02*
X140630000Y-103562438D01*
X140630000Y-103562438D02*
X140725238Y-103514819D01*
X141915714Y-103848152D02*
X141915714Y-104514819D01*
X141677619Y-103467200D02*
X141439524Y-104181485D01*
X141439524Y-104181485D02*
X142058571Y-104181485D01*
X115824819Y-44888094D02*
X115824819Y-44269047D01*
X115824819Y-44269047D02*
X116205771Y-44602380D01*
X116205771Y-44602380D02*
X116205771Y-44459523D01*
X116205771Y-44459523D02*
X116253390Y-44364285D01*
X116253390Y-44364285D02*
X116301009Y-44316666D01*
X116301009Y-44316666D02*
X116396247Y-44269047D01*
X116396247Y-44269047D02*
X116634342Y-44269047D01*
X116634342Y-44269047D02*
X116729580Y-44316666D01*
X116729580Y-44316666D02*
X116777200Y-44364285D01*
X116777200Y-44364285D02*
X116824819Y-44459523D01*
X116824819Y-44459523D02*
X116824819Y-44745237D01*
X116824819Y-44745237D02*
X116777200Y-44840475D01*
X116777200Y-44840475D02*
X116729580Y-44888094D01*
X115824819Y-43983332D02*
X116824819Y-43649999D01*
X116824819Y-43649999D02*
X115824819Y-43316666D01*
X115824819Y-43078570D02*
X115824819Y-42459523D01*
X115824819Y-42459523D02*
X116205771Y-42792856D01*
X116205771Y-42792856D02*
X116205771Y-42649999D01*
X116205771Y-42649999D02*
X116253390Y-42554761D01*
X116253390Y-42554761D02*
X116301009Y-42507142D01*
X116301009Y-42507142D02*
X116396247Y-42459523D01*
X116396247Y-42459523D02*
X116634342Y-42459523D01*
X116634342Y-42459523D02*
X116729580Y-42507142D01*
X116729580Y-42507142D02*
X116777200Y-42554761D01*
X116777200Y-42554761D02*
X116824819Y-42649999D01*
X116824819Y-42649999D02*
X116824819Y-42935713D01*
X116824819Y-42935713D02*
X116777200Y-43030951D01*
X116777200Y-43030951D02*
X116729580Y-43078570D01*
X151980952Y-95181009D02*
X152314285Y-95181009D01*
X152457142Y-95704819D02*
X151980952Y-95704819D01*
X151980952Y-95704819D02*
X151980952Y-94704819D01*
X151980952Y-94704819D02*
X152457142Y-94704819D01*
X153409523Y-95704819D02*
X152838095Y-95704819D01*
X153123809Y-95704819D02*
X153123809Y-94704819D01*
X153123809Y-94704819D02*
X153028571Y-94847676D01*
X153028571Y-94847676D02*
X152933333Y-94942914D01*
X152933333Y-94942914D02*
X152838095Y-94990533D01*
X153790476Y-95419104D02*
X154266666Y-95419104D01*
X153695238Y-95704819D02*
X154028571Y-94704819D01*
X154028571Y-94704819D02*
X154361904Y-95704819D01*
X175296667Y-44194819D02*
X175963333Y-45194819D01*
X175963333Y-44194819D02*
X175296667Y-45194819D01*
X102583333Y-51864819D02*
X102250000Y-51388628D01*
X102011905Y-51864819D02*
X102011905Y-50864819D01*
X102011905Y-50864819D02*
X102392857Y-50864819D01*
X102392857Y-50864819D02*
X102488095Y-50912438D01*
X102488095Y-50912438D02*
X102535714Y-50960057D01*
X102535714Y-50960057D02*
X102583333Y-51055295D01*
X102583333Y-51055295D02*
X102583333Y-51198152D01*
X102583333Y-51198152D02*
X102535714Y-51293390D01*
X102535714Y-51293390D02*
X102488095Y-51341009D01*
X102488095Y-51341009D02*
X102392857Y-51388628D01*
X102392857Y-51388628D02*
X102011905Y-51388628D01*
X102916667Y-50864819D02*
X103583333Y-51864819D01*
X103583333Y-50864819D02*
X102916667Y-51864819D01*
X101730476Y-68354819D02*
X102397142Y-69354819D01*
X102397142Y-68354819D02*
X101730476Y-69354819D01*
X103206666Y-68688152D02*
X103206666Y-69354819D01*
X102968571Y-68307200D02*
X102730476Y-69021485D01*
X102730476Y-69021485D02*
X103349523Y-69021485D01*
X171909524Y-75107200D02*
X172052381Y-75154819D01*
X172052381Y-75154819D02*
X172290476Y-75154819D01*
X172290476Y-75154819D02*
X172385714Y-75107200D01*
X172385714Y-75107200D02*
X172433333Y-75059580D01*
X172433333Y-75059580D02*
X172480952Y-74964342D01*
X172480952Y-74964342D02*
X172480952Y-74869104D01*
X172480952Y-74869104D02*
X172433333Y-74773866D01*
X172433333Y-74773866D02*
X172385714Y-74726247D01*
X172385714Y-74726247D02*
X172290476Y-74678628D01*
X172290476Y-74678628D02*
X172100000Y-74631009D01*
X172100000Y-74631009D02*
X172004762Y-74583390D01*
X172004762Y-74583390D02*
X171957143Y-74535771D01*
X171957143Y-74535771D02*
X171909524Y-74440533D01*
X171909524Y-74440533D02*
X171909524Y-74345295D01*
X171909524Y-74345295D02*
X171957143Y-74250057D01*
X171957143Y-74250057D02*
X172004762Y-74202438D01*
X172004762Y-74202438D02*
X172100000Y-74154819D01*
X172100000Y-74154819D02*
X172338095Y-74154819D01*
X172338095Y-74154819D02*
X172480952Y-74202438D01*
X173480952Y-75059580D02*
X173433333Y-75107200D01*
X173433333Y-75107200D02*
X173290476Y-75154819D01*
X173290476Y-75154819D02*
X173195238Y-75154819D01*
X173195238Y-75154819D02*
X173052381Y-75107200D01*
X173052381Y-75107200D02*
X172957143Y-75011961D01*
X172957143Y-75011961D02*
X172909524Y-74916723D01*
X172909524Y-74916723D02*
X172861905Y-74726247D01*
X172861905Y-74726247D02*
X172861905Y-74583390D01*
X172861905Y-74583390D02*
X172909524Y-74392914D01*
X172909524Y-74392914D02*
X172957143Y-74297676D01*
X172957143Y-74297676D02*
X173052381Y-74202438D01*
X173052381Y-74202438D02*
X173195238Y-74154819D01*
X173195238Y-74154819D02*
X173290476Y-74154819D01*
X173290476Y-74154819D02*
X173433333Y-74202438D01*
X173433333Y-74202438D02*
X173480952Y-74250057D01*
X174385714Y-75154819D02*
X173909524Y-75154819D01*
X173909524Y-75154819D02*
X173909524Y-74154819D01*
X171845714Y-72587200D02*
X171988571Y-72634819D01*
X171988571Y-72634819D02*
X172226666Y-72634819D01*
X172226666Y-72634819D02*
X172321904Y-72587200D01*
X172321904Y-72587200D02*
X172369523Y-72539580D01*
X172369523Y-72539580D02*
X172417142Y-72444342D01*
X172417142Y-72444342D02*
X172417142Y-72349104D01*
X172417142Y-72349104D02*
X172369523Y-72253866D01*
X172369523Y-72253866D02*
X172321904Y-72206247D01*
X172321904Y-72206247D02*
X172226666Y-72158628D01*
X172226666Y-72158628D02*
X172036190Y-72111009D01*
X172036190Y-72111009D02*
X171940952Y-72063390D01*
X171940952Y-72063390D02*
X171893333Y-72015771D01*
X171893333Y-72015771D02*
X171845714Y-71920533D01*
X171845714Y-71920533D02*
X171845714Y-71825295D01*
X171845714Y-71825295D02*
X171893333Y-71730057D01*
X171893333Y-71730057D02*
X171940952Y-71682438D01*
X171940952Y-71682438D02*
X172036190Y-71634819D01*
X172036190Y-71634819D02*
X172274285Y-71634819D01*
X172274285Y-71634819D02*
X172417142Y-71682438D01*
X172845714Y-72634819D02*
X172845714Y-71634819D01*
X172845714Y-71634819D02*
X173083809Y-71634819D01*
X173083809Y-71634819D02*
X173226666Y-71682438D01*
X173226666Y-71682438D02*
X173321904Y-71777676D01*
X173321904Y-71777676D02*
X173369523Y-71872914D01*
X173369523Y-71872914D02*
X173417142Y-72063390D01*
X173417142Y-72063390D02*
X173417142Y-72206247D01*
X173417142Y-72206247D02*
X173369523Y-72396723D01*
X173369523Y-72396723D02*
X173321904Y-72491961D01*
X173321904Y-72491961D02*
X173226666Y-72587200D01*
X173226666Y-72587200D02*
X173083809Y-72634819D01*
X173083809Y-72634819D02*
X172845714Y-72634819D01*
X173798095Y-72349104D02*
X174274285Y-72349104D01*
X173702857Y-72634819D02*
X174036190Y-71634819D01*
X174036190Y-71634819D02*
X174369523Y-72634819D01*
X121190476Y-104554819D02*
X121190476Y-103554819D01*
X121190476Y-103554819D02*
X121571428Y-103554819D01*
X121571428Y-103554819D02*
X121666666Y-103602438D01*
X121666666Y-103602438D02*
X121714285Y-103650057D01*
X121714285Y-103650057D02*
X121761904Y-103745295D01*
X121761904Y-103745295D02*
X121761904Y-103888152D01*
X121761904Y-103888152D02*
X121714285Y-103983390D01*
X121714285Y-103983390D02*
X121666666Y-104031009D01*
X121666666Y-104031009D02*
X121571428Y-104078628D01*
X121571428Y-104078628D02*
X121190476Y-104078628D01*
X122380952Y-103554819D02*
X122571428Y-103554819D01*
X122571428Y-103554819D02*
X122666666Y-103602438D01*
X122666666Y-103602438D02*
X122761904Y-103697676D01*
X122761904Y-103697676D02*
X122809523Y-103888152D01*
X122809523Y-103888152D02*
X122809523Y-104221485D01*
X122809523Y-104221485D02*
X122761904Y-104411961D01*
X122761904Y-104411961D02*
X122666666Y-104507200D01*
X122666666Y-104507200D02*
X122571428Y-104554819D01*
X122571428Y-104554819D02*
X122380952Y-104554819D01*
X122380952Y-104554819D02*
X122285714Y-104507200D01*
X122285714Y-104507200D02*
X122190476Y-104411961D01*
X122190476Y-104411961D02*
X122142857Y-104221485D01*
X122142857Y-104221485D02*
X122142857Y-103888152D01*
X122142857Y-103888152D02*
X122190476Y-103697676D01*
X122190476Y-103697676D02*
X122285714Y-103602438D01*
X122285714Y-103602438D02*
X122380952Y-103554819D01*
X123142857Y-103554819D02*
X123380952Y-104554819D01*
X123380952Y-104554819D02*
X123571428Y-103840533D01*
X123571428Y-103840533D02*
X123761904Y-104554819D01*
X123761904Y-104554819D02*
X124000000Y-103554819D01*
X124380952Y-104031009D02*
X124714285Y-104031009D01*
X124857142Y-104554819D02*
X124380952Y-104554819D01*
X124380952Y-104554819D02*
X124380952Y-103554819D01*
X124380952Y-103554819D02*
X124857142Y-103554819D01*
X125857142Y-104554819D02*
X125523809Y-104078628D01*
X125285714Y-104554819D02*
X125285714Y-103554819D01*
X125285714Y-103554819D02*
X125666666Y-103554819D01*
X125666666Y-103554819D02*
X125761904Y-103602438D01*
X125761904Y-103602438D02*
X125809523Y-103650057D01*
X125809523Y-103650057D02*
X125857142Y-103745295D01*
X125857142Y-103745295D02*
X125857142Y-103888152D01*
X125857142Y-103888152D02*
X125809523Y-103983390D01*
X125809523Y-103983390D02*
X125761904Y-104031009D01*
X125761904Y-104031009D02*
X125666666Y-104078628D01*
X125666666Y-104078628D02*
X125285714Y-104078628D01*
X124342438Y-95121904D02*
X124294819Y-95217142D01*
X124294819Y-95217142D02*
X124294819Y-95359999D01*
X124294819Y-95359999D02*
X124342438Y-95502856D01*
X124342438Y-95502856D02*
X124437676Y-95598094D01*
X124437676Y-95598094D02*
X124532914Y-95645713D01*
X124532914Y-95645713D02*
X124723390Y-95693332D01*
X124723390Y-95693332D02*
X124866247Y-95693332D01*
X124866247Y-95693332D02*
X125056723Y-95645713D01*
X125056723Y-95645713D02*
X125151961Y-95598094D01*
X125151961Y-95598094D02*
X125247200Y-95502856D01*
X125247200Y-95502856D02*
X125294819Y-95359999D01*
X125294819Y-95359999D02*
X125294819Y-95264761D01*
X125294819Y-95264761D02*
X125247200Y-95121904D01*
X125247200Y-95121904D02*
X125199580Y-95074285D01*
X125199580Y-95074285D02*
X124866247Y-95074285D01*
X124866247Y-95074285D02*
X124866247Y-95264761D01*
X125294819Y-94645713D02*
X124294819Y-94645713D01*
X124294819Y-94645713D02*
X125294819Y-94074285D01*
X125294819Y-94074285D02*
X124294819Y-94074285D01*
X125294819Y-93598094D02*
X124294819Y-93598094D01*
X124294819Y-93598094D02*
X124294819Y-93359999D01*
X124294819Y-93359999D02*
X124342438Y-93217142D01*
X124342438Y-93217142D02*
X124437676Y-93121904D01*
X124437676Y-93121904D02*
X124532914Y-93074285D01*
X124532914Y-93074285D02*
X124723390Y-93026666D01*
X124723390Y-93026666D02*
X124866247Y-93026666D01*
X124866247Y-93026666D02*
X125056723Y-93074285D01*
X125056723Y-93074285D02*
X125151961Y-93121904D01*
X125151961Y-93121904D02*
X125247200Y-93217142D01*
X125247200Y-93217142D02*
X125294819Y-93359999D01*
X125294819Y-93359999D02*
X125294819Y-93598094D01*
X173621905Y-49344819D02*
X174240952Y-49344819D01*
X174240952Y-49344819D02*
X173907619Y-49725771D01*
X173907619Y-49725771D02*
X174050476Y-49725771D01*
X174050476Y-49725771D02*
X174145714Y-49773390D01*
X174145714Y-49773390D02*
X174193333Y-49821009D01*
X174193333Y-49821009D02*
X174240952Y-49916247D01*
X174240952Y-49916247D02*
X174240952Y-50154342D01*
X174240952Y-50154342D02*
X174193333Y-50249580D01*
X174193333Y-50249580D02*
X174145714Y-50297200D01*
X174145714Y-50297200D02*
X174050476Y-50344819D01*
X174050476Y-50344819D02*
X173764762Y-50344819D01*
X173764762Y-50344819D02*
X173669524Y-50297200D01*
X173669524Y-50297200D02*
X173621905Y-50249580D01*
X174526667Y-49344819D02*
X174860000Y-50344819D01*
X174860000Y-50344819D02*
X175193333Y-49344819D01*
X175431429Y-49344819D02*
X176050476Y-49344819D01*
X176050476Y-49344819D02*
X175717143Y-49725771D01*
X175717143Y-49725771D02*
X175860000Y-49725771D01*
X175860000Y-49725771D02*
X175955238Y-49773390D01*
X175955238Y-49773390D02*
X176002857Y-49821009D01*
X176002857Y-49821009D02*
X176050476Y-49916247D01*
X176050476Y-49916247D02*
X176050476Y-50154342D01*
X176050476Y-50154342D02*
X176002857Y-50249580D01*
X176002857Y-50249580D02*
X175955238Y-50297200D01*
X175955238Y-50297200D02*
X175860000Y-50344819D01*
X175860000Y-50344819D02*
X175574286Y-50344819D01*
X175574286Y-50344819D02*
X175479048Y-50297200D01*
X175479048Y-50297200D02*
X175431429Y-50249580D01*
X113792438Y-94861904D02*
X113744819Y-94957142D01*
X113744819Y-94957142D02*
X113744819Y-95099999D01*
X113744819Y-95099999D02*
X113792438Y-95242856D01*
X113792438Y-95242856D02*
X113887676Y-95338094D01*
X113887676Y-95338094D02*
X113982914Y-95385713D01*
X113982914Y-95385713D02*
X114173390Y-95433332D01*
X114173390Y-95433332D02*
X114316247Y-95433332D01*
X114316247Y-95433332D02*
X114506723Y-95385713D01*
X114506723Y-95385713D02*
X114601961Y-95338094D01*
X114601961Y-95338094D02*
X114697200Y-95242856D01*
X114697200Y-95242856D02*
X114744819Y-95099999D01*
X114744819Y-95099999D02*
X114744819Y-95004761D01*
X114744819Y-95004761D02*
X114697200Y-94861904D01*
X114697200Y-94861904D02*
X114649580Y-94814285D01*
X114649580Y-94814285D02*
X114316247Y-94814285D01*
X114316247Y-94814285D02*
X114316247Y-95004761D01*
X114744819Y-94385713D02*
X113744819Y-94385713D01*
X113744819Y-94385713D02*
X114744819Y-93814285D01*
X114744819Y-93814285D02*
X113744819Y-93814285D01*
X114744819Y-93338094D02*
X113744819Y-93338094D01*
X113744819Y-93338094D02*
X113744819Y-93099999D01*
X113744819Y-93099999D02*
X113792438Y-92957142D01*
X113792438Y-92957142D02*
X113887676Y-92861904D01*
X113887676Y-92861904D02*
X113982914Y-92814285D01*
X113982914Y-92814285D02*
X114173390Y-92766666D01*
X114173390Y-92766666D02*
X114316247Y-92766666D01*
X114316247Y-92766666D02*
X114506723Y-92814285D01*
X114506723Y-92814285D02*
X114601961Y-92861904D01*
X114601961Y-92861904D02*
X114697200Y-92957142D01*
X114697200Y-92957142D02*
X114744819Y-93099999D01*
X114744819Y-93099999D02*
X114744819Y-93338094D01*
X101901905Y-78454819D02*
X102520952Y-78454819D01*
X102520952Y-78454819D02*
X102187619Y-78835771D01*
X102187619Y-78835771D02*
X102330476Y-78835771D01*
X102330476Y-78835771D02*
X102425714Y-78883390D01*
X102425714Y-78883390D02*
X102473333Y-78931009D01*
X102473333Y-78931009D02*
X102520952Y-79026247D01*
X102520952Y-79026247D02*
X102520952Y-79264342D01*
X102520952Y-79264342D02*
X102473333Y-79359580D01*
X102473333Y-79359580D02*
X102425714Y-79407200D01*
X102425714Y-79407200D02*
X102330476Y-79454819D01*
X102330476Y-79454819D02*
X102044762Y-79454819D01*
X102044762Y-79454819D02*
X101949524Y-79407200D01*
X101949524Y-79407200D02*
X101901905Y-79359580D01*
X102806667Y-78454819D02*
X103140000Y-79454819D01*
X103140000Y-79454819D02*
X103473333Y-78454819D01*
X103711429Y-78454819D02*
X104330476Y-78454819D01*
X104330476Y-78454819D02*
X103997143Y-78835771D01*
X103997143Y-78835771D02*
X104140000Y-78835771D01*
X104140000Y-78835771D02*
X104235238Y-78883390D01*
X104235238Y-78883390D02*
X104282857Y-78931009D01*
X104282857Y-78931009D02*
X104330476Y-79026247D01*
X104330476Y-79026247D02*
X104330476Y-79264342D01*
X104330476Y-79264342D02*
X104282857Y-79359580D01*
X104282857Y-79359580D02*
X104235238Y-79407200D01*
X104235238Y-79407200D02*
X104140000Y-79454819D01*
X104140000Y-79454819D02*
X103854286Y-79454819D01*
X103854286Y-79454819D02*
X103759048Y-79407200D01*
X103759048Y-79407200D02*
X103711429Y-79359580D01*
X165354819Y-79348220D02*
X164354819Y-79348220D01*
X164354819Y-79348220D02*
X165069104Y-79014887D01*
X165069104Y-79014887D02*
X164354819Y-78681554D01*
X164354819Y-78681554D02*
X165354819Y-78681554D01*
X165354819Y-78205363D02*
X164354819Y-78205363D01*
X164354819Y-78205363D02*
X164354819Y-77824411D01*
X164354819Y-77824411D02*
X164402438Y-77729173D01*
X164402438Y-77729173D02*
X164450057Y-77681554D01*
X164450057Y-77681554D02*
X164545295Y-77633935D01*
X164545295Y-77633935D02*
X164688152Y-77633935D01*
X164688152Y-77633935D02*
X164783390Y-77681554D01*
X164783390Y-77681554D02*
X164831009Y-77729173D01*
X164831009Y-77729173D02*
X164878628Y-77824411D01*
X164878628Y-77824411D02*
X164878628Y-78205363D01*
X164354819Y-77205363D02*
X165164342Y-77205363D01*
X165164342Y-77205363D02*
X165259580Y-77157744D01*
X165259580Y-77157744D02*
X165307200Y-77110125D01*
X165307200Y-77110125D02*
X165354819Y-77014887D01*
X165354819Y-77014887D02*
X165354819Y-76824411D01*
X165354819Y-76824411D02*
X165307200Y-76729173D01*
X165307200Y-76729173D02*
X165259580Y-76681554D01*
X165259580Y-76681554D02*
X165164342Y-76633935D01*
X165164342Y-76633935D02*
X164354819Y-76633935D01*
X164354819Y-74967268D02*
X164354819Y-75157744D01*
X164354819Y-75157744D02*
X164402438Y-75252982D01*
X164402438Y-75252982D02*
X164450057Y-75300601D01*
X164450057Y-75300601D02*
X164592914Y-75395839D01*
X164592914Y-75395839D02*
X164783390Y-75443458D01*
X164783390Y-75443458D02*
X165164342Y-75443458D01*
X165164342Y-75443458D02*
X165259580Y-75395839D01*
X165259580Y-75395839D02*
X165307200Y-75348220D01*
X165307200Y-75348220D02*
X165354819Y-75252982D01*
X165354819Y-75252982D02*
X165354819Y-75062506D01*
X165354819Y-75062506D02*
X165307200Y-74967268D01*
X165307200Y-74967268D02*
X165259580Y-74919649D01*
X165259580Y-74919649D02*
X165164342Y-74872030D01*
X165164342Y-74872030D02*
X164926247Y-74872030D01*
X164926247Y-74872030D02*
X164831009Y-74919649D01*
X164831009Y-74919649D02*
X164783390Y-74967268D01*
X164783390Y-74967268D02*
X164735771Y-75062506D01*
X164735771Y-75062506D02*
X164735771Y-75252982D01*
X164735771Y-75252982D02*
X164783390Y-75348220D01*
X164783390Y-75348220D02*
X164831009Y-75395839D01*
X164831009Y-75395839D02*
X164926247Y-75443458D01*
X164354819Y-74252982D02*
X164354819Y-74157744D01*
X164354819Y-74157744D02*
X164402438Y-74062506D01*
X164402438Y-74062506D02*
X164450057Y-74014887D01*
X164450057Y-74014887D02*
X164545295Y-73967268D01*
X164545295Y-73967268D02*
X164735771Y-73919649D01*
X164735771Y-73919649D02*
X164973866Y-73919649D01*
X164973866Y-73919649D02*
X165164342Y-73967268D01*
X165164342Y-73967268D02*
X165259580Y-74014887D01*
X165259580Y-74014887D02*
X165307200Y-74062506D01*
X165307200Y-74062506D02*
X165354819Y-74157744D01*
X165354819Y-74157744D02*
X165354819Y-74252982D01*
X165354819Y-74252982D02*
X165307200Y-74348220D01*
X165307200Y-74348220D02*
X165259580Y-74395839D01*
X165259580Y-74395839D02*
X165164342Y-74443458D01*
X165164342Y-74443458D02*
X164973866Y-74491077D01*
X164973866Y-74491077D02*
X164735771Y-74491077D01*
X164735771Y-74491077D02*
X164545295Y-74443458D01*
X164545295Y-74443458D02*
X164450057Y-74395839D01*
X164450057Y-74395839D02*
X164402438Y-74348220D01*
X164402438Y-74348220D02*
X164354819Y-74252982D01*
X164354819Y-73014887D02*
X164354819Y-73491077D01*
X164354819Y-73491077D02*
X164831009Y-73538696D01*
X164831009Y-73538696D02*
X164783390Y-73491077D01*
X164783390Y-73491077D02*
X164735771Y-73395839D01*
X164735771Y-73395839D02*
X164735771Y-73157744D01*
X164735771Y-73157744D02*
X164783390Y-73062506D01*
X164783390Y-73062506D02*
X164831009Y-73014887D01*
X164831009Y-73014887D02*
X164926247Y-72967268D01*
X164926247Y-72967268D02*
X165164342Y-72967268D01*
X165164342Y-72967268D02*
X165259580Y-73014887D01*
X165259580Y-73014887D02*
X165307200Y-73062506D01*
X165307200Y-73062506D02*
X165354819Y-73157744D01*
X165354819Y-73157744D02*
X165354819Y-73395839D01*
X165354819Y-73395839D02*
X165307200Y-73491077D01*
X165307200Y-73491077D02*
X165259580Y-73538696D01*
X164354819Y-72348220D02*
X164354819Y-72252982D01*
X164354819Y-72252982D02*
X164402438Y-72157744D01*
X164402438Y-72157744D02*
X164450057Y-72110125D01*
X164450057Y-72110125D02*
X164545295Y-72062506D01*
X164545295Y-72062506D02*
X164735771Y-72014887D01*
X164735771Y-72014887D02*
X164973866Y-72014887D01*
X164973866Y-72014887D02*
X165164342Y-72062506D01*
X165164342Y-72062506D02*
X165259580Y-72110125D01*
X165259580Y-72110125D02*
X165307200Y-72157744D01*
X165307200Y-72157744D02*
X165354819Y-72252982D01*
X165354819Y-72252982D02*
X165354819Y-72348220D01*
X165354819Y-72348220D02*
X165307200Y-72443458D01*
X165307200Y-72443458D02*
X165259580Y-72491077D01*
X165259580Y-72491077D02*
X165164342Y-72538696D01*
X165164342Y-72538696D02*
X164973866Y-72586315D01*
X164973866Y-72586315D02*
X164735771Y-72586315D01*
X164735771Y-72586315D02*
X164545295Y-72538696D01*
X164545295Y-72538696D02*
X164450057Y-72491077D01*
X164450057Y-72491077D02*
X164402438Y-72443458D01*
X164402438Y-72443458D02*
X164354819Y-72348220D01*
X151961905Y-100469104D02*
X152438095Y-100469104D01*
X151866667Y-100754819D02*
X152200000Y-99754819D01*
X152200000Y-99754819D02*
X152533333Y-100754819D01*
X152866667Y-100754819D02*
X152866667Y-99754819D01*
X152866667Y-99754819D02*
X153104762Y-99754819D01*
X153104762Y-99754819D02*
X153247619Y-99802438D01*
X153247619Y-99802438D02*
X153342857Y-99897676D01*
X153342857Y-99897676D02*
X153390476Y-99992914D01*
X153390476Y-99992914D02*
X153438095Y-100183390D01*
X153438095Y-100183390D02*
X153438095Y-100326247D01*
X153438095Y-100326247D02*
X153390476Y-100516723D01*
X153390476Y-100516723D02*
X153342857Y-100611961D01*
X153342857Y-100611961D02*
X153247619Y-100707200D01*
X153247619Y-100707200D02*
X153104762Y-100754819D01*
X153104762Y-100754819D02*
X152866667Y-100754819D01*
X154438095Y-100659580D02*
X154390476Y-100707200D01*
X154390476Y-100707200D02*
X154247619Y-100754819D01*
X154247619Y-100754819D02*
X154152381Y-100754819D01*
X154152381Y-100754819D02*
X154009524Y-100707200D01*
X154009524Y-100707200D02*
X153914286Y-100611961D01*
X153914286Y-100611961D02*
X153866667Y-100516723D01*
X153866667Y-100516723D02*
X153819048Y-100326247D01*
X153819048Y-100326247D02*
X153819048Y-100183390D01*
X153819048Y-100183390D02*
X153866667Y-99992914D01*
X153866667Y-99992914D02*
X153914286Y-99897676D01*
X153914286Y-99897676D02*
X154009524Y-99802438D01*
X154009524Y-99802438D02*
X154152381Y-99754819D01*
X154152381Y-99754819D02*
X154247619Y-99754819D01*
X154247619Y-99754819D02*
X154390476Y-99802438D01*
X154390476Y-99802438D02*
X154438095Y-99850057D01*
X129033333Y-83683180D02*
X129033333Y-84349847D01*
X128604762Y-83683180D02*
X128604762Y-84206989D01*
X128604762Y-84206989D02*
X128652381Y-84302228D01*
X128652381Y-84302228D02*
X128747619Y-84349847D01*
X128747619Y-84349847D02*
X128890476Y-84349847D01*
X128890476Y-84349847D02*
X128985714Y-84302228D01*
X128985714Y-84302228D02*
X129033333Y-84254608D01*
X129509524Y-84349847D02*
X129509524Y-83349847D01*
X129509524Y-83349847D02*
X129890476Y-83349847D01*
X129890476Y-83349847D02*
X129985714Y-83397466D01*
X129985714Y-83397466D02*
X130033333Y-83445085D01*
X130033333Y-83445085D02*
X130080952Y-83540323D01*
X130080952Y-83540323D02*
X130080952Y-83683180D01*
X130080952Y-83683180D02*
X130033333Y-83778418D01*
X130033333Y-83778418D02*
X129985714Y-83826037D01*
X129985714Y-83826037D02*
X129890476Y-83873656D01*
X129890476Y-83873656D02*
X129509524Y-83873656D01*
X127866666Y-85959791D02*
X127533333Y-85483600D01*
X127295238Y-85959791D02*
X127295238Y-84959791D01*
X127295238Y-84959791D02*
X127676190Y-84959791D01*
X127676190Y-84959791D02*
X127771428Y-85007410D01*
X127771428Y-85007410D02*
X127819047Y-85055029D01*
X127819047Y-85055029D02*
X127866666Y-85150267D01*
X127866666Y-85150267D02*
X127866666Y-85293124D01*
X127866666Y-85293124D02*
X127819047Y-85388362D01*
X127819047Y-85388362D02*
X127771428Y-85435981D01*
X127771428Y-85435981D02*
X127676190Y-85483600D01*
X127676190Y-85483600D02*
X127295238Y-85483600D01*
X128295238Y-85435981D02*
X128628571Y-85435981D01*
X128771428Y-85959791D02*
X128295238Y-85959791D01*
X128295238Y-85959791D02*
X128295238Y-84959791D01*
X128295238Y-84959791D02*
X128771428Y-84959791D01*
X129152381Y-85912172D02*
X129295238Y-85959791D01*
X129295238Y-85959791D02*
X129533333Y-85959791D01*
X129533333Y-85959791D02*
X129628571Y-85912172D01*
X129628571Y-85912172D02*
X129676190Y-85864552D01*
X129676190Y-85864552D02*
X129723809Y-85769314D01*
X129723809Y-85769314D02*
X129723809Y-85674076D01*
X129723809Y-85674076D02*
X129676190Y-85578838D01*
X129676190Y-85578838D02*
X129628571Y-85531219D01*
X129628571Y-85531219D02*
X129533333Y-85483600D01*
X129533333Y-85483600D02*
X129342857Y-85435981D01*
X129342857Y-85435981D02*
X129247619Y-85388362D01*
X129247619Y-85388362D02*
X129200000Y-85340743D01*
X129200000Y-85340743D02*
X129152381Y-85245505D01*
X129152381Y-85245505D02*
X129152381Y-85150267D01*
X129152381Y-85150267D02*
X129200000Y-85055029D01*
X129200000Y-85055029D02*
X129247619Y-85007410D01*
X129247619Y-85007410D02*
X129342857Y-84959791D01*
X129342857Y-84959791D02*
X129580952Y-84959791D01*
X129580952Y-84959791D02*
X129723809Y-85007410D01*
X130152381Y-85435981D02*
X130485714Y-85435981D01*
X130628571Y-85959791D02*
X130152381Y-85959791D01*
X130152381Y-85959791D02*
X130152381Y-84959791D01*
X130152381Y-84959791D02*
X130628571Y-84959791D01*
X130914286Y-84959791D02*
X131485714Y-84959791D01*
X131200000Y-85959791D02*
X131200000Y-84959791D01*
X97552380Y-107304819D02*
X97219047Y-106828628D01*
X96980952Y-107304819D02*
X96980952Y-106304819D01*
X96980952Y-106304819D02*
X97361904Y-106304819D01*
X97361904Y-106304819D02*
X97457142Y-106352438D01*
X97457142Y-106352438D02*
X97504761Y-106400057D01*
X97504761Y-106400057D02*
X97552380Y-106495295D01*
X97552380Y-106495295D02*
X97552380Y-106638152D01*
X97552380Y-106638152D02*
X97504761Y-106733390D01*
X97504761Y-106733390D02*
X97457142Y-106781009D01*
X97457142Y-106781009D02*
X97361904Y-106828628D01*
X97361904Y-106828628D02*
X96980952Y-106828628D01*
X98504761Y-106352438D02*
X98409523Y-106304819D01*
X98409523Y-106304819D02*
X98266666Y-106304819D01*
X98266666Y-106304819D02*
X98123809Y-106352438D01*
X98123809Y-106352438D02*
X98028571Y-106447676D01*
X98028571Y-106447676D02*
X97980952Y-106542914D01*
X97980952Y-106542914D02*
X97933333Y-106733390D01*
X97933333Y-106733390D02*
X97933333Y-106876247D01*
X97933333Y-106876247D02*
X97980952Y-107066723D01*
X97980952Y-107066723D02*
X98028571Y-107161961D01*
X98028571Y-107161961D02*
X98123809Y-107257200D01*
X98123809Y-107257200D02*
X98266666Y-107304819D01*
X98266666Y-107304819D02*
X98361904Y-107304819D01*
X98361904Y-107304819D02*
X98504761Y-107257200D01*
X98504761Y-107257200D02*
X98552380Y-107209580D01*
X98552380Y-107209580D02*
X98552380Y-106876247D01*
X98552380Y-106876247D02*
X98361904Y-106876247D01*
X99314285Y-106781009D02*
X99457142Y-106828628D01*
X99457142Y-106828628D02*
X99504761Y-106876247D01*
X99504761Y-106876247D02*
X99552380Y-106971485D01*
X99552380Y-106971485D02*
X99552380Y-107114342D01*
X99552380Y-107114342D02*
X99504761Y-107209580D01*
X99504761Y-107209580D02*
X99457142Y-107257200D01*
X99457142Y-107257200D02*
X99361904Y-107304819D01*
X99361904Y-107304819D02*
X98980952Y-107304819D01*
X98980952Y-107304819D02*
X98980952Y-106304819D01*
X98980952Y-106304819D02*
X99314285Y-106304819D01*
X99314285Y-106304819D02*
X99409523Y-106352438D01*
X99409523Y-106352438D02*
X99457142Y-106400057D01*
X99457142Y-106400057D02*
X99504761Y-106495295D01*
X99504761Y-106495295D02*
X99504761Y-106590533D01*
X99504761Y-106590533D02*
X99457142Y-106685771D01*
X99457142Y-106685771D02*
X99409523Y-106733390D01*
X99409523Y-106733390D02*
X99314285Y-106781009D01*
X99314285Y-106781009D02*
X98980952Y-106781009D01*
X101266666Y-107304819D02*
X100695238Y-107304819D01*
X100980952Y-107304819D02*
X100980952Y-106304819D01*
X100980952Y-106304819D02*
X100885714Y-106447676D01*
X100885714Y-106447676D02*
X100790476Y-106542914D01*
X100790476Y-106542914D02*
X100695238Y-106590533D01*
X173259523Y-79444819D02*
X172783333Y-79444819D01*
X172783333Y-79444819D02*
X172735714Y-79921009D01*
X172735714Y-79921009D02*
X172783333Y-79873390D01*
X172783333Y-79873390D02*
X172878571Y-79825771D01*
X172878571Y-79825771D02*
X173116666Y-79825771D01*
X173116666Y-79825771D02*
X173211904Y-79873390D01*
X173211904Y-79873390D02*
X173259523Y-79921009D01*
X173259523Y-79921009D02*
X173307142Y-80016247D01*
X173307142Y-80016247D02*
X173307142Y-80254342D01*
X173307142Y-80254342D02*
X173259523Y-80349580D01*
X173259523Y-80349580D02*
X173211904Y-80397200D01*
X173211904Y-80397200D02*
X173116666Y-80444819D01*
X173116666Y-80444819D02*
X172878571Y-80444819D01*
X172878571Y-80444819D02*
X172783333Y-80397200D01*
X172783333Y-80397200D02*
X172735714Y-80349580D01*
X173592857Y-79444819D02*
X173926190Y-80444819D01*
X173926190Y-80444819D02*
X174259523Y-79444819D01*
X172155238Y-62584819D02*
X172155238Y-61584819D01*
X172631428Y-62584819D02*
X172631428Y-61584819D01*
X172631428Y-61584819D02*
X173202856Y-62584819D01*
X173202856Y-62584819D02*
X173202856Y-61584819D01*
X173536190Y-61584819D02*
X174107618Y-61584819D01*
X173821904Y-62584819D02*
X173821904Y-61584819D01*
X124347200Y-46779046D02*
X124394819Y-46636189D01*
X124394819Y-46636189D02*
X124394819Y-46398094D01*
X124394819Y-46398094D02*
X124347200Y-46302856D01*
X124347200Y-46302856D02*
X124299580Y-46255237D01*
X124299580Y-46255237D02*
X124204342Y-46207618D01*
X124204342Y-46207618D02*
X124109104Y-46207618D01*
X124109104Y-46207618D02*
X124013866Y-46255237D01*
X124013866Y-46255237D02*
X123966247Y-46302856D01*
X123966247Y-46302856D02*
X123918628Y-46398094D01*
X123918628Y-46398094D02*
X123871009Y-46588570D01*
X123871009Y-46588570D02*
X123823390Y-46683808D01*
X123823390Y-46683808D02*
X123775771Y-46731427D01*
X123775771Y-46731427D02*
X123680533Y-46779046D01*
X123680533Y-46779046D02*
X123585295Y-46779046D01*
X123585295Y-46779046D02*
X123490057Y-46731427D01*
X123490057Y-46731427D02*
X123442438Y-46683808D01*
X123442438Y-46683808D02*
X123394819Y-46588570D01*
X123394819Y-46588570D02*
X123394819Y-46350475D01*
X123394819Y-46350475D02*
X123442438Y-46207618D01*
X123394819Y-45874284D02*
X124394819Y-45636189D01*
X124394819Y-45636189D02*
X123680533Y-45445713D01*
X123680533Y-45445713D02*
X124394819Y-45255237D01*
X124394819Y-45255237D02*
X123394819Y-45017142D01*
X124394819Y-44636189D02*
X123394819Y-44636189D01*
X123394819Y-44636189D02*
X123394819Y-44398094D01*
X123394819Y-44398094D02*
X123442438Y-44255237D01*
X123442438Y-44255237D02*
X123537676Y-44159999D01*
X123537676Y-44159999D02*
X123632914Y-44112380D01*
X123632914Y-44112380D02*
X123823390Y-44064761D01*
X123823390Y-44064761D02*
X123966247Y-44064761D01*
X123966247Y-44064761D02*
X124156723Y-44112380D01*
X124156723Y-44112380D02*
X124251961Y-44159999D01*
X124251961Y-44159999D02*
X124347200Y-44255237D01*
X124347200Y-44255237D02*
X124394819Y-44398094D01*
X124394819Y-44398094D02*
X124394819Y-44636189D01*
X124394819Y-43636189D02*
X123394819Y-43636189D01*
X123394819Y-42969523D02*
X123394819Y-42779047D01*
X123394819Y-42779047D02*
X123442438Y-42683809D01*
X123442438Y-42683809D02*
X123537676Y-42588571D01*
X123537676Y-42588571D02*
X123728152Y-42540952D01*
X123728152Y-42540952D02*
X124061485Y-42540952D01*
X124061485Y-42540952D02*
X124251961Y-42588571D01*
X124251961Y-42588571D02*
X124347200Y-42683809D01*
X124347200Y-42683809D02*
X124394819Y-42779047D01*
X124394819Y-42779047D02*
X124394819Y-42969523D01*
X124394819Y-42969523D02*
X124347200Y-43064761D01*
X124347200Y-43064761D02*
X124251961Y-43159999D01*
X124251961Y-43159999D02*
X124061485Y-43207618D01*
X124061485Y-43207618D02*
X123728152Y-43207618D01*
X123728152Y-43207618D02*
X123537676Y-43159999D01*
X123537676Y-43159999D02*
X123442438Y-43064761D01*
X123442438Y-43064761D02*
X123394819Y-42969523D01*
X172318095Y-76942438D02*
X172222857Y-76894819D01*
X172222857Y-76894819D02*
X172080000Y-76894819D01*
X172080000Y-76894819D02*
X171937143Y-76942438D01*
X171937143Y-76942438D02*
X171841905Y-77037676D01*
X171841905Y-77037676D02*
X171794286Y-77132914D01*
X171794286Y-77132914D02*
X171746667Y-77323390D01*
X171746667Y-77323390D02*
X171746667Y-77466247D01*
X171746667Y-77466247D02*
X171794286Y-77656723D01*
X171794286Y-77656723D02*
X171841905Y-77751961D01*
X171841905Y-77751961D02*
X171937143Y-77847200D01*
X171937143Y-77847200D02*
X172080000Y-77894819D01*
X172080000Y-77894819D02*
X172175238Y-77894819D01*
X172175238Y-77894819D02*
X172318095Y-77847200D01*
X172318095Y-77847200D02*
X172365714Y-77799580D01*
X172365714Y-77799580D02*
X172365714Y-77466247D01*
X172365714Y-77466247D02*
X172175238Y-77466247D01*
X172794286Y-77894819D02*
X172794286Y-76894819D01*
X172794286Y-76894819D02*
X173365714Y-77894819D01*
X173365714Y-77894819D02*
X173365714Y-76894819D01*
X173841905Y-77894819D02*
X173841905Y-76894819D01*
X173841905Y-76894819D02*
X174080000Y-76894819D01*
X174080000Y-76894819D02*
X174222857Y-76942438D01*
X174222857Y-76942438D02*
X174318095Y-77037676D01*
X174318095Y-77037676D02*
X174365714Y-77132914D01*
X174365714Y-77132914D02*
X174413333Y-77323390D01*
X174413333Y-77323390D02*
X174413333Y-77466247D01*
X174413333Y-77466247D02*
X174365714Y-77656723D01*
X174365714Y-77656723D02*
X174318095Y-77751961D01*
X174318095Y-77751961D02*
X174222857Y-77847200D01*
X174222857Y-77847200D02*
X174080000Y-77894819D01*
X174080000Y-77894819D02*
X173841905Y-77894819D01*
X121754819Y-95448094D02*
X121754819Y-94829047D01*
X121754819Y-94829047D02*
X122135771Y-95162380D01*
X122135771Y-95162380D02*
X122135771Y-95019523D01*
X122135771Y-95019523D02*
X122183390Y-94924285D01*
X122183390Y-94924285D02*
X122231009Y-94876666D01*
X122231009Y-94876666D02*
X122326247Y-94829047D01*
X122326247Y-94829047D02*
X122564342Y-94829047D01*
X122564342Y-94829047D02*
X122659580Y-94876666D01*
X122659580Y-94876666D02*
X122707200Y-94924285D01*
X122707200Y-94924285D02*
X122754819Y-95019523D01*
X122754819Y-95019523D02*
X122754819Y-95305237D01*
X122754819Y-95305237D02*
X122707200Y-95400475D01*
X122707200Y-95400475D02*
X122659580Y-95448094D01*
X121754819Y-94543332D02*
X122754819Y-94209999D01*
X122754819Y-94209999D02*
X121754819Y-93876666D01*
X121754819Y-93638570D02*
X121754819Y-93019523D01*
X121754819Y-93019523D02*
X122135771Y-93352856D01*
X122135771Y-93352856D02*
X122135771Y-93209999D01*
X122135771Y-93209999D02*
X122183390Y-93114761D01*
X122183390Y-93114761D02*
X122231009Y-93067142D01*
X122231009Y-93067142D02*
X122326247Y-93019523D01*
X122326247Y-93019523D02*
X122564342Y-93019523D01*
X122564342Y-93019523D02*
X122659580Y-93067142D01*
X122659580Y-93067142D02*
X122707200Y-93114761D01*
X122707200Y-93114761D02*
X122754819Y-93209999D01*
X122754819Y-93209999D02*
X122754819Y-93495713D01*
X122754819Y-93495713D02*
X122707200Y-93590951D01*
X122707200Y-93590951D02*
X122659580Y-93638570D01*
X173524286Y-47637200D02*
X173667143Y-47684819D01*
X173667143Y-47684819D02*
X173905238Y-47684819D01*
X173905238Y-47684819D02*
X174000476Y-47637200D01*
X174000476Y-47637200D02*
X174048095Y-47589580D01*
X174048095Y-47589580D02*
X174095714Y-47494342D01*
X174095714Y-47494342D02*
X174095714Y-47399104D01*
X174095714Y-47399104D02*
X174048095Y-47303866D01*
X174048095Y-47303866D02*
X174000476Y-47256247D01*
X174000476Y-47256247D02*
X173905238Y-47208628D01*
X173905238Y-47208628D02*
X173714762Y-47161009D01*
X173714762Y-47161009D02*
X173619524Y-47113390D01*
X173619524Y-47113390D02*
X173571905Y-47065771D01*
X173571905Y-47065771D02*
X173524286Y-46970533D01*
X173524286Y-46970533D02*
X173524286Y-46875295D01*
X173524286Y-46875295D02*
X173571905Y-46780057D01*
X173571905Y-46780057D02*
X173619524Y-46732438D01*
X173619524Y-46732438D02*
X173714762Y-46684819D01*
X173714762Y-46684819D02*
X173952857Y-46684819D01*
X173952857Y-46684819D02*
X174095714Y-46732438D01*
X175095714Y-47589580D02*
X175048095Y-47637200D01*
X175048095Y-47637200D02*
X174905238Y-47684819D01*
X174905238Y-47684819D02*
X174810000Y-47684819D01*
X174810000Y-47684819D02*
X174667143Y-47637200D01*
X174667143Y-47637200D02*
X174571905Y-47541961D01*
X174571905Y-47541961D02*
X174524286Y-47446723D01*
X174524286Y-47446723D02*
X174476667Y-47256247D01*
X174476667Y-47256247D02*
X174476667Y-47113390D01*
X174476667Y-47113390D02*
X174524286Y-46922914D01*
X174524286Y-46922914D02*
X174571905Y-46827676D01*
X174571905Y-46827676D02*
X174667143Y-46732438D01*
X174667143Y-46732438D02*
X174810000Y-46684819D01*
X174810000Y-46684819D02*
X174905238Y-46684819D01*
X174905238Y-46684819D02*
X175048095Y-46732438D01*
X175048095Y-46732438D02*
X175095714Y-46780057D01*
X175524286Y-47684819D02*
X175524286Y-46684819D01*
X176095714Y-47684819D02*
X175667143Y-47113390D01*
X176095714Y-46684819D02*
X175524286Y-47256247D01*
X96685714Y-39899847D02*
X96685714Y-40709370D01*
X96685714Y-40709370D02*
X96733333Y-40804608D01*
X96733333Y-40804608D02*
X96780952Y-40852228D01*
X96780952Y-40852228D02*
X96876190Y-40899847D01*
X96876190Y-40899847D02*
X97066666Y-40899847D01*
X97066666Y-40899847D02*
X97161904Y-40852228D01*
X97161904Y-40852228D02*
X97209523Y-40804608D01*
X97209523Y-40804608D02*
X97257142Y-40709370D01*
X97257142Y-40709370D02*
X97257142Y-39899847D01*
X97685714Y-40852228D02*
X97828571Y-40899847D01*
X97828571Y-40899847D02*
X98066666Y-40899847D01*
X98066666Y-40899847D02*
X98161904Y-40852228D01*
X98161904Y-40852228D02*
X98209523Y-40804608D01*
X98209523Y-40804608D02*
X98257142Y-40709370D01*
X98257142Y-40709370D02*
X98257142Y-40614132D01*
X98257142Y-40614132D02*
X98209523Y-40518894D01*
X98209523Y-40518894D02*
X98161904Y-40471275D01*
X98161904Y-40471275D02*
X98066666Y-40423656D01*
X98066666Y-40423656D02*
X97876190Y-40376037D01*
X97876190Y-40376037D02*
X97780952Y-40328418D01*
X97780952Y-40328418D02*
X97733333Y-40280799D01*
X97733333Y-40280799D02*
X97685714Y-40185561D01*
X97685714Y-40185561D02*
X97685714Y-40090323D01*
X97685714Y-40090323D02*
X97733333Y-39995085D01*
X97733333Y-39995085D02*
X97780952Y-39947466D01*
X97780952Y-39947466D02*
X97876190Y-39899847D01*
X97876190Y-39899847D02*
X98114285Y-39899847D01*
X98114285Y-39899847D02*
X98257142Y-39947466D01*
X98685714Y-40376037D02*
X99019047Y-40376037D01*
X99161904Y-40899847D02*
X98685714Y-40899847D01*
X98685714Y-40899847D02*
X98685714Y-39899847D01*
X98685714Y-39899847D02*
X99161904Y-39899847D01*
X100161904Y-40899847D02*
X99828571Y-40423656D01*
X99590476Y-40899847D02*
X99590476Y-39899847D01*
X99590476Y-39899847D02*
X99971428Y-39899847D01*
X99971428Y-39899847D02*
X100066666Y-39947466D01*
X100066666Y-39947466D02*
X100114285Y-39995085D01*
X100114285Y-39995085D02*
X100161904Y-40090323D01*
X100161904Y-40090323D02*
X100161904Y-40233180D01*
X100161904Y-40233180D02*
X100114285Y-40328418D01*
X100114285Y-40328418D02*
X100066666Y-40376037D01*
X100066666Y-40376037D02*
X99971428Y-40423656D01*
X99971428Y-40423656D02*
X99590476Y-40423656D01*
X96804762Y-41509791D02*
X96804762Y-42319314D01*
X96804762Y-42319314D02*
X96852381Y-42414552D01*
X96852381Y-42414552D02*
X96900000Y-42462172D01*
X96900000Y-42462172D02*
X96995238Y-42509791D01*
X96995238Y-42509791D02*
X97185714Y-42509791D01*
X97185714Y-42509791D02*
X97280952Y-42462172D01*
X97280952Y-42462172D02*
X97328571Y-42414552D01*
X97328571Y-42414552D02*
X97376190Y-42319314D01*
X97376190Y-42319314D02*
X97376190Y-41509791D01*
X97804762Y-42224076D02*
X98280952Y-42224076D01*
X97709524Y-42509791D02*
X98042857Y-41509791D01*
X98042857Y-41509791D02*
X98376190Y-42509791D01*
X99280952Y-42509791D02*
X98947619Y-42033600D01*
X98709524Y-42509791D02*
X98709524Y-41509791D01*
X98709524Y-41509791D02*
X99090476Y-41509791D01*
X99090476Y-41509791D02*
X99185714Y-41557410D01*
X99185714Y-41557410D02*
X99233333Y-41605029D01*
X99233333Y-41605029D02*
X99280952Y-41700267D01*
X99280952Y-41700267D02*
X99280952Y-41843124D01*
X99280952Y-41843124D02*
X99233333Y-41938362D01*
X99233333Y-41938362D02*
X99185714Y-41985981D01*
X99185714Y-41985981D02*
X99090476Y-42033600D01*
X99090476Y-42033600D02*
X98709524Y-42033600D01*
X99566667Y-41509791D02*
X100138095Y-41509791D01*
X99852381Y-42509791D02*
X99852381Y-41509791D01*
X136954819Y-98573808D02*
X136954819Y-98002380D01*
X137954819Y-98288094D02*
X136954819Y-98288094D01*
X137954819Y-97097618D02*
X137478628Y-97430951D01*
X137954819Y-97669046D02*
X136954819Y-97669046D01*
X136954819Y-97669046D02*
X136954819Y-97288094D01*
X136954819Y-97288094D02*
X137002438Y-97192856D01*
X137002438Y-97192856D02*
X137050057Y-97145237D01*
X137050057Y-97145237D02*
X137145295Y-97097618D01*
X137145295Y-97097618D02*
X137288152Y-97097618D01*
X137288152Y-97097618D02*
X137383390Y-97145237D01*
X137383390Y-97145237D02*
X137431009Y-97192856D01*
X137431009Y-97192856D02*
X137478628Y-97288094D01*
X137478628Y-97288094D02*
X137478628Y-97669046D01*
X137954819Y-96669046D02*
X136954819Y-96669046D01*
X137002438Y-95669047D02*
X136954819Y-95764285D01*
X136954819Y-95764285D02*
X136954819Y-95907142D01*
X136954819Y-95907142D02*
X137002438Y-96049999D01*
X137002438Y-96049999D02*
X137097676Y-96145237D01*
X137097676Y-96145237D02*
X137192914Y-96192856D01*
X137192914Y-96192856D02*
X137383390Y-96240475D01*
X137383390Y-96240475D02*
X137526247Y-96240475D01*
X137526247Y-96240475D02*
X137716723Y-96192856D01*
X137716723Y-96192856D02*
X137811961Y-96145237D01*
X137811961Y-96145237D02*
X137907200Y-96049999D01*
X137907200Y-96049999D02*
X137954819Y-95907142D01*
X137954819Y-95907142D02*
X137954819Y-95811904D01*
X137954819Y-95811904D02*
X137907200Y-95669047D01*
X137907200Y-95669047D02*
X137859580Y-95621428D01*
X137859580Y-95621428D02*
X137526247Y-95621428D01*
X137526247Y-95621428D02*
X137526247Y-95811904D01*
X95960000Y-60516037D02*
X96293333Y-60516037D01*
X96436190Y-61039847D02*
X95960000Y-61039847D01*
X95960000Y-61039847D02*
X95960000Y-60039847D01*
X95960000Y-60039847D02*
X96436190Y-60039847D01*
X96769524Y-60039847D02*
X97436190Y-61039847D01*
X97436190Y-60039847D02*
X96769524Y-61039847D01*
X97674286Y-60039847D02*
X98245714Y-60039847D01*
X97960000Y-61039847D02*
X97960000Y-60039847D01*
X99150476Y-61039847D02*
X98817143Y-60563656D01*
X98579048Y-61039847D02*
X98579048Y-60039847D01*
X98579048Y-60039847D02*
X98960000Y-60039847D01*
X98960000Y-60039847D02*
X99055238Y-60087466D01*
X99055238Y-60087466D02*
X99102857Y-60135085D01*
X99102857Y-60135085D02*
X99150476Y-60230323D01*
X99150476Y-60230323D02*
X99150476Y-60373180D01*
X99150476Y-60373180D02*
X99102857Y-60468418D01*
X99102857Y-60468418D02*
X99055238Y-60516037D01*
X99055238Y-60516037D02*
X98960000Y-60563656D01*
X98960000Y-60563656D02*
X98579048Y-60563656D01*
X99531429Y-60754132D02*
X100007619Y-60754132D01*
X99436191Y-61039847D02*
X99769524Y-60039847D01*
X99769524Y-60039847D02*
X100102857Y-61039847D01*
X96960000Y-61697410D02*
X96864762Y-61649791D01*
X96864762Y-61649791D02*
X96721905Y-61649791D01*
X96721905Y-61649791D02*
X96579048Y-61697410D01*
X96579048Y-61697410D02*
X96483810Y-61792648D01*
X96483810Y-61792648D02*
X96436191Y-61887886D01*
X96436191Y-61887886D02*
X96388572Y-62078362D01*
X96388572Y-62078362D02*
X96388572Y-62221219D01*
X96388572Y-62221219D02*
X96436191Y-62411695D01*
X96436191Y-62411695D02*
X96483810Y-62506933D01*
X96483810Y-62506933D02*
X96579048Y-62602172D01*
X96579048Y-62602172D02*
X96721905Y-62649791D01*
X96721905Y-62649791D02*
X96817143Y-62649791D01*
X96817143Y-62649791D02*
X96960000Y-62602172D01*
X96960000Y-62602172D02*
X97007619Y-62554552D01*
X97007619Y-62554552D02*
X97007619Y-62221219D01*
X97007619Y-62221219D02*
X96817143Y-62221219D01*
X97436191Y-62649791D02*
X97436191Y-61649791D01*
X97436191Y-61649791D02*
X97817143Y-61649791D01*
X97817143Y-61649791D02*
X97912381Y-61697410D01*
X97912381Y-61697410D02*
X97960000Y-61745029D01*
X97960000Y-61745029D02*
X98007619Y-61840267D01*
X98007619Y-61840267D02*
X98007619Y-61983124D01*
X98007619Y-61983124D02*
X97960000Y-62078362D01*
X97960000Y-62078362D02*
X97912381Y-62125981D01*
X97912381Y-62125981D02*
X97817143Y-62173600D01*
X97817143Y-62173600D02*
X97436191Y-62173600D01*
X98436191Y-62649791D02*
X98436191Y-61649791D01*
X99102857Y-61649791D02*
X99293333Y-61649791D01*
X99293333Y-61649791D02*
X99388571Y-61697410D01*
X99388571Y-61697410D02*
X99483809Y-61792648D01*
X99483809Y-61792648D02*
X99531428Y-61983124D01*
X99531428Y-61983124D02*
X99531428Y-62316457D01*
X99531428Y-62316457D02*
X99483809Y-62506933D01*
X99483809Y-62506933D02*
X99388571Y-62602172D01*
X99388571Y-62602172D02*
X99293333Y-62649791D01*
X99293333Y-62649791D02*
X99102857Y-62649791D01*
X99102857Y-62649791D02*
X99007619Y-62602172D01*
X99007619Y-62602172D02*
X98912381Y-62506933D01*
X98912381Y-62506933D02*
X98864762Y-62316457D01*
X98864762Y-62316457D02*
X98864762Y-61983124D01*
X98864762Y-61983124D02*
X98912381Y-61792648D01*
X98912381Y-61792648D02*
X99007619Y-61697410D01*
X99007619Y-61697410D02*
X99102857Y-61649791D01*
X173958095Y-39292438D02*
X173862857Y-39244819D01*
X173862857Y-39244819D02*
X173720000Y-39244819D01*
X173720000Y-39244819D02*
X173577143Y-39292438D01*
X173577143Y-39292438D02*
X173481905Y-39387676D01*
X173481905Y-39387676D02*
X173434286Y-39482914D01*
X173434286Y-39482914D02*
X173386667Y-39673390D01*
X173386667Y-39673390D02*
X173386667Y-39816247D01*
X173386667Y-39816247D02*
X173434286Y-40006723D01*
X173434286Y-40006723D02*
X173481905Y-40101961D01*
X173481905Y-40101961D02*
X173577143Y-40197200D01*
X173577143Y-40197200D02*
X173720000Y-40244819D01*
X173720000Y-40244819D02*
X173815238Y-40244819D01*
X173815238Y-40244819D02*
X173958095Y-40197200D01*
X173958095Y-40197200D02*
X174005714Y-40149580D01*
X174005714Y-40149580D02*
X174005714Y-39816247D01*
X174005714Y-39816247D02*
X173815238Y-39816247D01*
X174434286Y-40244819D02*
X174434286Y-39244819D01*
X174434286Y-39244819D02*
X175005714Y-40244819D01*
X175005714Y-40244819D02*
X175005714Y-39244819D01*
X175481905Y-40244819D02*
X175481905Y-39244819D01*
X175481905Y-39244819D02*
X175720000Y-39244819D01*
X175720000Y-39244819D02*
X175862857Y-39292438D01*
X175862857Y-39292438D02*
X175958095Y-39387676D01*
X175958095Y-39387676D02*
X176005714Y-39482914D01*
X176005714Y-39482914D02*
X176053333Y-39673390D01*
X176053333Y-39673390D02*
X176053333Y-39816247D01*
X176053333Y-39816247D02*
X176005714Y-40006723D01*
X176005714Y-40006723D02*
X175958095Y-40101961D01*
X175958095Y-40101961D02*
X175862857Y-40197200D01*
X175862857Y-40197200D02*
X175720000Y-40244819D01*
X175720000Y-40244819D02*
X175481905Y-40244819D01*
X101778095Y-65792438D02*
X101682857Y-65744819D01*
X101682857Y-65744819D02*
X101540000Y-65744819D01*
X101540000Y-65744819D02*
X101397143Y-65792438D01*
X101397143Y-65792438D02*
X101301905Y-65887676D01*
X101301905Y-65887676D02*
X101254286Y-65982914D01*
X101254286Y-65982914D02*
X101206667Y-66173390D01*
X101206667Y-66173390D02*
X101206667Y-66316247D01*
X101206667Y-66316247D02*
X101254286Y-66506723D01*
X101254286Y-66506723D02*
X101301905Y-66601961D01*
X101301905Y-66601961D02*
X101397143Y-66697200D01*
X101397143Y-66697200D02*
X101540000Y-66744819D01*
X101540000Y-66744819D02*
X101635238Y-66744819D01*
X101635238Y-66744819D02*
X101778095Y-66697200D01*
X101778095Y-66697200D02*
X101825714Y-66649580D01*
X101825714Y-66649580D02*
X101825714Y-66316247D01*
X101825714Y-66316247D02*
X101635238Y-66316247D01*
X102254286Y-66744819D02*
X102254286Y-65744819D01*
X102254286Y-65744819D02*
X102825714Y-66744819D01*
X102825714Y-66744819D02*
X102825714Y-65744819D01*
X103301905Y-66744819D02*
X103301905Y-65744819D01*
X103301905Y-65744819D02*
X103540000Y-65744819D01*
X103540000Y-65744819D02*
X103682857Y-65792438D01*
X103682857Y-65792438D02*
X103778095Y-65887676D01*
X103778095Y-65887676D02*
X103825714Y-65982914D01*
X103825714Y-65982914D02*
X103873333Y-66173390D01*
X103873333Y-66173390D02*
X103873333Y-66316247D01*
X103873333Y-66316247D02*
X103825714Y-66506723D01*
X103825714Y-66506723D02*
X103778095Y-66601961D01*
X103778095Y-66601961D02*
X103682857Y-66697200D01*
X103682857Y-66697200D02*
X103540000Y-66744819D01*
X103540000Y-66744819D02*
X103301905Y-66744819D01*
X101730476Y-70894819D02*
X102397142Y-71894819D01*
X102397142Y-70894819D02*
X101730476Y-71894819D01*
X102682857Y-70894819D02*
X103301904Y-70894819D01*
X103301904Y-70894819D02*
X102968571Y-71275771D01*
X102968571Y-71275771D02*
X103111428Y-71275771D01*
X103111428Y-71275771D02*
X103206666Y-71323390D01*
X103206666Y-71323390D02*
X103254285Y-71371009D01*
X103254285Y-71371009D02*
X103301904Y-71466247D01*
X103301904Y-71466247D02*
X103301904Y-71704342D01*
X103301904Y-71704342D02*
X103254285Y-71799580D01*
X103254285Y-71799580D02*
X103206666Y-71847200D01*
X103206666Y-71847200D02*
X103111428Y-71894819D01*
X103111428Y-71894819D02*
X102825714Y-71894819D01*
X102825714Y-71894819D02*
X102730476Y-71847200D01*
X102730476Y-71847200D02*
X102682857Y-71799580D01*
X101840476Y-75764819D02*
X102507142Y-76764819D01*
X102507142Y-75764819D02*
X101840476Y-76764819D01*
X103411904Y-76764819D02*
X102840476Y-76764819D01*
X103126190Y-76764819D02*
X103126190Y-75764819D01*
X103126190Y-75764819D02*
X103030952Y-75907676D01*
X103030952Y-75907676D02*
X102935714Y-76002914D01*
X102935714Y-76002914D02*
X102840476Y-76050533D01*
X173326667Y-66694819D02*
X173993333Y-67694819D01*
X173993333Y-66694819D02*
X173326667Y-67694819D01*
X175003333Y-42589580D02*
X174955714Y-42637200D01*
X174955714Y-42637200D02*
X174812857Y-42684819D01*
X174812857Y-42684819D02*
X174717619Y-42684819D01*
X174717619Y-42684819D02*
X174574762Y-42637200D01*
X174574762Y-42637200D02*
X174479524Y-42541961D01*
X174479524Y-42541961D02*
X174431905Y-42446723D01*
X174431905Y-42446723D02*
X174384286Y-42256247D01*
X174384286Y-42256247D02*
X174384286Y-42113390D01*
X174384286Y-42113390D02*
X174431905Y-41922914D01*
X174431905Y-41922914D02*
X174479524Y-41827676D01*
X174479524Y-41827676D02*
X174574762Y-41732438D01*
X174574762Y-41732438D02*
X174717619Y-41684819D01*
X174717619Y-41684819D02*
X174812857Y-41684819D01*
X174812857Y-41684819D02*
X174955714Y-41732438D01*
X174955714Y-41732438D02*
X175003333Y-41780057D01*
X175384286Y-42637200D02*
X175527143Y-42684819D01*
X175527143Y-42684819D02*
X175765238Y-42684819D01*
X175765238Y-42684819D02*
X175860476Y-42637200D01*
X175860476Y-42637200D02*
X175908095Y-42589580D01*
X175908095Y-42589580D02*
X175955714Y-42494342D01*
X175955714Y-42494342D02*
X175955714Y-42399104D01*
X175955714Y-42399104D02*
X175908095Y-42303866D01*
X175908095Y-42303866D02*
X175860476Y-42256247D01*
X175860476Y-42256247D02*
X175765238Y-42208628D01*
X175765238Y-42208628D02*
X175574762Y-42161009D01*
X175574762Y-42161009D02*
X175479524Y-42113390D01*
X175479524Y-42113390D02*
X175431905Y-42065771D01*
X175431905Y-42065771D02*
X175384286Y-41970533D01*
X175384286Y-41970533D02*
X175384286Y-41875295D01*
X175384286Y-41875295D02*
X175431905Y-41780057D01*
X175431905Y-41780057D02*
X175479524Y-41732438D01*
X175479524Y-41732438D02*
X175574762Y-41684819D01*
X175574762Y-41684819D02*
X175812857Y-41684819D01*
X175812857Y-41684819D02*
X175955714Y-41732438D01*
X167404762Y-89499847D02*
X167404762Y-90309370D01*
X167404762Y-90309370D02*
X167452381Y-90404608D01*
X167452381Y-90404608D02*
X167500000Y-90452228D01*
X167500000Y-90452228D02*
X167595238Y-90499847D01*
X167595238Y-90499847D02*
X167785714Y-90499847D01*
X167785714Y-90499847D02*
X167880952Y-90452228D01*
X167880952Y-90452228D02*
X167928571Y-90404608D01*
X167928571Y-90404608D02*
X167976190Y-90309370D01*
X167976190Y-90309370D02*
X167976190Y-89499847D01*
X168404762Y-90452228D02*
X168547619Y-90499847D01*
X168547619Y-90499847D02*
X168785714Y-90499847D01*
X168785714Y-90499847D02*
X168880952Y-90452228D01*
X168880952Y-90452228D02*
X168928571Y-90404608D01*
X168928571Y-90404608D02*
X168976190Y-90309370D01*
X168976190Y-90309370D02*
X168976190Y-90214132D01*
X168976190Y-90214132D02*
X168928571Y-90118894D01*
X168928571Y-90118894D02*
X168880952Y-90071275D01*
X168880952Y-90071275D02*
X168785714Y-90023656D01*
X168785714Y-90023656D02*
X168595238Y-89976037D01*
X168595238Y-89976037D02*
X168500000Y-89928418D01*
X168500000Y-89928418D02*
X168452381Y-89880799D01*
X168452381Y-89880799D02*
X168404762Y-89785561D01*
X168404762Y-89785561D02*
X168404762Y-89690323D01*
X168404762Y-89690323D02*
X168452381Y-89595085D01*
X168452381Y-89595085D02*
X168500000Y-89547466D01*
X168500000Y-89547466D02*
X168595238Y-89499847D01*
X168595238Y-89499847D02*
X168833333Y-89499847D01*
X168833333Y-89499847D02*
X168976190Y-89547466D01*
X169404762Y-89976037D02*
X169738095Y-89976037D01*
X169880952Y-90499847D02*
X169404762Y-90499847D01*
X169404762Y-90499847D02*
X169404762Y-89499847D01*
X169404762Y-89499847D02*
X169880952Y-89499847D01*
X170880952Y-90499847D02*
X170547619Y-90023656D01*
X170309524Y-90499847D02*
X170309524Y-89499847D01*
X170309524Y-89499847D02*
X170690476Y-89499847D01*
X170690476Y-89499847D02*
X170785714Y-89547466D01*
X170785714Y-89547466D02*
X170833333Y-89595085D01*
X170833333Y-89595085D02*
X170880952Y-89690323D01*
X170880952Y-89690323D02*
X170880952Y-89833180D01*
X170880952Y-89833180D02*
X170833333Y-89928418D01*
X170833333Y-89928418D02*
X170785714Y-89976037D01*
X170785714Y-89976037D02*
X170690476Y-90023656D01*
X170690476Y-90023656D02*
X170309524Y-90023656D01*
X167238095Y-91585981D02*
X167380952Y-91633600D01*
X167380952Y-91633600D02*
X167428571Y-91681219D01*
X167428571Y-91681219D02*
X167476190Y-91776457D01*
X167476190Y-91776457D02*
X167476190Y-91919314D01*
X167476190Y-91919314D02*
X167428571Y-92014552D01*
X167428571Y-92014552D02*
X167380952Y-92062172D01*
X167380952Y-92062172D02*
X167285714Y-92109791D01*
X167285714Y-92109791D02*
X166904762Y-92109791D01*
X166904762Y-92109791D02*
X166904762Y-91109791D01*
X166904762Y-91109791D02*
X167238095Y-91109791D01*
X167238095Y-91109791D02*
X167333333Y-91157410D01*
X167333333Y-91157410D02*
X167380952Y-91205029D01*
X167380952Y-91205029D02*
X167428571Y-91300267D01*
X167428571Y-91300267D02*
X167428571Y-91395505D01*
X167428571Y-91395505D02*
X167380952Y-91490743D01*
X167380952Y-91490743D02*
X167333333Y-91538362D01*
X167333333Y-91538362D02*
X167238095Y-91585981D01*
X167238095Y-91585981D02*
X166904762Y-91585981D01*
X167904762Y-91109791D02*
X167904762Y-91919314D01*
X167904762Y-91919314D02*
X167952381Y-92014552D01*
X167952381Y-92014552D02*
X168000000Y-92062172D01*
X168000000Y-92062172D02*
X168095238Y-92109791D01*
X168095238Y-92109791D02*
X168285714Y-92109791D01*
X168285714Y-92109791D02*
X168380952Y-92062172D01*
X168380952Y-92062172D02*
X168428571Y-92014552D01*
X168428571Y-92014552D02*
X168476190Y-91919314D01*
X168476190Y-91919314D02*
X168476190Y-91109791D01*
X168809524Y-91109791D02*
X169380952Y-91109791D01*
X169095238Y-92109791D02*
X169095238Y-91109791D01*
X169571429Y-91109791D02*
X170142857Y-91109791D01*
X169857143Y-92109791D02*
X169857143Y-91109791D01*
X170666667Y-91109791D02*
X170857143Y-91109791D01*
X170857143Y-91109791D02*
X170952381Y-91157410D01*
X170952381Y-91157410D02*
X171047619Y-91252648D01*
X171047619Y-91252648D02*
X171095238Y-91443124D01*
X171095238Y-91443124D02*
X171095238Y-91776457D01*
X171095238Y-91776457D02*
X171047619Y-91966933D01*
X171047619Y-91966933D02*
X170952381Y-92062172D01*
X170952381Y-92062172D02*
X170857143Y-92109791D01*
X170857143Y-92109791D02*
X170666667Y-92109791D01*
X170666667Y-92109791D02*
X170571429Y-92062172D01*
X170571429Y-92062172D02*
X170476191Y-91966933D01*
X170476191Y-91966933D02*
X170428572Y-91776457D01*
X170428572Y-91776457D02*
X170428572Y-91443124D01*
X170428572Y-91443124D02*
X170476191Y-91252648D01*
X170476191Y-91252648D02*
X170571429Y-91157410D01*
X170571429Y-91157410D02*
X170666667Y-91109791D01*
X171523810Y-92109791D02*
X171523810Y-91109791D01*
X171523810Y-91109791D02*
X172095238Y-92109791D01*
X172095238Y-92109791D02*
X172095238Y-91109791D01*
X160031009Y-45558571D02*
X160078628Y-45415714D01*
X160078628Y-45415714D02*
X160126247Y-45368095D01*
X160126247Y-45368095D02*
X160221485Y-45320476D01*
X160221485Y-45320476D02*
X160364342Y-45320476D01*
X160364342Y-45320476D02*
X160459580Y-45368095D01*
X160459580Y-45368095D02*
X160507200Y-45415714D01*
X160507200Y-45415714D02*
X160554819Y-45510952D01*
X160554819Y-45510952D02*
X160554819Y-45891904D01*
X160554819Y-45891904D02*
X159554819Y-45891904D01*
X159554819Y-45891904D02*
X159554819Y-45558571D01*
X159554819Y-45558571D02*
X159602438Y-45463333D01*
X159602438Y-45463333D02*
X159650057Y-45415714D01*
X159650057Y-45415714D02*
X159745295Y-45368095D01*
X159745295Y-45368095D02*
X159840533Y-45368095D01*
X159840533Y-45368095D02*
X159935771Y-45415714D01*
X159935771Y-45415714D02*
X159983390Y-45463333D01*
X159983390Y-45463333D02*
X160031009Y-45558571D01*
X160031009Y-45558571D02*
X160031009Y-45891904D01*
X160554819Y-44891904D02*
X159554819Y-44891904D01*
X159554819Y-44891904D02*
X160554819Y-44320476D01*
X160554819Y-44320476D02*
X159554819Y-44320476D01*
X160554819Y-43320476D02*
X160554819Y-43891904D01*
X160554819Y-43606190D02*
X159554819Y-43606190D01*
X159554819Y-43606190D02*
X159697676Y-43701428D01*
X159697676Y-43701428D02*
X159792914Y-43796666D01*
X159792914Y-43796666D02*
X159840533Y-43891904D01*
X172918572Y-37634819D02*
X172918572Y-36634819D01*
X172918572Y-36634819D02*
X173251905Y-37349104D01*
X173251905Y-37349104D02*
X173585238Y-36634819D01*
X173585238Y-36634819D02*
X173585238Y-37634819D01*
X174061429Y-37634819D02*
X174061429Y-36634819D01*
X174490000Y-37587200D02*
X174632857Y-37634819D01*
X174632857Y-37634819D02*
X174870952Y-37634819D01*
X174870952Y-37634819D02*
X174966190Y-37587200D01*
X174966190Y-37587200D02*
X175013809Y-37539580D01*
X175013809Y-37539580D02*
X175061428Y-37444342D01*
X175061428Y-37444342D02*
X175061428Y-37349104D01*
X175061428Y-37349104D02*
X175013809Y-37253866D01*
X175013809Y-37253866D02*
X174966190Y-37206247D01*
X174966190Y-37206247D02*
X174870952Y-37158628D01*
X174870952Y-37158628D02*
X174680476Y-37111009D01*
X174680476Y-37111009D02*
X174585238Y-37063390D01*
X174585238Y-37063390D02*
X174537619Y-37015771D01*
X174537619Y-37015771D02*
X174490000Y-36920533D01*
X174490000Y-36920533D02*
X174490000Y-36825295D01*
X174490000Y-36825295D02*
X174537619Y-36730057D01*
X174537619Y-36730057D02*
X174585238Y-36682438D01*
X174585238Y-36682438D02*
X174680476Y-36634819D01*
X174680476Y-36634819D02*
X174918571Y-36634819D01*
X174918571Y-36634819D02*
X175061428Y-36682438D01*
X175680476Y-36634819D02*
X175870952Y-36634819D01*
X175870952Y-36634819D02*
X175966190Y-36682438D01*
X175966190Y-36682438D02*
X176061428Y-36777676D01*
X176061428Y-36777676D02*
X176109047Y-36968152D01*
X176109047Y-36968152D02*
X176109047Y-37301485D01*
X176109047Y-37301485D02*
X176061428Y-37491961D01*
X176061428Y-37491961D02*
X175966190Y-37587200D01*
X175966190Y-37587200D02*
X175870952Y-37634819D01*
X175870952Y-37634819D02*
X175680476Y-37634819D01*
X175680476Y-37634819D02*
X175585238Y-37587200D01*
X175585238Y-37587200D02*
X175490000Y-37491961D01*
X175490000Y-37491961D02*
X175442381Y-37301485D01*
X175442381Y-37301485D02*
X175442381Y-36968152D01*
X175442381Y-36968152D02*
X175490000Y-36777676D01*
X175490000Y-36777676D02*
X175585238Y-36682438D01*
X175585238Y-36682438D02*
X175680476Y-36634819D01*
X173306667Y-64024819D02*
X173973333Y-65024819D01*
X173973333Y-64024819D02*
X173306667Y-65024819D01*
X177516191Y-53667200D02*
X177659048Y-53714819D01*
X177659048Y-53714819D02*
X177897143Y-53714819D01*
X177897143Y-53714819D02*
X177992381Y-53667200D01*
X177992381Y-53667200D02*
X178040000Y-53619580D01*
X178040000Y-53619580D02*
X178087619Y-53524342D01*
X178087619Y-53524342D02*
X178087619Y-53429104D01*
X178087619Y-53429104D02*
X178040000Y-53333866D01*
X178040000Y-53333866D02*
X177992381Y-53286247D01*
X177992381Y-53286247D02*
X177897143Y-53238628D01*
X177897143Y-53238628D02*
X177706667Y-53191009D01*
X177706667Y-53191009D02*
X177611429Y-53143390D01*
X177611429Y-53143390D02*
X177563810Y-53095771D01*
X177563810Y-53095771D02*
X177516191Y-53000533D01*
X177516191Y-53000533D02*
X177516191Y-52905295D01*
X177516191Y-52905295D02*
X177563810Y-52810057D01*
X177563810Y-52810057D02*
X177611429Y-52762438D01*
X177611429Y-52762438D02*
X177706667Y-52714819D01*
X177706667Y-52714819D02*
X177944762Y-52714819D01*
X177944762Y-52714819D02*
X178087619Y-52762438D01*
X178516191Y-53714819D02*
X178516191Y-52714819D01*
X178516191Y-52714819D02*
X178897143Y-52714819D01*
X178897143Y-52714819D02*
X178992381Y-52762438D01*
X178992381Y-52762438D02*
X179040000Y-52810057D01*
X179040000Y-52810057D02*
X179087619Y-52905295D01*
X179087619Y-52905295D02*
X179087619Y-53048152D01*
X179087619Y-53048152D02*
X179040000Y-53143390D01*
X179040000Y-53143390D02*
X178992381Y-53191009D01*
X178992381Y-53191009D02*
X178897143Y-53238628D01*
X178897143Y-53238628D02*
X178516191Y-53238628D01*
X179516191Y-53714819D02*
X179516191Y-52714819D01*
X153147619Y-40924819D02*
X153147619Y-39924819D01*
X153147619Y-39924819D02*
X153480952Y-40639104D01*
X153480952Y-40639104D02*
X153814285Y-39924819D01*
X153814285Y-39924819D02*
X153814285Y-40924819D01*
X154290476Y-40924819D02*
X154290476Y-39924819D01*
X154290476Y-39924819D02*
X154528571Y-39924819D01*
X154528571Y-39924819D02*
X154671428Y-39972438D01*
X154671428Y-39972438D02*
X154766666Y-40067676D01*
X154766666Y-40067676D02*
X154814285Y-40162914D01*
X154814285Y-40162914D02*
X154861904Y-40353390D01*
X154861904Y-40353390D02*
X154861904Y-40496247D01*
X154861904Y-40496247D02*
X154814285Y-40686723D01*
X154814285Y-40686723D02*
X154766666Y-40781961D01*
X154766666Y-40781961D02*
X154671428Y-40877200D01*
X154671428Y-40877200D02*
X154528571Y-40924819D01*
X154528571Y-40924819D02*
X154290476Y-40924819D01*
X155623809Y-40401009D02*
X155766666Y-40448628D01*
X155766666Y-40448628D02*
X155814285Y-40496247D01*
X155814285Y-40496247D02*
X155861904Y-40591485D01*
X155861904Y-40591485D02*
X155861904Y-40734342D01*
X155861904Y-40734342D02*
X155814285Y-40829580D01*
X155814285Y-40829580D02*
X155766666Y-40877200D01*
X155766666Y-40877200D02*
X155671428Y-40924819D01*
X155671428Y-40924819D02*
X155290476Y-40924819D01*
X155290476Y-40924819D02*
X155290476Y-39924819D01*
X155290476Y-39924819D02*
X155623809Y-39924819D01*
X155623809Y-39924819D02*
X155719047Y-39972438D01*
X155719047Y-39972438D02*
X155766666Y-40020057D01*
X155766666Y-40020057D02*
X155814285Y-40115295D01*
X155814285Y-40115295D02*
X155814285Y-40210533D01*
X155814285Y-40210533D02*
X155766666Y-40305771D01*
X155766666Y-40305771D02*
X155719047Y-40353390D01*
X155719047Y-40353390D02*
X155623809Y-40401009D01*
X155623809Y-40401009D02*
X155290476Y-40401009D01*
X156147619Y-39924819D02*
X156719047Y-39924819D01*
X156433333Y-40924819D02*
X156433333Y-39924819D01*
X157480952Y-40258152D02*
X157480952Y-40924819D01*
X157242857Y-39877200D02*
X157004762Y-40591485D01*
X157004762Y-40591485D02*
X157623809Y-40591485D01*
X157957143Y-40020057D02*
X158004762Y-39972438D01*
X158004762Y-39972438D02*
X158100000Y-39924819D01*
X158100000Y-39924819D02*
X158338095Y-39924819D01*
X158338095Y-39924819D02*
X158433333Y-39972438D01*
X158433333Y-39972438D02*
X158480952Y-40020057D01*
X158480952Y-40020057D02*
X158528571Y-40115295D01*
X158528571Y-40115295D02*
X158528571Y-40210533D01*
X158528571Y-40210533D02*
X158480952Y-40353390D01*
X158480952Y-40353390D02*
X157909524Y-40924819D01*
X157909524Y-40924819D02*
X158528571Y-40924819D01*
X158814286Y-39924819D02*
X159385714Y-39924819D01*
X159100000Y-40924819D02*
X159100000Y-39924819D01*
X159719048Y-40543866D02*
X160480953Y-40543866D01*
X160909524Y-40639104D02*
X161385714Y-40639104D01*
X160814286Y-40924819D02*
X161147619Y-39924819D01*
X161147619Y-39924819D02*
X161480952Y-40924819D01*
X161671429Y-39924819D02*
X162242857Y-39924819D01*
X161957143Y-40924819D02*
X161957143Y-39924819D01*
X163100000Y-40924819D02*
X162528572Y-40924819D01*
X162814286Y-40924819D02*
X162814286Y-39924819D01*
X162814286Y-39924819D02*
X162719048Y-40067676D01*
X162719048Y-40067676D02*
X162623810Y-40162914D01*
X162623810Y-40162914D02*
X162528572Y-40210533D01*
X142162438Y-98031904D02*
X142114819Y-98127142D01*
X142114819Y-98127142D02*
X142114819Y-98269999D01*
X142114819Y-98269999D02*
X142162438Y-98412856D01*
X142162438Y-98412856D02*
X142257676Y-98508094D01*
X142257676Y-98508094D02*
X142352914Y-98555713D01*
X142352914Y-98555713D02*
X142543390Y-98603332D01*
X142543390Y-98603332D02*
X142686247Y-98603332D01*
X142686247Y-98603332D02*
X142876723Y-98555713D01*
X142876723Y-98555713D02*
X142971961Y-98508094D01*
X142971961Y-98508094D02*
X143067200Y-98412856D01*
X143067200Y-98412856D02*
X143114819Y-98269999D01*
X143114819Y-98269999D02*
X143114819Y-98174761D01*
X143114819Y-98174761D02*
X143067200Y-98031904D01*
X143067200Y-98031904D02*
X143019580Y-97984285D01*
X143019580Y-97984285D02*
X142686247Y-97984285D01*
X142686247Y-97984285D02*
X142686247Y-98174761D01*
X143114819Y-97555713D02*
X142114819Y-97555713D01*
X142114819Y-97555713D02*
X143114819Y-96984285D01*
X143114819Y-96984285D02*
X142114819Y-96984285D01*
X143114819Y-96508094D02*
X142114819Y-96508094D01*
X142114819Y-96508094D02*
X142114819Y-96269999D01*
X142114819Y-96269999D02*
X142162438Y-96127142D01*
X142162438Y-96127142D02*
X142257676Y-96031904D01*
X142257676Y-96031904D02*
X142352914Y-95984285D01*
X142352914Y-95984285D02*
X142543390Y-95936666D01*
X142543390Y-95936666D02*
X142686247Y-95936666D01*
X142686247Y-95936666D02*
X142876723Y-95984285D01*
X142876723Y-95984285D02*
X142971961Y-96031904D01*
X142971961Y-96031904D02*
X143067200Y-96127142D01*
X143067200Y-96127142D02*
X143114819Y-96269999D01*
X143114819Y-96269999D02*
X143114819Y-96508094D01*
X152659104Y-46068094D02*
X152659104Y-45591904D01*
X152944819Y-46163332D02*
X151944819Y-45829999D01*
X151944819Y-45829999D02*
X152944819Y-45496666D01*
X152944819Y-45163332D02*
X151944819Y-45163332D01*
X151944819Y-45163332D02*
X152944819Y-44591904D01*
X152944819Y-44591904D02*
X151944819Y-44591904D01*
X152040057Y-44163332D02*
X151992438Y-44115713D01*
X151992438Y-44115713D02*
X151944819Y-44020475D01*
X151944819Y-44020475D02*
X151944819Y-43782380D01*
X151944819Y-43782380D02*
X151992438Y-43687142D01*
X151992438Y-43687142D02*
X152040057Y-43639523D01*
X152040057Y-43639523D02*
X152135295Y-43591904D01*
X152135295Y-43591904D02*
X152230533Y-43591904D01*
X152230533Y-43591904D02*
X152373390Y-43639523D01*
X152373390Y-43639523D02*
X152944819Y-44210951D01*
X152944819Y-44210951D02*
X152944819Y-43591904D01*
X119117200Y-46861904D02*
X119164819Y-46719047D01*
X119164819Y-46719047D02*
X119164819Y-46480952D01*
X119164819Y-46480952D02*
X119117200Y-46385714D01*
X119117200Y-46385714D02*
X119069580Y-46338095D01*
X119069580Y-46338095D02*
X118974342Y-46290476D01*
X118974342Y-46290476D02*
X118879104Y-46290476D01*
X118879104Y-46290476D02*
X118783866Y-46338095D01*
X118783866Y-46338095D02*
X118736247Y-46385714D01*
X118736247Y-46385714D02*
X118688628Y-46480952D01*
X118688628Y-46480952D02*
X118641009Y-46671428D01*
X118641009Y-46671428D02*
X118593390Y-46766666D01*
X118593390Y-46766666D02*
X118545771Y-46814285D01*
X118545771Y-46814285D02*
X118450533Y-46861904D01*
X118450533Y-46861904D02*
X118355295Y-46861904D01*
X118355295Y-46861904D02*
X118260057Y-46814285D01*
X118260057Y-46814285D02*
X118212438Y-46766666D01*
X118212438Y-46766666D02*
X118164819Y-46671428D01*
X118164819Y-46671428D02*
X118164819Y-46433333D01*
X118164819Y-46433333D02*
X118212438Y-46290476D01*
X118164819Y-45957142D02*
X119164819Y-45719047D01*
X119164819Y-45719047D02*
X118450533Y-45528571D01*
X118450533Y-45528571D02*
X119164819Y-45338095D01*
X119164819Y-45338095D02*
X118164819Y-45100000D01*
X119069580Y-44147619D02*
X119117200Y-44195238D01*
X119117200Y-44195238D02*
X119164819Y-44338095D01*
X119164819Y-44338095D02*
X119164819Y-44433333D01*
X119164819Y-44433333D02*
X119117200Y-44576190D01*
X119117200Y-44576190D02*
X119021961Y-44671428D01*
X119021961Y-44671428D02*
X118926723Y-44719047D01*
X118926723Y-44719047D02*
X118736247Y-44766666D01*
X118736247Y-44766666D02*
X118593390Y-44766666D01*
X118593390Y-44766666D02*
X118402914Y-44719047D01*
X118402914Y-44719047D02*
X118307676Y-44671428D01*
X118307676Y-44671428D02*
X118212438Y-44576190D01*
X118212438Y-44576190D02*
X118164819Y-44433333D01*
X118164819Y-44433333D02*
X118164819Y-44338095D01*
X118164819Y-44338095D02*
X118212438Y-44195238D01*
X118212438Y-44195238D02*
X118260057Y-44147619D01*
X119164819Y-43242857D02*
X119164819Y-43719047D01*
X119164819Y-43719047D02*
X118164819Y-43719047D01*
X119164819Y-42909523D02*
X118164819Y-42909523D01*
X119164819Y-42338095D02*
X118593390Y-42766666D01*
X118164819Y-42338095D02*
X118736247Y-42909523D01*
X117387619Y-35662228D02*
X117530476Y-35709847D01*
X117530476Y-35709847D02*
X117768571Y-35709847D01*
X117768571Y-35709847D02*
X117863809Y-35662228D01*
X117863809Y-35662228D02*
X117911428Y-35614608D01*
X117911428Y-35614608D02*
X117959047Y-35519370D01*
X117959047Y-35519370D02*
X117959047Y-35424132D01*
X117959047Y-35424132D02*
X117911428Y-35328894D01*
X117911428Y-35328894D02*
X117863809Y-35281275D01*
X117863809Y-35281275D02*
X117768571Y-35233656D01*
X117768571Y-35233656D02*
X117578095Y-35186037D01*
X117578095Y-35186037D02*
X117482857Y-35138418D01*
X117482857Y-35138418D02*
X117435238Y-35090799D01*
X117435238Y-35090799D02*
X117387619Y-34995561D01*
X117387619Y-34995561D02*
X117387619Y-34900323D01*
X117387619Y-34900323D02*
X117435238Y-34805085D01*
X117435238Y-34805085D02*
X117482857Y-34757466D01*
X117482857Y-34757466D02*
X117578095Y-34709847D01*
X117578095Y-34709847D02*
X117816190Y-34709847D01*
X117816190Y-34709847D02*
X117959047Y-34757466D01*
X118244762Y-34709847D02*
X118816190Y-34709847D01*
X118530476Y-35709847D02*
X118530476Y-34709847D01*
X119149524Y-35328894D02*
X119911429Y-35328894D01*
X120863809Y-35709847D02*
X120387619Y-35709847D01*
X120387619Y-35709847D02*
X120387619Y-34709847D01*
X121197143Y-35709847D02*
X121197143Y-34709847D01*
X121673333Y-35709847D02*
X121673333Y-34709847D01*
X121673333Y-34709847D02*
X122244761Y-35709847D01*
X122244761Y-35709847D02*
X122244761Y-34709847D01*
X122720952Y-35709847D02*
X122720952Y-34709847D01*
X123292380Y-35709847D02*
X122863809Y-35138418D01*
X123292380Y-34709847D02*
X122720952Y-35281275D01*
X118649523Y-37700743D02*
X118601904Y-37653124D01*
X118601904Y-37653124D02*
X118506666Y-37510267D01*
X118506666Y-37510267D02*
X118459047Y-37415029D01*
X118459047Y-37415029D02*
X118411428Y-37272172D01*
X118411428Y-37272172D02*
X118363809Y-37034076D01*
X118363809Y-37034076D02*
X118363809Y-36843600D01*
X118363809Y-36843600D02*
X118411428Y-36605505D01*
X118411428Y-36605505D02*
X118459047Y-36462648D01*
X118459047Y-36462648D02*
X118506666Y-36367410D01*
X118506666Y-36367410D02*
X118601904Y-36224552D01*
X118601904Y-36224552D02*
X118649523Y-36176933D01*
X118982857Y-37272172D02*
X119125714Y-37319791D01*
X119125714Y-37319791D02*
X119363809Y-37319791D01*
X119363809Y-37319791D02*
X119459047Y-37272172D01*
X119459047Y-37272172D02*
X119506666Y-37224552D01*
X119506666Y-37224552D02*
X119554285Y-37129314D01*
X119554285Y-37129314D02*
X119554285Y-37034076D01*
X119554285Y-37034076D02*
X119506666Y-36938838D01*
X119506666Y-36938838D02*
X119459047Y-36891219D01*
X119459047Y-36891219D02*
X119363809Y-36843600D01*
X119363809Y-36843600D02*
X119173333Y-36795981D01*
X119173333Y-36795981D02*
X119078095Y-36748362D01*
X119078095Y-36748362D02*
X119030476Y-36700743D01*
X119030476Y-36700743D02*
X118982857Y-36605505D01*
X118982857Y-36605505D02*
X118982857Y-36510267D01*
X118982857Y-36510267D02*
X119030476Y-36415029D01*
X119030476Y-36415029D02*
X119078095Y-36367410D01*
X119078095Y-36367410D02*
X119173333Y-36319791D01*
X119173333Y-36319791D02*
X119411428Y-36319791D01*
X119411428Y-36319791D02*
X119554285Y-36367410D01*
X119887619Y-36319791D02*
X120125714Y-37319791D01*
X120125714Y-37319791D02*
X120316190Y-36605505D01*
X120316190Y-36605505D02*
X120506666Y-37319791D01*
X120506666Y-37319791D02*
X120744762Y-36319791D01*
X121125714Y-37319791D02*
X121125714Y-36319791D01*
X121125714Y-36319791D02*
X121363809Y-36319791D01*
X121363809Y-36319791D02*
X121506666Y-36367410D01*
X121506666Y-36367410D02*
X121601904Y-36462648D01*
X121601904Y-36462648D02*
X121649523Y-36557886D01*
X121649523Y-36557886D02*
X121697142Y-36748362D01*
X121697142Y-36748362D02*
X121697142Y-36891219D01*
X121697142Y-36891219D02*
X121649523Y-37081695D01*
X121649523Y-37081695D02*
X121601904Y-37176933D01*
X121601904Y-37176933D02*
X121506666Y-37272172D01*
X121506666Y-37272172D02*
X121363809Y-37319791D01*
X121363809Y-37319791D02*
X121125714Y-37319791D01*
X122030476Y-37700743D02*
X122078095Y-37653124D01*
X122078095Y-37653124D02*
X122173333Y-37510267D01*
X122173333Y-37510267D02*
X122220952Y-37415029D01*
X122220952Y-37415029D02*
X122268571Y-37272172D01*
X122268571Y-37272172D02*
X122316190Y-37034076D01*
X122316190Y-37034076D02*
X122316190Y-36843600D01*
X122316190Y-36843600D02*
X122268571Y-36605505D01*
X122268571Y-36605505D02*
X122220952Y-36462648D01*
X122220952Y-36462648D02*
X122173333Y-36367410D01*
X122173333Y-36367410D02*
X122078095Y-36224552D01*
X122078095Y-36224552D02*
X122030476Y-36176933D01*
X134484819Y-97930476D02*
X134484819Y-98406666D01*
X134484819Y-98406666D02*
X134961009Y-98454285D01*
X134961009Y-98454285D02*
X134913390Y-98406666D01*
X134913390Y-98406666D02*
X134865771Y-98311428D01*
X134865771Y-98311428D02*
X134865771Y-98073333D01*
X134865771Y-98073333D02*
X134913390Y-97978095D01*
X134913390Y-97978095D02*
X134961009Y-97930476D01*
X134961009Y-97930476D02*
X135056247Y-97882857D01*
X135056247Y-97882857D02*
X135294342Y-97882857D01*
X135294342Y-97882857D02*
X135389580Y-97930476D01*
X135389580Y-97930476D02*
X135437200Y-97978095D01*
X135437200Y-97978095D02*
X135484819Y-98073333D01*
X135484819Y-98073333D02*
X135484819Y-98311428D01*
X135484819Y-98311428D02*
X135437200Y-98406666D01*
X135437200Y-98406666D02*
X135389580Y-98454285D01*
X134484819Y-97597142D02*
X135484819Y-97263809D01*
X135484819Y-97263809D02*
X134484819Y-96930476D01*
X110690476Y-104454819D02*
X110690476Y-103454819D01*
X110690476Y-103454819D02*
X111071428Y-103454819D01*
X111071428Y-103454819D02*
X111166666Y-103502438D01*
X111166666Y-103502438D02*
X111214285Y-103550057D01*
X111214285Y-103550057D02*
X111261904Y-103645295D01*
X111261904Y-103645295D02*
X111261904Y-103788152D01*
X111261904Y-103788152D02*
X111214285Y-103883390D01*
X111214285Y-103883390D02*
X111166666Y-103931009D01*
X111166666Y-103931009D02*
X111071428Y-103978628D01*
X111071428Y-103978628D02*
X110690476Y-103978628D01*
X111880952Y-103454819D02*
X112071428Y-103454819D01*
X112071428Y-103454819D02*
X112166666Y-103502438D01*
X112166666Y-103502438D02*
X112261904Y-103597676D01*
X112261904Y-103597676D02*
X112309523Y-103788152D01*
X112309523Y-103788152D02*
X112309523Y-104121485D01*
X112309523Y-104121485D02*
X112261904Y-104311961D01*
X112261904Y-104311961D02*
X112166666Y-104407200D01*
X112166666Y-104407200D02*
X112071428Y-104454819D01*
X112071428Y-104454819D02*
X111880952Y-104454819D01*
X111880952Y-104454819D02*
X111785714Y-104407200D01*
X111785714Y-104407200D02*
X111690476Y-104311961D01*
X111690476Y-104311961D02*
X111642857Y-104121485D01*
X111642857Y-104121485D02*
X111642857Y-103788152D01*
X111642857Y-103788152D02*
X111690476Y-103597676D01*
X111690476Y-103597676D02*
X111785714Y-103502438D01*
X111785714Y-103502438D02*
X111880952Y-103454819D01*
X112642857Y-103454819D02*
X112880952Y-104454819D01*
X112880952Y-104454819D02*
X113071428Y-103740533D01*
X113071428Y-103740533D02*
X113261904Y-104454819D01*
X113261904Y-104454819D02*
X113500000Y-103454819D01*
X113880952Y-103931009D02*
X114214285Y-103931009D01*
X114357142Y-104454819D02*
X113880952Y-104454819D01*
X113880952Y-104454819D02*
X113880952Y-103454819D01*
X113880952Y-103454819D02*
X114357142Y-103454819D01*
X115357142Y-104454819D02*
X115023809Y-103978628D01*
X114785714Y-104454819D02*
X114785714Y-103454819D01*
X114785714Y-103454819D02*
X115166666Y-103454819D01*
X115166666Y-103454819D02*
X115261904Y-103502438D01*
X115261904Y-103502438D02*
X115309523Y-103550057D01*
X115309523Y-103550057D02*
X115357142Y-103645295D01*
X115357142Y-103645295D02*
X115357142Y-103788152D01*
X115357142Y-103788152D02*
X115309523Y-103883390D01*
X115309523Y-103883390D02*
X115261904Y-103931009D01*
X115261904Y-103931009D02*
X115166666Y-103978628D01*
X115166666Y-103978628D02*
X114785714Y-103978628D01*
X174252380Y-107404819D02*
X173919047Y-106928628D01*
X173680952Y-107404819D02*
X173680952Y-106404819D01*
X173680952Y-106404819D02*
X174061904Y-106404819D01*
X174061904Y-106404819D02*
X174157142Y-106452438D01*
X174157142Y-106452438D02*
X174204761Y-106500057D01*
X174204761Y-106500057D02*
X174252380Y-106595295D01*
X174252380Y-106595295D02*
X174252380Y-106738152D01*
X174252380Y-106738152D02*
X174204761Y-106833390D01*
X174204761Y-106833390D02*
X174157142Y-106881009D01*
X174157142Y-106881009D02*
X174061904Y-106928628D01*
X174061904Y-106928628D02*
X173680952Y-106928628D01*
X175204761Y-106452438D02*
X175109523Y-106404819D01*
X175109523Y-106404819D02*
X174966666Y-106404819D01*
X174966666Y-106404819D02*
X174823809Y-106452438D01*
X174823809Y-106452438D02*
X174728571Y-106547676D01*
X174728571Y-106547676D02*
X174680952Y-106642914D01*
X174680952Y-106642914D02*
X174633333Y-106833390D01*
X174633333Y-106833390D02*
X174633333Y-106976247D01*
X174633333Y-106976247D02*
X174680952Y-107166723D01*
X174680952Y-107166723D02*
X174728571Y-107261961D01*
X174728571Y-107261961D02*
X174823809Y-107357200D01*
X174823809Y-107357200D02*
X174966666Y-107404819D01*
X174966666Y-107404819D02*
X175061904Y-107404819D01*
X175061904Y-107404819D02*
X175204761Y-107357200D01*
X175204761Y-107357200D02*
X175252380Y-107309580D01*
X175252380Y-107309580D02*
X175252380Y-106976247D01*
X175252380Y-106976247D02*
X175061904Y-106976247D01*
X176014285Y-106881009D02*
X176157142Y-106928628D01*
X176157142Y-106928628D02*
X176204761Y-106976247D01*
X176204761Y-106976247D02*
X176252380Y-107071485D01*
X176252380Y-107071485D02*
X176252380Y-107214342D01*
X176252380Y-107214342D02*
X176204761Y-107309580D01*
X176204761Y-107309580D02*
X176157142Y-107357200D01*
X176157142Y-107357200D02*
X176061904Y-107404819D01*
X176061904Y-107404819D02*
X175680952Y-107404819D01*
X175680952Y-107404819D02*
X175680952Y-106404819D01*
X175680952Y-106404819D02*
X176014285Y-106404819D01*
X176014285Y-106404819D02*
X176109523Y-106452438D01*
X176109523Y-106452438D02*
X176157142Y-106500057D01*
X176157142Y-106500057D02*
X176204761Y-106595295D01*
X176204761Y-106595295D02*
X176204761Y-106690533D01*
X176204761Y-106690533D02*
X176157142Y-106785771D01*
X176157142Y-106785771D02*
X176109523Y-106833390D01*
X176109523Y-106833390D02*
X176014285Y-106881009D01*
X176014285Y-106881009D02*
X175680952Y-106881009D01*
X177395238Y-106500057D02*
X177442857Y-106452438D01*
X177442857Y-106452438D02*
X177538095Y-106404819D01*
X177538095Y-106404819D02*
X177776190Y-106404819D01*
X177776190Y-106404819D02*
X177871428Y-106452438D01*
X177871428Y-106452438D02*
X177919047Y-106500057D01*
X177919047Y-106500057D02*
X177966666Y-106595295D01*
X177966666Y-106595295D02*
X177966666Y-106690533D01*
X177966666Y-106690533D02*
X177919047Y-106833390D01*
X177919047Y-106833390D02*
X177347619Y-107404819D01*
X177347619Y-107404819D02*
X177966666Y-107404819D01*
X151799524Y-92601009D02*
X152132857Y-92601009D01*
X152275714Y-93124819D02*
X151799524Y-93124819D01*
X151799524Y-93124819D02*
X151799524Y-92124819D01*
X151799524Y-92124819D02*
X152275714Y-92124819D01*
X152656667Y-92220057D02*
X152704286Y-92172438D01*
X152704286Y-92172438D02*
X152799524Y-92124819D01*
X152799524Y-92124819D02*
X153037619Y-92124819D01*
X153037619Y-92124819D02*
X153132857Y-92172438D01*
X153132857Y-92172438D02*
X153180476Y-92220057D01*
X153180476Y-92220057D02*
X153228095Y-92315295D01*
X153228095Y-92315295D02*
X153228095Y-92410533D01*
X153228095Y-92410533D02*
X153180476Y-92553390D01*
X153180476Y-92553390D02*
X152609048Y-93124819D01*
X152609048Y-93124819D02*
X153228095Y-93124819D01*
X153990000Y-92601009D02*
X154132857Y-92648628D01*
X154132857Y-92648628D02*
X154180476Y-92696247D01*
X154180476Y-92696247D02*
X154228095Y-92791485D01*
X154228095Y-92791485D02*
X154228095Y-92934342D01*
X154228095Y-92934342D02*
X154180476Y-93029580D01*
X154180476Y-93029580D02*
X154132857Y-93077200D01*
X154132857Y-93077200D02*
X154037619Y-93124819D01*
X154037619Y-93124819D02*
X153656667Y-93124819D01*
X153656667Y-93124819D02*
X153656667Y-92124819D01*
X153656667Y-92124819D02*
X153990000Y-92124819D01*
X153990000Y-92124819D02*
X154085238Y-92172438D01*
X154085238Y-92172438D02*
X154132857Y-92220057D01*
X154132857Y-92220057D02*
X154180476Y-92315295D01*
X154180476Y-92315295D02*
X154180476Y-92410533D01*
X154180476Y-92410533D02*
X154132857Y-92505771D01*
X154132857Y-92505771D02*
X154085238Y-92553390D01*
X154085238Y-92553390D02*
X153990000Y-92601009D01*
X153990000Y-92601009D02*
X153656667Y-92601009D01*
X157471009Y-45648571D02*
X157518628Y-45505714D01*
X157518628Y-45505714D02*
X157566247Y-45458095D01*
X157566247Y-45458095D02*
X157661485Y-45410476D01*
X157661485Y-45410476D02*
X157804342Y-45410476D01*
X157804342Y-45410476D02*
X157899580Y-45458095D01*
X157899580Y-45458095D02*
X157947200Y-45505714D01*
X157947200Y-45505714D02*
X157994819Y-45600952D01*
X157994819Y-45600952D02*
X157994819Y-45981904D01*
X157994819Y-45981904D02*
X156994819Y-45981904D01*
X156994819Y-45981904D02*
X156994819Y-45648571D01*
X156994819Y-45648571D02*
X157042438Y-45553333D01*
X157042438Y-45553333D02*
X157090057Y-45505714D01*
X157090057Y-45505714D02*
X157185295Y-45458095D01*
X157185295Y-45458095D02*
X157280533Y-45458095D01*
X157280533Y-45458095D02*
X157375771Y-45505714D01*
X157375771Y-45505714D02*
X157423390Y-45553333D01*
X157423390Y-45553333D02*
X157471009Y-45648571D01*
X157471009Y-45648571D02*
X157471009Y-45981904D01*
X157994819Y-44981904D02*
X156994819Y-44981904D01*
X156994819Y-44981904D02*
X157994819Y-44410476D01*
X157994819Y-44410476D02*
X156994819Y-44410476D01*
X157090057Y-43981904D02*
X157042438Y-43934285D01*
X157042438Y-43934285D02*
X156994819Y-43839047D01*
X156994819Y-43839047D02*
X156994819Y-43600952D01*
X156994819Y-43600952D02*
X157042438Y-43505714D01*
X157042438Y-43505714D02*
X157090057Y-43458095D01*
X157090057Y-43458095D02*
X157185295Y-43410476D01*
X157185295Y-43410476D02*
X157280533Y-43410476D01*
X157280533Y-43410476D02*
X157423390Y-43458095D01*
X157423390Y-43458095D02*
X157994819Y-44029523D01*
X157994819Y-44029523D02*
X157994819Y-43410476D01*
X112844819Y-40373333D02*
X113559104Y-40373333D01*
X113559104Y-40373333D02*
X113701961Y-40420952D01*
X113701961Y-40420952D02*
X113797200Y-40516190D01*
X113797200Y-40516190D02*
X113844819Y-40659047D01*
X113844819Y-40659047D02*
X113844819Y-40754285D01*
X113178152Y-39468571D02*
X113844819Y-39468571D01*
X112797200Y-39706666D02*
X113511485Y-39944761D01*
X113511485Y-39944761D02*
X113511485Y-39325714D01*
X136923333Y-45894819D02*
X136590000Y-45418628D01*
X136351905Y-45894819D02*
X136351905Y-44894819D01*
X136351905Y-44894819D02*
X136732857Y-44894819D01*
X136732857Y-44894819D02*
X136828095Y-44942438D01*
X136828095Y-44942438D02*
X136875714Y-44990057D01*
X136875714Y-44990057D02*
X136923333Y-45085295D01*
X136923333Y-45085295D02*
X136923333Y-45228152D01*
X136923333Y-45228152D02*
X136875714Y-45323390D01*
X136875714Y-45323390D02*
X136828095Y-45371009D01*
X136828095Y-45371009D02*
X136732857Y-45418628D01*
X136732857Y-45418628D02*
X136351905Y-45418628D01*
X137304286Y-44990057D02*
X137351905Y-44942438D01*
X137351905Y-44942438D02*
X137447143Y-44894819D01*
X137447143Y-44894819D02*
X137685238Y-44894819D01*
X137685238Y-44894819D02*
X137780476Y-44942438D01*
X137780476Y-44942438D02*
X137828095Y-44990057D01*
X137828095Y-44990057D02*
X137875714Y-45085295D01*
X137875714Y-45085295D02*
X137875714Y-45180533D01*
X137875714Y-45180533D02*
X137828095Y-45323390D01*
X137828095Y-45323390D02*
X137256667Y-45894819D01*
X137256667Y-45894819D02*
X137875714Y-45894819D01*
X139848095Y-66539819D02*
X139848095Y-67349342D01*
X139848095Y-67349342D02*
X139895714Y-67444580D01*
X139895714Y-67444580D02*
X139943333Y-67492200D01*
X139943333Y-67492200D02*
X140038571Y-67539819D01*
X140038571Y-67539819D02*
X140229047Y-67539819D01*
X140229047Y-67539819D02*
X140324285Y-67492200D01*
X140324285Y-67492200D02*
X140371904Y-67444580D01*
X140371904Y-67444580D02*
X140419523Y-67349342D01*
X140419523Y-67349342D02*
X140419523Y-66539819D01*
X141419523Y-67539819D02*
X140848095Y-67539819D01*
X141133809Y-67539819D02*
X141133809Y-66539819D01*
X141133809Y-66539819D02*
X141038571Y-66682676D01*
X141038571Y-66682676D02*
X140943333Y-66777914D01*
X140943333Y-66777914D02*
X140848095Y-66825533D01*
X121733333Y-80854819D02*
X121400000Y-80378628D01*
X121161905Y-80854819D02*
X121161905Y-79854819D01*
X121161905Y-79854819D02*
X121542857Y-79854819D01*
X121542857Y-79854819D02*
X121638095Y-79902438D01*
X121638095Y-79902438D02*
X121685714Y-79950057D01*
X121685714Y-79950057D02*
X121733333Y-80045295D01*
X121733333Y-80045295D02*
X121733333Y-80188152D01*
X121733333Y-80188152D02*
X121685714Y-80283390D01*
X121685714Y-80283390D02*
X121638095Y-80331009D01*
X121638095Y-80331009D02*
X121542857Y-80378628D01*
X121542857Y-80378628D02*
X121161905Y-80378628D01*
X122209524Y-80854819D02*
X122400000Y-80854819D01*
X122400000Y-80854819D02*
X122495238Y-80807200D01*
X122495238Y-80807200D02*
X122542857Y-80759580D01*
X122542857Y-80759580D02*
X122638095Y-80616723D01*
X122638095Y-80616723D02*
X122685714Y-80426247D01*
X122685714Y-80426247D02*
X122685714Y-80045295D01*
X122685714Y-80045295D02*
X122638095Y-79950057D01*
X122638095Y-79950057D02*
X122590476Y-79902438D01*
X122590476Y-79902438D02*
X122495238Y-79854819D01*
X122495238Y-79854819D02*
X122304762Y-79854819D01*
X122304762Y-79854819D02*
X122209524Y-79902438D01*
X122209524Y-79902438D02*
X122161905Y-79950057D01*
X122161905Y-79950057D02*
X122114286Y-80045295D01*
X122114286Y-80045295D02*
X122114286Y-80283390D01*
X122114286Y-80283390D02*
X122161905Y-80378628D01*
X122161905Y-80378628D02*
X122209524Y-80426247D01*
X122209524Y-80426247D02*
X122304762Y-80473866D01*
X122304762Y-80473866D02*
X122495238Y-80473866D01*
X122495238Y-80473866D02*
X122590476Y-80426247D01*
X122590476Y-80426247D02*
X122638095Y-80378628D01*
X122638095Y-80378628D02*
X122685714Y-80283390D01*
X140423333Y-45914819D02*
X140090000Y-45438628D01*
X139851905Y-45914819D02*
X139851905Y-44914819D01*
X139851905Y-44914819D02*
X140232857Y-44914819D01*
X140232857Y-44914819D02*
X140328095Y-44962438D01*
X140328095Y-44962438D02*
X140375714Y-45010057D01*
X140375714Y-45010057D02*
X140423333Y-45105295D01*
X140423333Y-45105295D02*
X140423333Y-45248152D01*
X140423333Y-45248152D02*
X140375714Y-45343390D01*
X140375714Y-45343390D02*
X140328095Y-45391009D01*
X140328095Y-45391009D02*
X140232857Y-45438628D01*
X140232857Y-45438628D02*
X139851905Y-45438628D01*
X140756667Y-44914819D02*
X141375714Y-44914819D01*
X141375714Y-44914819D02*
X141042381Y-45295771D01*
X141042381Y-45295771D02*
X141185238Y-45295771D01*
X141185238Y-45295771D02*
X141280476Y-45343390D01*
X141280476Y-45343390D02*
X141328095Y-45391009D01*
X141328095Y-45391009D02*
X141375714Y-45486247D01*
X141375714Y-45486247D02*
X141375714Y-45724342D01*
X141375714Y-45724342D02*
X141328095Y-45819580D01*
X141328095Y-45819580D02*
X141280476Y-45867200D01*
X141280476Y-45867200D02*
X141185238Y-45914819D01*
X141185238Y-45914819D02*
X140899524Y-45914819D01*
X140899524Y-45914819D02*
X140804286Y-45867200D01*
X140804286Y-45867200D02*
X140756667Y-45819580D01*
X97594642Y-95829580D02*
X97547023Y-95877200D01*
X97547023Y-95877200D02*
X97404166Y-95924819D01*
X97404166Y-95924819D02*
X97308928Y-95924819D01*
X97308928Y-95924819D02*
X97166071Y-95877200D01*
X97166071Y-95877200D02*
X97070833Y-95781961D01*
X97070833Y-95781961D02*
X97023214Y-95686723D01*
X97023214Y-95686723D02*
X96975595Y-95496247D01*
X96975595Y-95496247D02*
X96975595Y-95353390D01*
X96975595Y-95353390D02*
X97023214Y-95162914D01*
X97023214Y-95162914D02*
X97070833Y-95067676D01*
X97070833Y-95067676D02*
X97166071Y-94972438D01*
X97166071Y-94972438D02*
X97308928Y-94924819D01*
X97308928Y-94924819D02*
X97404166Y-94924819D01*
X97404166Y-94924819D02*
X97547023Y-94972438D01*
X97547023Y-94972438D02*
X97594642Y-95020057D01*
X98547023Y-95924819D02*
X97975595Y-95924819D01*
X98261309Y-95924819D02*
X98261309Y-94924819D01*
X98261309Y-94924819D02*
X98166071Y-95067676D01*
X98166071Y-95067676D02*
X98070833Y-95162914D01*
X98070833Y-95162914D02*
X97975595Y-95210533D01*
X98927976Y-95020057D02*
X98975595Y-94972438D01*
X98975595Y-94972438D02*
X99070833Y-94924819D01*
X99070833Y-94924819D02*
X99308928Y-94924819D01*
X99308928Y-94924819D02*
X99404166Y-94972438D01*
X99404166Y-94972438D02*
X99451785Y-95020057D01*
X99451785Y-95020057D02*
X99499404Y-95115295D01*
X99499404Y-95115295D02*
X99499404Y-95210533D01*
X99499404Y-95210533D02*
X99451785Y-95353390D01*
X99451785Y-95353390D02*
X98880357Y-95924819D01*
X98880357Y-95924819D02*
X99499404Y-95924819D01*
X123216666Y-100374819D02*
X123216666Y-101089104D01*
X123216666Y-101089104D02*
X123169047Y-101231961D01*
X123169047Y-101231961D02*
X123073809Y-101327200D01*
X123073809Y-101327200D02*
X122930952Y-101374819D01*
X122930952Y-101374819D02*
X122835714Y-101374819D01*
X124121428Y-100374819D02*
X123930952Y-100374819D01*
X123930952Y-100374819D02*
X123835714Y-100422438D01*
X123835714Y-100422438D02*
X123788095Y-100470057D01*
X123788095Y-100470057D02*
X123692857Y-100612914D01*
X123692857Y-100612914D02*
X123645238Y-100803390D01*
X123645238Y-100803390D02*
X123645238Y-101184342D01*
X123645238Y-101184342D02*
X123692857Y-101279580D01*
X123692857Y-101279580D02*
X123740476Y-101327200D01*
X123740476Y-101327200D02*
X123835714Y-101374819D01*
X123835714Y-101374819D02*
X124026190Y-101374819D01*
X124026190Y-101374819D02*
X124121428Y-101327200D01*
X124121428Y-101327200D02*
X124169047Y-101279580D01*
X124169047Y-101279580D02*
X124216666Y-101184342D01*
X124216666Y-101184342D02*
X124216666Y-100946247D01*
X124216666Y-100946247D02*
X124169047Y-100851009D01*
X124169047Y-100851009D02*
X124121428Y-100803390D01*
X124121428Y-100803390D02*
X124026190Y-100755771D01*
X124026190Y-100755771D02*
X123835714Y-100755771D01*
X123835714Y-100755771D02*
X123740476Y-100803390D01*
X123740476Y-100803390D02*
X123692857Y-100851009D01*
X123692857Y-100851009D02*
X123645238Y-100946247D01*
X178146666Y-31054819D02*
X178146666Y-31769104D01*
X178146666Y-31769104D02*
X178099047Y-31911961D01*
X178099047Y-31911961D02*
X178003809Y-32007200D01*
X178003809Y-32007200D02*
X177860952Y-32054819D01*
X177860952Y-32054819D02*
X177765714Y-32054819D01*
X178670476Y-32054819D02*
X178860952Y-32054819D01*
X178860952Y-32054819D02*
X178956190Y-32007200D01*
X178956190Y-32007200D02*
X179003809Y-31959580D01*
X179003809Y-31959580D02*
X179099047Y-31816723D01*
X179099047Y-31816723D02*
X179146666Y-31626247D01*
X179146666Y-31626247D02*
X179146666Y-31245295D01*
X179146666Y-31245295D02*
X179099047Y-31150057D01*
X179099047Y-31150057D02*
X179051428Y-31102438D01*
X179051428Y-31102438D02*
X178956190Y-31054819D01*
X178956190Y-31054819D02*
X178765714Y-31054819D01*
X178765714Y-31054819D02*
X178670476Y-31102438D01*
X178670476Y-31102438D02*
X178622857Y-31150057D01*
X178622857Y-31150057D02*
X178575238Y-31245295D01*
X178575238Y-31245295D02*
X178575238Y-31483390D01*
X178575238Y-31483390D02*
X178622857Y-31578628D01*
X178622857Y-31578628D02*
X178670476Y-31626247D01*
X178670476Y-31626247D02*
X178765714Y-31673866D01*
X178765714Y-31673866D02*
X178956190Y-31673866D01*
X178956190Y-31673866D02*
X179051428Y-31626247D01*
X179051428Y-31626247D02*
X179099047Y-31578628D01*
X179099047Y-31578628D02*
X179146666Y-31483390D01*
X156504819Y-94833333D02*
X157219104Y-94833333D01*
X157219104Y-94833333D02*
X157361961Y-94880952D01*
X157361961Y-94880952D02*
X157457200Y-94976190D01*
X157457200Y-94976190D02*
X157504819Y-95119047D01*
X157504819Y-95119047D02*
X157504819Y-95214285D01*
X156933390Y-94214285D02*
X156885771Y-94309523D01*
X156885771Y-94309523D02*
X156838152Y-94357142D01*
X156838152Y-94357142D02*
X156742914Y-94404761D01*
X156742914Y-94404761D02*
X156695295Y-94404761D01*
X156695295Y-94404761D02*
X156600057Y-94357142D01*
X156600057Y-94357142D02*
X156552438Y-94309523D01*
X156552438Y-94309523D02*
X156504819Y-94214285D01*
X156504819Y-94214285D02*
X156504819Y-94023809D01*
X156504819Y-94023809D02*
X156552438Y-93928571D01*
X156552438Y-93928571D02*
X156600057Y-93880952D01*
X156600057Y-93880952D02*
X156695295Y-93833333D01*
X156695295Y-93833333D02*
X156742914Y-93833333D01*
X156742914Y-93833333D02*
X156838152Y-93880952D01*
X156838152Y-93880952D02*
X156885771Y-93928571D01*
X156885771Y-93928571D02*
X156933390Y-94023809D01*
X156933390Y-94023809D02*
X156933390Y-94214285D01*
X156933390Y-94214285D02*
X156981009Y-94309523D01*
X156981009Y-94309523D02*
X157028628Y-94357142D01*
X157028628Y-94357142D02*
X157123866Y-94404761D01*
X157123866Y-94404761D02*
X157314342Y-94404761D01*
X157314342Y-94404761D02*
X157409580Y-94357142D01*
X157409580Y-94357142D02*
X157457200Y-94309523D01*
X157457200Y-94309523D02*
X157504819Y-94214285D01*
X157504819Y-94214285D02*
X157504819Y-94023809D01*
X157504819Y-94023809D02*
X157457200Y-93928571D01*
X157457200Y-93928571D02*
X157409580Y-93880952D01*
X157409580Y-93880952D02*
X157314342Y-93833333D01*
X157314342Y-93833333D02*
X157123866Y-93833333D01*
X157123866Y-93833333D02*
X157028628Y-93880952D01*
X157028628Y-93880952D02*
X156981009Y-93928571D01*
X156981009Y-93928571D02*
X156933390Y-94023809D01*
X176146666Y-81974819D02*
X176146666Y-82689104D01*
X176146666Y-82689104D02*
X176099047Y-82831961D01*
X176099047Y-82831961D02*
X176003809Y-82927200D01*
X176003809Y-82927200D02*
X175860952Y-82974819D01*
X175860952Y-82974819D02*
X175765714Y-82974819D01*
X176575238Y-82070057D02*
X176622857Y-82022438D01*
X176622857Y-82022438D02*
X176718095Y-81974819D01*
X176718095Y-81974819D02*
X176956190Y-81974819D01*
X176956190Y-81974819D02*
X177051428Y-82022438D01*
X177051428Y-82022438D02*
X177099047Y-82070057D01*
X177099047Y-82070057D02*
X177146666Y-82165295D01*
X177146666Y-82165295D02*
X177146666Y-82260533D01*
X177146666Y-82260533D02*
X177099047Y-82403390D01*
X177099047Y-82403390D02*
X176527619Y-82974819D01*
X176527619Y-82974819D02*
X177146666Y-82974819D01*
X145701905Y-31969819D02*
X145701905Y-30969819D01*
X145701905Y-30969819D02*
X145940000Y-30969819D01*
X145940000Y-30969819D02*
X146082857Y-31017438D01*
X146082857Y-31017438D02*
X146178095Y-31112676D01*
X146178095Y-31112676D02*
X146225714Y-31207914D01*
X146225714Y-31207914D02*
X146273333Y-31398390D01*
X146273333Y-31398390D02*
X146273333Y-31541247D01*
X146273333Y-31541247D02*
X146225714Y-31731723D01*
X146225714Y-31731723D02*
X146178095Y-31826961D01*
X146178095Y-31826961D02*
X146082857Y-31922200D01*
X146082857Y-31922200D02*
X145940000Y-31969819D01*
X145940000Y-31969819D02*
X145701905Y-31969819D01*
X147130476Y-31303152D02*
X147130476Y-31969819D01*
X146892381Y-30922200D02*
X146654286Y-31636485D01*
X146654286Y-31636485D02*
X147273333Y-31636485D01*
X125004761Y-80900057D02*
X124909523Y-80852438D01*
X124909523Y-80852438D02*
X124814285Y-80757200D01*
X124814285Y-80757200D02*
X124671428Y-80614342D01*
X124671428Y-80614342D02*
X124576190Y-80566723D01*
X124576190Y-80566723D02*
X124480952Y-80566723D01*
X124528571Y-80804819D02*
X124433333Y-80757200D01*
X124433333Y-80757200D02*
X124338095Y-80661961D01*
X124338095Y-80661961D02*
X124290476Y-80471485D01*
X124290476Y-80471485D02*
X124290476Y-80138152D01*
X124290476Y-80138152D02*
X124338095Y-79947676D01*
X124338095Y-79947676D02*
X124433333Y-79852438D01*
X124433333Y-79852438D02*
X124528571Y-79804819D01*
X124528571Y-79804819D02*
X124719047Y-79804819D01*
X124719047Y-79804819D02*
X124814285Y-79852438D01*
X124814285Y-79852438D02*
X124909523Y-79947676D01*
X124909523Y-79947676D02*
X124957142Y-80138152D01*
X124957142Y-80138152D02*
X124957142Y-80471485D01*
X124957142Y-80471485D02*
X124909523Y-80661961D01*
X124909523Y-80661961D02*
X124814285Y-80757200D01*
X124814285Y-80757200D02*
X124719047Y-80804819D01*
X124719047Y-80804819D02*
X124528571Y-80804819D01*
X125909523Y-80804819D02*
X125338095Y-80804819D01*
X125623809Y-80804819D02*
X125623809Y-79804819D01*
X125623809Y-79804819D02*
X125528571Y-79947676D01*
X125528571Y-79947676D02*
X125433333Y-80042914D01*
X125433333Y-80042914D02*
X125338095Y-80090533D01*
X130611905Y-81204819D02*
X130611905Y-80204819D01*
X130611905Y-80204819D02*
X130850000Y-80204819D01*
X130850000Y-80204819D02*
X130992857Y-80252438D01*
X130992857Y-80252438D02*
X131088095Y-80347676D01*
X131088095Y-80347676D02*
X131135714Y-80442914D01*
X131135714Y-80442914D02*
X131183333Y-80633390D01*
X131183333Y-80633390D02*
X131183333Y-80776247D01*
X131183333Y-80776247D02*
X131135714Y-80966723D01*
X131135714Y-80966723D02*
X131088095Y-81061961D01*
X131088095Y-81061961D02*
X130992857Y-81157200D01*
X130992857Y-81157200D02*
X130850000Y-81204819D01*
X130850000Y-81204819D02*
X130611905Y-81204819D01*
X131516667Y-80204819D02*
X132135714Y-80204819D01*
X132135714Y-80204819D02*
X131802381Y-80585771D01*
X131802381Y-80585771D02*
X131945238Y-80585771D01*
X131945238Y-80585771D02*
X132040476Y-80633390D01*
X132040476Y-80633390D02*
X132088095Y-80681009D01*
X132088095Y-80681009D02*
X132135714Y-80776247D01*
X132135714Y-80776247D02*
X132135714Y-81014342D01*
X132135714Y-81014342D02*
X132088095Y-81109580D01*
X132088095Y-81109580D02*
X132040476Y-81157200D01*
X132040476Y-81157200D02*
X131945238Y-81204819D01*
X131945238Y-81204819D02*
X131659524Y-81204819D01*
X131659524Y-81204819D02*
X131564286Y-81157200D01*
X131564286Y-81157200D02*
X131516667Y-81109580D01*
X149340833Y-81994819D02*
X149007500Y-81518628D01*
X148769405Y-81994819D02*
X148769405Y-80994819D01*
X148769405Y-80994819D02*
X149150357Y-80994819D01*
X149150357Y-80994819D02*
X149245595Y-81042438D01*
X149245595Y-81042438D02*
X149293214Y-81090057D01*
X149293214Y-81090057D02*
X149340833Y-81185295D01*
X149340833Y-81185295D02*
X149340833Y-81328152D01*
X149340833Y-81328152D02*
X149293214Y-81423390D01*
X149293214Y-81423390D02*
X149245595Y-81471009D01*
X149245595Y-81471009D02*
X149150357Y-81518628D01*
X149150357Y-81518628D02*
X148769405Y-81518628D01*
X150245595Y-80994819D02*
X149769405Y-80994819D01*
X149769405Y-80994819D02*
X149721786Y-81471009D01*
X149721786Y-81471009D02*
X149769405Y-81423390D01*
X149769405Y-81423390D02*
X149864643Y-81375771D01*
X149864643Y-81375771D02*
X150102738Y-81375771D01*
X150102738Y-81375771D02*
X150197976Y-81423390D01*
X150197976Y-81423390D02*
X150245595Y-81471009D01*
X150245595Y-81471009D02*
X150293214Y-81566247D01*
X150293214Y-81566247D02*
X150293214Y-81804342D01*
X150293214Y-81804342D02*
X150245595Y-81899580D01*
X150245595Y-81899580D02*
X150197976Y-81947200D01*
X150197976Y-81947200D02*
X150102738Y-81994819D01*
X150102738Y-81994819D02*
X149864643Y-81994819D01*
X149864643Y-81994819D02*
X149769405Y-81947200D01*
X149769405Y-81947200D02*
X149721786Y-81899580D01*
D11*
X97928809Y-102874318D02*
X97324047Y-102874318D01*
X97324047Y-102874318D02*
X97324047Y-101604318D01*
X98352142Y-102209080D02*
X98775476Y-102209080D01*
X98956904Y-102874318D02*
X98352142Y-102874318D01*
X98352142Y-102874318D02*
X98352142Y-101604318D01*
X98352142Y-101604318D02*
X98956904Y-101604318D01*
X99501190Y-102874318D02*
X99501190Y-101604318D01*
X99501190Y-101604318D02*
X99803571Y-101604318D01*
X99803571Y-101604318D02*
X99985000Y-101664794D01*
X99985000Y-101664794D02*
X100105952Y-101785746D01*
X100105952Y-101785746D02*
X100166429Y-101906699D01*
X100166429Y-101906699D02*
X100226905Y-102148603D01*
X100226905Y-102148603D02*
X100226905Y-102330032D01*
X100226905Y-102330032D02*
X100166429Y-102571937D01*
X100166429Y-102571937D02*
X100105952Y-102692889D01*
X100105952Y-102692889D02*
X99985000Y-102813842D01*
X99985000Y-102813842D02*
X99803571Y-102874318D01*
X99803571Y-102874318D02*
X99501190Y-102874318D01*
X101436429Y-102874318D02*
X100710714Y-102874318D01*
X101073571Y-102874318D02*
X101073571Y-101604318D01*
X101073571Y-101604318D02*
X100952619Y-101785746D01*
X100952619Y-101785746D02*
X100831667Y-101906699D01*
X100831667Y-101906699D02*
X100710714Y-101967175D01*
D10*
X142436666Y-43931009D02*
X142103333Y-43931009D01*
X142103333Y-44454819D02*
X142103333Y-43454819D01*
X142103333Y-43454819D02*
X142579523Y-43454819D01*
X143484285Y-44454819D02*
X142912857Y-44454819D01*
X143198571Y-44454819D02*
X143198571Y-43454819D01*
X143198571Y-43454819D02*
X143103333Y-43597676D01*
X143103333Y-43597676D02*
X143008095Y-43692914D01*
X143008095Y-43692914D02*
X142912857Y-43740533D01*
X135783333Y-78059580D02*
X135735714Y-78107200D01*
X135735714Y-78107200D02*
X135592857Y-78154819D01*
X135592857Y-78154819D02*
X135497619Y-78154819D01*
X135497619Y-78154819D02*
X135354762Y-78107200D01*
X135354762Y-78107200D02*
X135259524Y-78011961D01*
X135259524Y-78011961D02*
X135211905Y-77916723D01*
X135211905Y-77916723D02*
X135164286Y-77726247D01*
X135164286Y-77726247D02*
X135164286Y-77583390D01*
X135164286Y-77583390D02*
X135211905Y-77392914D01*
X135211905Y-77392914D02*
X135259524Y-77297676D01*
X135259524Y-77297676D02*
X135354762Y-77202438D01*
X135354762Y-77202438D02*
X135497619Y-77154819D01*
X135497619Y-77154819D02*
X135592857Y-77154819D01*
X135592857Y-77154819D02*
X135735714Y-77202438D01*
X135735714Y-77202438D02*
X135783333Y-77250057D01*
X136259524Y-78154819D02*
X136450000Y-78154819D01*
X136450000Y-78154819D02*
X136545238Y-78107200D01*
X136545238Y-78107200D02*
X136592857Y-78059580D01*
X136592857Y-78059580D02*
X136688095Y-77916723D01*
X136688095Y-77916723D02*
X136735714Y-77726247D01*
X136735714Y-77726247D02*
X136735714Y-77345295D01*
X136735714Y-77345295D02*
X136688095Y-77250057D01*
X136688095Y-77250057D02*
X136640476Y-77202438D01*
X136640476Y-77202438D02*
X136545238Y-77154819D01*
X136545238Y-77154819D02*
X136354762Y-77154819D01*
X136354762Y-77154819D02*
X136259524Y-77202438D01*
X136259524Y-77202438D02*
X136211905Y-77250057D01*
X136211905Y-77250057D02*
X136164286Y-77345295D01*
X136164286Y-77345295D02*
X136164286Y-77583390D01*
X136164286Y-77583390D02*
X136211905Y-77678628D01*
X136211905Y-77678628D02*
X136259524Y-77726247D01*
X136259524Y-77726247D02*
X136354762Y-77773866D01*
X136354762Y-77773866D02*
X136545238Y-77773866D01*
X136545238Y-77773866D02*
X136640476Y-77726247D01*
X136640476Y-77726247D02*
X136688095Y-77678628D01*
X136688095Y-77678628D02*
X136735714Y-77583390D01*
X127507142Y-80804819D02*
X127173809Y-80328628D01*
X126935714Y-80804819D02*
X126935714Y-79804819D01*
X126935714Y-79804819D02*
X127316666Y-79804819D01*
X127316666Y-79804819D02*
X127411904Y-79852438D01*
X127411904Y-79852438D02*
X127459523Y-79900057D01*
X127459523Y-79900057D02*
X127507142Y-79995295D01*
X127507142Y-79995295D02*
X127507142Y-80138152D01*
X127507142Y-80138152D02*
X127459523Y-80233390D01*
X127459523Y-80233390D02*
X127411904Y-80281009D01*
X127411904Y-80281009D02*
X127316666Y-80328628D01*
X127316666Y-80328628D02*
X126935714Y-80328628D01*
X128459523Y-80804819D02*
X127888095Y-80804819D01*
X128173809Y-80804819D02*
X128173809Y-79804819D01*
X128173809Y-79804819D02*
X128078571Y-79947676D01*
X128078571Y-79947676D02*
X127983333Y-80042914D01*
X127983333Y-80042914D02*
X127888095Y-80090533D01*
X129078571Y-79804819D02*
X129173809Y-79804819D01*
X129173809Y-79804819D02*
X129269047Y-79852438D01*
X129269047Y-79852438D02*
X129316666Y-79900057D01*
X129316666Y-79900057D02*
X129364285Y-79995295D01*
X129364285Y-79995295D02*
X129411904Y-80185771D01*
X129411904Y-80185771D02*
X129411904Y-80423866D01*
X129411904Y-80423866D02*
X129364285Y-80614342D01*
X129364285Y-80614342D02*
X129316666Y-80709580D01*
X129316666Y-80709580D02*
X129269047Y-80757200D01*
X129269047Y-80757200D02*
X129173809Y-80804819D01*
X129173809Y-80804819D02*
X129078571Y-80804819D01*
X129078571Y-80804819D02*
X128983333Y-80757200D01*
X128983333Y-80757200D02*
X128935714Y-80709580D01*
X128935714Y-80709580D02*
X128888095Y-80614342D01*
X128888095Y-80614342D02*
X128840476Y-80423866D01*
X128840476Y-80423866D02*
X128840476Y-80185771D01*
X128840476Y-80185771D02*
X128888095Y-79995295D01*
X128888095Y-79995295D02*
X128935714Y-79900057D01*
X128935714Y-79900057D02*
X128983333Y-79852438D01*
X128983333Y-79852438D02*
X129078571Y-79804819D01*
X172883333Y-85414819D02*
X172550000Y-84938628D01*
X172311905Y-85414819D02*
X172311905Y-84414819D01*
X172311905Y-84414819D02*
X172692857Y-84414819D01*
X172692857Y-84414819D02*
X172788095Y-84462438D01*
X172788095Y-84462438D02*
X172835714Y-84510057D01*
X172835714Y-84510057D02*
X172883333Y-84605295D01*
X172883333Y-84605295D02*
X172883333Y-84748152D01*
X172883333Y-84748152D02*
X172835714Y-84843390D01*
X172835714Y-84843390D02*
X172788095Y-84891009D01*
X172788095Y-84891009D02*
X172692857Y-84938628D01*
X172692857Y-84938628D02*
X172311905Y-84938628D01*
X173454762Y-84843390D02*
X173359524Y-84795771D01*
X173359524Y-84795771D02*
X173311905Y-84748152D01*
X173311905Y-84748152D02*
X173264286Y-84652914D01*
X173264286Y-84652914D02*
X173264286Y-84605295D01*
X173264286Y-84605295D02*
X173311905Y-84510057D01*
X173311905Y-84510057D02*
X173359524Y-84462438D01*
X173359524Y-84462438D02*
X173454762Y-84414819D01*
X173454762Y-84414819D02*
X173645238Y-84414819D01*
X173645238Y-84414819D02*
X173740476Y-84462438D01*
X173740476Y-84462438D02*
X173788095Y-84510057D01*
X173788095Y-84510057D02*
X173835714Y-84605295D01*
X173835714Y-84605295D02*
X173835714Y-84652914D01*
X173835714Y-84652914D02*
X173788095Y-84748152D01*
X173788095Y-84748152D02*
X173740476Y-84795771D01*
X173740476Y-84795771D02*
X173645238Y-84843390D01*
X173645238Y-84843390D02*
X173454762Y-84843390D01*
X173454762Y-84843390D02*
X173359524Y-84891009D01*
X173359524Y-84891009D02*
X173311905Y-84938628D01*
X173311905Y-84938628D02*
X173264286Y-85033866D01*
X173264286Y-85033866D02*
X173264286Y-85224342D01*
X173264286Y-85224342D02*
X173311905Y-85319580D01*
X173311905Y-85319580D02*
X173359524Y-85367200D01*
X173359524Y-85367200D02*
X173454762Y-85414819D01*
X173454762Y-85414819D02*
X173645238Y-85414819D01*
X173645238Y-85414819D02*
X173740476Y-85367200D01*
X173740476Y-85367200D02*
X173788095Y-85319580D01*
X173788095Y-85319580D02*
X173835714Y-85224342D01*
X173835714Y-85224342D02*
X173835714Y-85033866D01*
X173835714Y-85033866D02*
X173788095Y-84938628D01*
X173788095Y-84938628D02*
X173740476Y-84891009D01*
X173740476Y-84891009D02*
X173645238Y-84843390D01*
X96284819Y-50829523D02*
X96999104Y-50829523D01*
X96999104Y-50829523D02*
X97141961Y-50877142D01*
X97141961Y-50877142D02*
X97237200Y-50972380D01*
X97237200Y-50972380D02*
X97284819Y-51115237D01*
X97284819Y-51115237D02*
X97284819Y-51210475D01*
X97284819Y-49829523D02*
X97284819Y-50400951D01*
X97284819Y-50115237D02*
X96284819Y-50115237D01*
X96284819Y-50115237D02*
X96427676Y-50210475D01*
X96427676Y-50210475D02*
X96522914Y-50305713D01*
X96522914Y-50305713D02*
X96570533Y-50400951D01*
X97284819Y-48877142D02*
X97284819Y-49448570D01*
X97284819Y-49162856D02*
X96284819Y-49162856D01*
X96284819Y-49162856D02*
X96427676Y-49258094D01*
X96427676Y-49258094D02*
X96522914Y-49353332D01*
X96522914Y-49353332D02*
X96570533Y-49448570D01*
X134773333Y-58799580D02*
X134725714Y-58847200D01*
X134725714Y-58847200D02*
X134582857Y-58894819D01*
X134582857Y-58894819D02*
X134487619Y-58894819D01*
X134487619Y-58894819D02*
X134344762Y-58847200D01*
X134344762Y-58847200D02*
X134249524Y-58751961D01*
X134249524Y-58751961D02*
X134201905Y-58656723D01*
X134201905Y-58656723D02*
X134154286Y-58466247D01*
X134154286Y-58466247D02*
X134154286Y-58323390D01*
X134154286Y-58323390D02*
X134201905Y-58132914D01*
X134201905Y-58132914D02*
X134249524Y-58037676D01*
X134249524Y-58037676D02*
X134344762Y-57942438D01*
X134344762Y-57942438D02*
X134487619Y-57894819D01*
X134487619Y-57894819D02*
X134582857Y-57894819D01*
X134582857Y-57894819D02*
X134725714Y-57942438D01*
X134725714Y-57942438D02*
X134773333Y-57990057D01*
X135154286Y-57990057D02*
X135201905Y-57942438D01*
X135201905Y-57942438D02*
X135297143Y-57894819D01*
X135297143Y-57894819D02*
X135535238Y-57894819D01*
X135535238Y-57894819D02*
X135630476Y-57942438D01*
X135630476Y-57942438D02*
X135678095Y-57990057D01*
X135678095Y-57990057D02*
X135725714Y-58085295D01*
X135725714Y-58085295D02*
X135725714Y-58180533D01*
X135725714Y-58180533D02*
X135678095Y-58323390D01*
X135678095Y-58323390D02*
X135106667Y-58894819D01*
X135106667Y-58894819D02*
X135725714Y-58894819D01*
X133333333Y-81154819D02*
X133000000Y-80678628D01*
X132761905Y-81154819D02*
X132761905Y-80154819D01*
X132761905Y-80154819D02*
X133142857Y-80154819D01*
X133142857Y-80154819D02*
X133238095Y-80202438D01*
X133238095Y-80202438D02*
X133285714Y-80250057D01*
X133285714Y-80250057D02*
X133333333Y-80345295D01*
X133333333Y-80345295D02*
X133333333Y-80488152D01*
X133333333Y-80488152D02*
X133285714Y-80583390D01*
X133285714Y-80583390D02*
X133238095Y-80631009D01*
X133238095Y-80631009D02*
X133142857Y-80678628D01*
X133142857Y-80678628D02*
X132761905Y-80678628D01*
X134190476Y-80154819D02*
X134000000Y-80154819D01*
X134000000Y-80154819D02*
X133904762Y-80202438D01*
X133904762Y-80202438D02*
X133857143Y-80250057D01*
X133857143Y-80250057D02*
X133761905Y-80392914D01*
X133761905Y-80392914D02*
X133714286Y-80583390D01*
X133714286Y-80583390D02*
X133714286Y-80964342D01*
X133714286Y-80964342D02*
X133761905Y-81059580D01*
X133761905Y-81059580D02*
X133809524Y-81107200D01*
X133809524Y-81107200D02*
X133904762Y-81154819D01*
X133904762Y-81154819D02*
X134095238Y-81154819D01*
X134095238Y-81154819D02*
X134190476Y-81107200D01*
X134190476Y-81107200D02*
X134238095Y-81059580D01*
X134238095Y-81059580D02*
X134285714Y-80964342D01*
X134285714Y-80964342D02*
X134285714Y-80726247D01*
X134285714Y-80726247D02*
X134238095Y-80631009D01*
X134238095Y-80631009D02*
X134190476Y-80583390D01*
X134190476Y-80583390D02*
X134095238Y-80535771D01*
X134095238Y-80535771D02*
X133904762Y-80535771D01*
X133904762Y-80535771D02*
X133809524Y-80583390D01*
X133809524Y-80583390D02*
X133761905Y-80631009D01*
X133761905Y-80631009D02*
X133714286Y-80726247D01*
X152273333Y-31939819D02*
X151940000Y-31463628D01*
X151701905Y-31939819D02*
X151701905Y-30939819D01*
X151701905Y-30939819D02*
X152082857Y-30939819D01*
X152082857Y-30939819D02*
X152178095Y-30987438D01*
X152178095Y-30987438D02*
X152225714Y-31035057D01*
X152225714Y-31035057D02*
X152273333Y-31130295D01*
X152273333Y-31130295D02*
X152273333Y-31273152D01*
X152273333Y-31273152D02*
X152225714Y-31368390D01*
X152225714Y-31368390D02*
X152178095Y-31416009D01*
X152178095Y-31416009D02*
X152082857Y-31463628D01*
X152082857Y-31463628D02*
X151701905Y-31463628D01*
X152606667Y-30939819D02*
X153273333Y-30939819D01*
X153273333Y-30939819D02*
X152844762Y-31939819D01*
X151033333Y-71259580D02*
X150985714Y-71307200D01*
X150985714Y-71307200D02*
X150842857Y-71354819D01*
X150842857Y-71354819D02*
X150747619Y-71354819D01*
X150747619Y-71354819D02*
X150604762Y-71307200D01*
X150604762Y-71307200D02*
X150509524Y-71211961D01*
X150509524Y-71211961D02*
X150461905Y-71116723D01*
X150461905Y-71116723D02*
X150414286Y-70926247D01*
X150414286Y-70926247D02*
X150414286Y-70783390D01*
X150414286Y-70783390D02*
X150461905Y-70592914D01*
X150461905Y-70592914D02*
X150509524Y-70497676D01*
X150509524Y-70497676D02*
X150604762Y-70402438D01*
X150604762Y-70402438D02*
X150747619Y-70354819D01*
X150747619Y-70354819D02*
X150842857Y-70354819D01*
X150842857Y-70354819D02*
X150985714Y-70402438D01*
X150985714Y-70402438D02*
X151033333Y-70450057D01*
X151890476Y-70688152D02*
X151890476Y-71354819D01*
X151652381Y-70307200D02*
X151414286Y-71021485D01*
X151414286Y-71021485D02*
X152033333Y-71021485D01*
X135338095Y-48054819D02*
X135338095Y-48864342D01*
X135338095Y-48864342D02*
X135385714Y-48959580D01*
X135385714Y-48959580D02*
X135433333Y-49007200D01*
X135433333Y-49007200D02*
X135528571Y-49054819D01*
X135528571Y-49054819D02*
X135719047Y-49054819D01*
X135719047Y-49054819D02*
X135814285Y-49007200D01*
X135814285Y-49007200D02*
X135861904Y-48959580D01*
X135861904Y-48959580D02*
X135909523Y-48864342D01*
X135909523Y-48864342D02*
X135909523Y-48054819D01*
X136338095Y-48150057D02*
X136385714Y-48102438D01*
X136385714Y-48102438D02*
X136480952Y-48054819D01*
X136480952Y-48054819D02*
X136719047Y-48054819D01*
X136719047Y-48054819D02*
X136814285Y-48102438D01*
X136814285Y-48102438D02*
X136861904Y-48150057D01*
X136861904Y-48150057D02*
X136909523Y-48245295D01*
X136909523Y-48245295D02*
X136909523Y-48340533D01*
X136909523Y-48340533D02*
X136861904Y-48483390D01*
X136861904Y-48483390D02*
X136290476Y-49054819D01*
X136290476Y-49054819D02*
X136909523Y-49054819D01*
X149883333Y-76759580D02*
X149835714Y-76807200D01*
X149835714Y-76807200D02*
X149692857Y-76854819D01*
X149692857Y-76854819D02*
X149597619Y-76854819D01*
X149597619Y-76854819D02*
X149454762Y-76807200D01*
X149454762Y-76807200D02*
X149359524Y-76711961D01*
X149359524Y-76711961D02*
X149311905Y-76616723D01*
X149311905Y-76616723D02*
X149264286Y-76426247D01*
X149264286Y-76426247D02*
X149264286Y-76283390D01*
X149264286Y-76283390D02*
X149311905Y-76092914D01*
X149311905Y-76092914D02*
X149359524Y-75997676D01*
X149359524Y-75997676D02*
X149454762Y-75902438D01*
X149454762Y-75902438D02*
X149597619Y-75854819D01*
X149597619Y-75854819D02*
X149692857Y-75854819D01*
X149692857Y-75854819D02*
X149835714Y-75902438D01*
X149835714Y-75902438D02*
X149883333Y-75950057D01*
X150788095Y-75854819D02*
X150311905Y-75854819D01*
X150311905Y-75854819D02*
X150264286Y-76331009D01*
X150264286Y-76331009D02*
X150311905Y-76283390D01*
X150311905Y-76283390D02*
X150407143Y-76235771D01*
X150407143Y-76235771D02*
X150645238Y-76235771D01*
X150645238Y-76235771D02*
X150740476Y-76283390D01*
X150740476Y-76283390D02*
X150788095Y-76331009D01*
X150788095Y-76331009D02*
X150835714Y-76426247D01*
X150835714Y-76426247D02*
X150835714Y-76664342D01*
X150835714Y-76664342D02*
X150788095Y-76759580D01*
X150788095Y-76759580D02*
X150740476Y-76807200D01*
X150740476Y-76807200D02*
X150645238Y-76854819D01*
X150645238Y-76854819D02*
X150407143Y-76854819D01*
X150407143Y-76854819D02*
X150311905Y-76807200D01*
X150311905Y-76807200D02*
X150264286Y-76759580D01*
X131706666Y-100359819D02*
X131706666Y-101074104D01*
X131706666Y-101074104D02*
X131659047Y-101216961D01*
X131659047Y-101216961D02*
X131563809Y-101312200D01*
X131563809Y-101312200D02*
X131420952Y-101359819D01*
X131420952Y-101359819D02*
X131325714Y-101359819D01*
X132087619Y-100359819D02*
X132706666Y-100359819D01*
X132706666Y-100359819D02*
X132373333Y-100740771D01*
X132373333Y-100740771D02*
X132516190Y-100740771D01*
X132516190Y-100740771D02*
X132611428Y-100788390D01*
X132611428Y-100788390D02*
X132659047Y-100836009D01*
X132659047Y-100836009D02*
X132706666Y-100931247D01*
X132706666Y-100931247D02*
X132706666Y-101169342D01*
X132706666Y-101169342D02*
X132659047Y-101264580D01*
X132659047Y-101264580D02*
X132611428Y-101312200D01*
X132611428Y-101312200D02*
X132516190Y-101359819D01*
X132516190Y-101359819D02*
X132230476Y-101359819D01*
X132230476Y-101359819D02*
X132135238Y-101312200D01*
X132135238Y-101312200D02*
X132087619Y-101264580D01*
X155926666Y-50674819D02*
X155926666Y-51389104D01*
X155926666Y-51389104D02*
X155879047Y-51531961D01*
X155879047Y-51531961D02*
X155783809Y-51627200D01*
X155783809Y-51627200D02*
X155640952Y-51674819D01*
X155640952Y-51674819D02*
X155545714Y-51674819D01*
X156307619Y-50674819D02*
X156974285Y-50674819D01*
X156974285Y-50674819D02*
X156545714Y-51674819D01*
X135523809Y-79628628D02*
X135523809Y-80104819D01*
X135190476Y-79104819D02*
X135523809Y-79628628D01*
X135523809Y-79628628D02*
X135857142Y-79104819D01*
X136142857Y-79200057D02*
X136190476Y-79152438D01*
X136190476Y-79152438D02*
X136285714Y-79104819D01*
X136285714Y-79104819D02*
X136523809Y-79104819D01*
X136523809Y-79104819D02*
X136619047Y-79152438D01*
X136619047Y-79152438D02*
X136666666Y-79200057D01*
X136666666Y-79200057D02*
X136714285Y-79295295D01*
X136714285Y-79295295D02*
X136714285Y-79390533D01*
X136714285Y-79390533D02*
X136666666Y-79533390D01*
X136666666Y-79533390D02*
X136095238Y-80104819D01*
X136095238Y-80104819D02*
X136714285Y-80104819D01*
D11*
X135876666Y-84793842D02*
X136058095Y-84854318D01*
X136058095Y-84854318D02*
X136360476Y-84854318D01*
X136360476Y-84854318D02*
X136481428Y-84793842D01*
X136481428Y-84793842D02*
X136541904Y-84733365D01*
X136541904Y-84733365D02*
X136602381Y-84612413D01*
X136602381Y-84612413D02*
X136602381Y-84491461D01*
X136602381Y-84491461D02*
X136541904Y-84370508D01*
X136541904Y-84370508D02*
X136481428Y-84310032D01*
X136481428Y-84310032D02*
X136360476Y-84249556D01*
X136360476Y-84249556D02*
X136118571Y-84189080D01*
X136118571Y-84189080D02*
X135997619Y-84128603D01*
X135997619Y-84128603D02*
X135937142Y-84068127D01*
X135937142Y-84068127D02*
X135876666Y-83947175D01*
X135876666Y-83947175D02*
X135876666Y-83826222D01*
X135876666Y-83826222D02*
X135937142Y-83705270D01*
X135937142Y-83705270D02*
X135997619Y-83644794D01*
X135997619Y-83644794D02*
X136118571Y-83584318D01*
X136118571Y-83584318D02*
X136420952Y-83584318D01*
X136420952Y-83584318D02*
X136602381Y-83644794D01*
X137025714Y-83584318D02*
X137328095Y-84854318D01*
X137328095Y-84854318D02*
X137570000Y-83947175D01*
X137570000Y-83947175D02*
X137811905Y-84854318D01*
X137811905Y-84854318D02*
X138114286Y-83584318D01*
X139263334Y-84854318D02*
X138537619Y-84854318D01*
X138900476Y-84854318D02*
X138900476Y-83584318D01*
X138900476Y-83584318D02*
X138779524Y-83765746D01*
X138779524Y-83765746D02*
X138658572Y-83886699D01*
X138658572Y-83886699D02*
X138537619Y-83947175D01*
D10*
X149833333Y-79039580D02*
X149785714Y-79087200D01*
X149785714Y-79087200D02*
X149642857Y-79134819D01*
X149642857Y-79134819D02*
X149547619Y-79134819D01*
X149547619Y-79134819D02*
X149404762Y-79087200D01*
X149404762Y-79087200D02*
X149309524Y-78991961D01*
X149309524Y-78991961D02*
X149261905Y-78896723D01*
X149261905Y-78896723D02*
X149214286Y-78706247D01*
X149214286Y-78706247D02*
X149214286Y-78563390D01*
X149214286Y-78563390D02*
X149261905Y-78372914D01*
X149261905Y-78372914D02*
X149309524Y-78277676D01*
X149309524Y-78277676D02*
X149404762Y-78182438D01*
X149404762Y-78182438D02*
X149547619Y-78134819D01*
X149547619Y-78134819D02*
X149642857Y-78134819D01*
X149642857Y-78134819D02*
X149785714Y-78182438D01*
X149785714Y-78182438D02*
X149833333Y-78230057D01*
X150690476Y-78134819D02*
X150500000Y-78134819D01*
X150500000Y-78134819D02*
X150404762Y-78182438D01*
X150404762Y-78182438D02*
X150357143Y-78230057D01*
X150357143Y-78230057D02*
X150261905Y-78372914D01*
X150261905Y-78372914D02*
X150214286Y-78563390D01*
X150214286Y-78563390D02*
X150214286Y-78944342D01*
X150214286Y-78944342D02*
X150261905Y-79039580D01*
X150261905Y-79039580D02*
X150309524Y-79087200D01*
X150309524Y-79087200D02*
X150404762Y-79134819D01*
X150404762Y-79134819D02*
X150595238Y-79134819D01*
X150595238Y-79134819D02*
X150690476Y-79087200D01*
X150690476Y-79087200D02*
X150738095Y-79039580D01*
X150738095Y-79039580D02*
X150785714Y-78944342D01*
X150785714Y-78944342D02*
X150785714Y-78706247D01*
X150785714Y-78706247D02*
X150738095Y-78611009D01*
X150738095Y-78611009D02*
X150690476Y-78563390D01*
X150690476Y-78563390D02*
X150595238Y-78515771D01*
X150595238Y-78515771D02*
X150404762Y-78515771D01*
X150404762Y-78515771D02*
X150309524Y-78563390D01*
X150309524Y-78563390D02*
X150261905Y-78611009D01*
X150261905Y-78611009D02*
X150214286Y-78706247D01*
X112666666Y-100279819D02*
X112666666Y-100994104D01*
X112666666Y-100994104D02*
X112619047Y-101136961D01*
X112619047Y-101136961D02*
X112523809Y-101232200D01*
X112523809Y-101232200D02*
X112380952Y-101279819D01*
X112380952Y-101279819D02*
X112285714Y-101279819D01*
X113619047Y-100279819D02*
X113142857Y-100279819D01*
X113142857Y-100279819D02*
X113095238Y-100756009D01*
X113095238Y-100756009D02*
X113142857Y-100708390D01*
X113142857Y-100708390D02*
X113238095Y-100660771D01*
X113238095Y-100660771D02*
X113476190Y-100660771D01*
X113476190Y-100660771D02*
X113571428Y-100708390D01*
X113571428Y-100708390D02*
X113619047Y-100756009D01*
X113619047Y-100756009D02*
X113666666Y-100851247D01*
X113666666Y-100851247D02*
X113666666Y-101089342D01*
X113666666Y-101089342D02*
X113619047Y-101184580D01*
X113619047Y-101184580D02*
X113571428Y-101232200D01*
X113571428Y-101232200D02*
X113476190Y-101279819D01*
X113476190Y-101279819D02*
X113238095Y-101279819D01*
X113238095Y-101279819D02*
X113142857Y-101232200D01*
X113142857Y-101232200D02*
X113095238Y-101184580D01*
X150781905Y-84404819D02*
X150781905Y-83404819D01*
X150781905Y-83404819D02*
X151020000Y-83404819D01*
X151020000Y-83404819D02*
X151162857Y-83452438D01*
X151162857Y-83452438D02*
X151258095Y-83547676D01*
X151258095Y-83547676D02*
X151305714Y-83642914D01*
X151305714Y-83642914D02*
X151353333Y-83833390D01*
X151353333Y-83833390D02*
X151353333Y-83976247D01*
X151353333Y-83976247D02*
X151305714Y-84166723D01*
X151305714Y-84166723D02*
X151258095Y-84261961D01*
X151258095Y-84261961D02*
X151162857Y-84357200D01*
X151162857Y-84357200D02*
X151020000Y-84404819D01*
X151020000Y-84404819D02*
X150781905Y-84404819D01*
X151734286Y-83500057D02*
X151781905Y-83452438D01*
X151781905Y-83452438D02*
X151877143Y-83404819D01*
X151877143Y-83404819D02*
X152115238Y-83404819D01*
X152115238Y-83404819D02*
X152210476Y-83452438D01*
X152210476Y-83452438D02*
X152258095Y-83500057D01*
X152258095Y-83500057D02*
X152305714Y-83595295D01*
X152305714Y-83595295D02*
X152305714Y-83690533D01*
X152305714Y-83690533D02*
X152258095Y-83833390D01*
X152258095Y-83833390D02*
X151686667Y-84404819D01*
X151686667Y-84404819D02*
X152305714Y-84404819D01*
X130133333Y-73009580D02*
X130085714Y-73057200D01*
X130085714Y-73057200D02*
X129942857Y-73104819D01*
X129942857Y-73104819D02*
X129847619Y-73104819D01*
X129847619Y-73104819D02*
X129704762Y-73057200D01*
X129704762Y-73057200D02*
X129609524Y-72961961D01*
X129609524Y-72961961D02*
X129561905Y-72866723D01*
X129561905Y-72866723D02*
X129514286Y-72676247D01*
X129514286Y-72676247D02*
X129514286Y-72533390D01*
X129514286Y-72533390D02*
X129561905Y-72342914D01*
X129561905Y-72342914D02*
X129609524Y-72247676D01*
X129609524Y-72247676D02*
X129704762Y-72152438D01*
X129704762Y-72152438D02*
X129847619Y-72104819D01*
X129847619Y-72104819D02*
X129942857Y-72104819D01*
X129942857Y-72104819D02*
X130085714Y-72152438D01*
X130085714Y-72152438D02*
X130133333Y-72200057D01*
X131085714Y-73104819D02*
X130514286Y-73104819D01*
X130800000Y-73104819D02*
X130800000Y-72104819D01*
X130800000Y-72104819D02*
X130704762Y-72247676D01*
X130704762Y-72247676D02*
X130609524Y-72342914D01*
X130609524Y-72342914D02*
X130514286Y-72390533D01*
D11*
X174138809Y-102714318D02*
X173534047Y-102714318D01*
X173534047Y-102714318D02*
X173534047Y-101444318D01*
X174562142Y-102049080D02*
X174985476Y-102049080D01*
X175166904Y-102714318D02*
X174562142Y-102714318D01*
X174562142Y-102714318D02*
X174562142Y-101444318D01*
X174562142Y-101444318D02*
X175166904Y-101444318D01*
X175711190Y-102714318D02*
X175711190Y-101444318D01*
X175711190Y-101444318D02*
X176013571Y-101444318D01*
X176013571Y-101444318D02*
X176195000Y-101504794D01*
X176195000Y-101504794D02*
X176315952Y-101625746D01*
X176315952Y-101625746D02*
X176376429Y-101746699D01*
X176376429Y-101746699D02*
X176436905Y-101988603D01*
X176436905Y-101988603D02*
X176436905Y-102170032D01*
X176436905Y-102170032D02*
X176376429Y-102411937D01*
X176376429Y-102411937D02*
X176315952Y-102532889D01*
X176315952Y-102532889D02*
X176195000Y-102653842D01*
X176195000Y-102653842D02*
X176013571Y-102714318D01*
X176013571Y-102714318D02*
X175711190Y-102714318D01*
X176920714Y-101565270D02*
X176981190Y-101504794D01*
X176981190Y-101504794D02*
X177102143Y-101444318D01*
X177102143Y-101444318D02*
X177404524Y-101444318D01*
X177404524Y-101444318D02*
X177525476Y-101504794D01*
X177525476Y-101504794D02*
X177585952Y-101565270D01*
X177585952Y-101565270D02*
X177646429Y-101686222D01*
X177646429Y-101686222D02*
X177646429Y-101807175D01*
X177646429Y-101807175D02*
X177585952Y-101988603D01*
X177585952Y-101988603D02*
X176860238Y-102714318D01*
X176860238Y-102714318D02*
X177646429Y-102714318D01*
D10*
X142033333Y-78709580D02*
X141985714Y-78757200D01*
X141985714Y-78757200D02*
X141842857Y-78804819D01*
X141842857Y-78804819D02*
X141747619Y-78804819D01*
X141747619Y-78804819D02*
X141604762Y-78757200D01*
X141604762Y-78757200D02*
X141509524Y-78661961D01*
X141509524Y-78661961D02*
X141461905Y-78566723D01*
X141461905Y-78566723D02*
X141414286Y-78376247D01*
X141414286Y-78376247D02*
X141414286Y-78233390D01*
X141414286Y-78233390D02*
X141461905Y-78042914D01*
X141461905Y-78042914D02*
X141509524Y-77947676D01*
X141509524Y-77947676D02*
X141604762Y-77852438D01*
X141604762Y-77852438D02*
X141747619Y-77804819D01*
X141747619Y-77804819D02*
X141842857Y-77804819D01*
X141842857Y-77804819D02*
X141985714Y-77852438D01*
X141985714Y-77852438D02*
X142033333Y-77900057D01*
X142604762Y-78233390D02*
X142509524Y-78185771D01*
X142509524Y-78185771D02*
X142461905Y-78138152D01*
X142461905Y-78138152D02*
X142414286Y-78042914D01*
X142414286Y-78042914D02*
X142414286Y-77995295D01*
X142414286Y-77995295D02*
X142461905Y-77900057D01*
X142461905Y-77900057D02*
X142509524Y-77852438D01*
X142509524Y-77852438D02*
X142604762Y-77804819D01*
X142604762Y-77804819D02*
X142795238Y-77804819D01*
X142795238Y-77804819D02*
X142890476Y-77852438D01*
X142890476Y-77852438D02*
X142938095Y-77900057D01*
X142938095Y-77900057D02*
X142985714Y-77995295D01*
X142985714Y-77995295D02*
X142985714Y-78042914D01*
X142985714Y-78042914D02*
X142938095Y-78138152D01*
X142938095Y-78138152D02*
X142890476Y-78185771D01*
X142890476Y-78185771D02*
X142795238Y-78233390D01*
X142795238Y-78233390D02*
X142604762Y-78233390D01*
X142604762Y-78233390D02*
X142509524Y-78281009D01*
X142509524Y-78281009D02*
X142461905Y-78328628D01*
X142461905Y-78328628D02*
X142414286Y-78423866D01*
X142414286Y-78423866D02*
X142414286Y-78614342D01*
X142414286Y-78614342D02*
X142461905Y-78709580D01*
X142461905Y-78709580D02*
X142509524Y-78757200D01*
X142509524Y-78757200D02*
X142604762Y-78804819D01*
X142604762Y-78804819D02*
X142795238Y-78804819D01*
X142795238Y-78804819D02*
X142890476Y-78757200D01*
X142890476Y-78757200D02*
X142938095Y-78709580D01*
X142938095Y-78709580D02*
X142985714Y-78614342D01*
X142985714Y-78614342D02*
X142985714Y-78423866D01*
X142985714Y-78423866D02*
X142938095Y-78328628D01*
X142938095Y-78328628D02*
X142890476Y-78281009D01*
X142890476Y-78281009D02*
X142795238Y-78233390D01*
X126133333Y-73054819D02*
X125800000Y-72578628D01*
X125561905Y-73054819D02*
X125561905Y-72054819D01*
X125561905Y-72054819D02*
X125942857Y-72054819D01*
X125942857Y-72054819D02*
X126038095Y-72102438D01*
X126038095Y-72102438D02*
X126085714Y-72150057D01*
X126085714Y-72150057D02*
X126133333Y-72245295D01*
X126133333Y-72245295D02*
X126133333Y-72388152D01*
X126133333Y-72388152D02*
X126085714Y-72483390D01*
X126085714Y-72483390D02*
X126038095Y-72531009D01*
X126038095Y-72531009D02*
X125942857Y-72578628D01*
X125942857Y-72578628D02*
X125561905Y-72578628D01*
X127085714Y-73054819D02*
X126514286Y-73054819D01*
X126800000Y-73054819D02*
X126800000Y-72054819D01*
X126800000Y-72054819D02*
X126704762Y-72197676D01*
X126704762Y-72197676D02*
X126609524Y-72292914D01*
X126609524Y-72292914D02*
X126514286Y-72340533D01*
X98824819Y-73349523D02*
X99539104Y-73349523D01*
X99539104Y-73349523D02*
X99681961Y-73397142D01*
X99681961Y-73397142D02*
X99777200Y-73492380D01*
X99777200Y-73492380D02*
X99824819Y-73635237D01*
X99824819Y-73635237D02*
X99824819Y-73730475D01*
X99824819Y-72349523D02*
X99824819Y-72920951D01*
X99824819Y-72635237D02*
X98824819Y-72635237D01*
X98824819Y-72635237D02*
X98967676Y-72730475D01*
X98967676Y-72730475D02*
X99062914Y-72825713D01*
X99062914Y-72825713D02*
X99110533Y-72920951D01*
X98824819Y-71730475D02*
X98824819Y-71635237D01*
X98824819Y-71635237D02*
X98872438Y-71539999D01*
X98872438Y-71539999D02*
X98920057Y-71492380D01*
X98920057Y-71492380D02*
X99015295Y-71444761D01*
X99015295Y-71444761D02*
X99205771Y-71397142D01*
X99205771Y-71397142D02*
X99443866Y-71397142D01*
X99443866Y-71397142D02*
X99634342Y-71444761D01*
X99634342Y-71444761D02*
X99729580Y-71492380D01*
X99729580Y-71492380D02*
X99777200Y-71539999D01*
X99777200Y-71539999D02*
X99824819Y-71635237D01*
X99824819Y-71635237D02*
X99824819Y-71730475D01*
X99824819Y-71730475D02*
X99777200Y-71825713D01*
X99777200Y-71825713D02*
X99729580Y-71873332D01*
X99729580Y-71873332D02*
X99634342Y-71920951D01*
X99634342Y-71920951D02*
X99443866Y-71968570D01*
X99443866Y-71968570D02*
X99205771Y-71968570D01*
X99205771Y-71968570D02*
X99015295Y-71920951D01*
X99015295Y-71920951D02*
X98920057Y-71873332D01*
X98920057Y-71873332D02*
X98872438Y-71825713D01*
X98872438Y-71825713D02*
X98824819Y-71730475D01*
X147733333Y-60209580D02*
X147685714Y-60257200D01*
X147685714Y-60257200D02*
X147542857Y-60304819D01*
X147542857Y-60304819D02*
X147447619Y-60304819D01*
X147447619Y-60304819D02*
X147304762Y-60257200D01*
X147304762Y-60257200D02*
X147209524Y-60161961D01*
X147209524Y-60161961D02*
X147161905Y-60066723D01*
X147161905Y-60066723D02*
X147114286Y-59876247D01*
X147114286Y-59876247D02*
X147114286Y-59733390D01*
X147114286Y-59733390D02*
X147161905Y-59542914D01*
X147161905Y-59542914D02*
X147209524Y-59447676D01*
X147209524Y-59447676D02*
X147304762Y-59352438D01*
X147304762Y-59352438D02*
X147447619Y-59304819D01*
X147447619Y-59304819D02*
X147542857Y-59304819D01*
X147542857Y-59304819D02*
X147685714Y-59352438D01*
X147685714Y-59352438D02*
X147733333Y-59400057D01*
X148066667Y-59304819D02*
X148685714Y-59304819D01*
X148685714Y-59304819D02*
X148352381Y-59685771D01*
X148352381Y-59685771D02*
X148495238Y-59685771D01*
X148495238Y-59685771D02*
X148590476Y-59733390D01*
X148590476Y-59733390D02*
X148638095Y-59781009D01*
X148638095Y-59781009D02*
X148685714Y-59876247D01*
X148685714Y-59876247D02*
X148685714Y-60114342D01*
X148685714Y-60114342D02*
X148638095Y-60209580D01*
X148638095Y-60209580D02*
X148590476Y-60257200D01*
X148590476Y-60257200D02*
X148495238Y-60304819D01*
X148495238Y-60304819D02*
X148209524Y-60304819D01*
X148209524Y-60304819D02*
X148114286Y-60257200D01*
X148114286Y-60257200D02*
X148066667Y-60209580D01*
X176007200Y-92793332D02*
X176054819Y-92650475D01*
X176054819Y-92650475D02*
X176054819Y-92412380D01*
X176054819Y-92412380D02*
X176007200Y-92317142D01*
X176007200Y-92317142D02*
X175959580Y-92269523D01*
X175959580Y-92269523D02*
X175864342Y-92221904D01*
X175864342Y-92221904D02*
X175769104Y-92221904D01*
X175769104Y-92221904D02*
X175673866Y-92269523D01*
X175673866Y-92269523D02*
X175626247Y-92317142D01*
X175626247Y-92317142D02*
X175578628Y-92412380D01*
X175578628Y-92412380D02*
X175531009Y-92602856D01*
X175531009Y-92602856D02*
X175483390Y-92698094D01*
X175483390Y-92698094D02*
X175435771Y-92745713D01*
X175435771Y-92745713D02*
X175340533Y-92793332D01*
X175340533Y-92793332D02*
X175245295Y-92793332D01*
X175245295Y-92793332D02*
X175150057Y-92745713D01*
X175150057Y-92745713D02*
X175102438Y-92698094D01*
X175102438Y-92698094D02*
X175054819Y-92602856D01*
X175054819Y-92602856D02*
X175054819Y-92364761D01*
X175054819Y-92364761D02*
X175102438Y-92221904D01*
X175054819Y-91888570D02*
X176054819Y-91650475D01*
X176054819Y-91650475D02*
X175340533Y-91459999D01*
X175340533Y-91459999D02*
X176054819Y-91269523D01*
X176054819Y-91269523D02*
X175054819Y-91031428D01*
X175150057Y-90698094D02*
X175102438Y-90650475D01*
X175102438Y-90650475D02*
X175054819Y-90555237D01*
X175054819Y-90555237D02*
X175054819Y-90317142D01*
X175054819Y-90317142D02*
X175102438Y-90221904D01*
X175102438Y-90221904D02*
X175150057Y-90174285D01*
X175150057Y-90174285D02*
X175245295Y-90126666D01*
X175245295Y-90126666D02*
X175340533Y-90126666D01*
X175340533Y-90126666D02*
X175483390Y-90174285D01*
X175483390Y-90174285D02*
X176054819Y-90745713D01*
X176054819Y-90745713D02*
X176054819Y-90126666D01*
X146311905Y-44504819D02*
X146311905Y-43504819D01*
X146311905Y-43504819D02*
X146550000Y-43504819D01*
X146550000Y-43504819D02*
X146692857Y-43552438D01*
X146692857Y-43552438D02*
X146788095Y-43647676D01*
X146788095Y-43647676D02*
X146835714Y-43742914D01*
X146835714Y-43742914D02*
X146883333Y-43933390D01*
X146883333Y-43933390D02*
X146883333Y-44076247D01*
X146883333Y-44076247D02*
X146835714Y-44266723D01*
X146835714Y-44266723D02*
X146788095Y-44361961D01*
X146788095Y-44361961D02*
X146692857Y-44457200D01*
X146692857Y-44457200D02*
X146550000Y-44504819D01*
X146550000Y-44504819D02*
X146311905Y-44504819D01*
X147835714Y-44504819D02*
X147264286Y-44504819D01*
X147550000Y-44504819D02*
X147550000Y-43504819D01*
X147550000Y-43504819D02*
X147454762Y-43647676D01*
X147454762Y-43647676D02*
X147359524Y-43742914D01*
X147359524Y-43742914D02*
X147264286Y-43790533D01*
X117638095Y-70407200D02*
X117780952Y-70454819D01*
X117780952Y-70454819D02*
X118019047Y-70454819D01*
X118019047Y-70454819D02*
X118114285Y-70407200D01*
X118114285Y-70407200D02*
X118161904Y-70359580D01*
X118161904Y-70359580D02*
X118209523Y-70264342D01*
X118209523Y-70264342D02*
X118209523Y-70169104D01*
X118209523Y-70169104D02*
X118161904Y-70073866D01*
X118161904Y-70073866D02*
X118114285Y-70026247D01*
X118114285Y-70026247D02*
X118019047Y-69978628D01*
X118019047Y-69978628D02*
X117828571Y-69931009D01*
X117828571Y-69931009D02*
X117733333Y-69883390D01*
X117733333Y-69883390D02*
X117685714Y-69835771D01*
X117685714Y-69835771D02*
X117638095Y-69740533D01*
X117638095Y-69740533D02*
X117638095Y-69645295D01*
X117638095Y-69645295D02*
X117685714Y-69550057D01*
X117685714Y-69550057D02*
X117733333Y-69502438D01*
X117733333Y-69502438D02*
X117828571Y-69454819D01*
X117828571Y-69454819D02*
X118066666Y-69454819D01*
X118066666Y-69454819D02*
X118209523Y-69502438D01*
X119161904Y-70454819D02*
X118590476Y-70454819D01*
X118876190Y-70454819D02*
X118876190Y-69454819D01*
X118876190Y-69454819D02*
X118780952Y-69597676D01*
X118780952Y-69597676D02*
X118685714Y-69692914D01*
X118685714Y-69692914D02*
X118590476Y-69740533D01*
X173417142Y-97649580D02*
X173369523Y-97697200D01*
X173369523Y-97697200D02*
X173226666Y-97744819D01*
X173226666Y-97744819D02*
X173131428Y-97744819D01*
X173131428Y-97744819D02*
X172988571Y-97697200D01*
X172988571Y-97697200D02*
X172893333Y-97601961D01*
X172893333Y-97601961D02*
X172845714Y-97506723D01*
X172845714Y-97506723D02*
X172798095Y-97316247D01*
X172798095Y-97316247D02*
X172798095Y-97173390D01*
X172798095Y-97173390D02*
X172845714Y-96982914D01*
X172845714Y-96982914D02*
X172893333Y-96887676D01*
X172893333Y-96887676D02*
X172988571Y-96792438D01*
X172988571Y-96792438D02*
X173131428Y-96744819D01*
X173131428Y-96744819D02*
X173226666Y-96744819D01*
X173226666Y-96744819D02*
X173369523Y-96792438D01*
X173369523Y-96792438D02*
X173417142Y-96840057D01*
X174369523Y-97744819D02*
X173798095Y-97744819D01*
X174083809Y-97744819D02*
X174083809Y-96744819D01*
X174083809Y-96744819D02*
X173988571Y-96887676D01*
X173988571Y-96887676D02*
X173893333Y-96982914D01*
X173893333Y-96982914D02*
X173798095Y-97030533D01*
X175321904Y-97744819D02*
X174750476Y-97744819D01*
X175036190Y-97744819D02*
X175036190Y-96744819D01*
X175036190Y-96744819D02*
X174940952Y-96887676D01*
X174940952Y-96887676D02*
X174845714Y-96982914D01*
X174845714Y-96982914D02*
X174750476Y-97030533D01*
X138046666Y-29894819D02*
X138046666Y-30609104D01*
X138046666Y-30609104D02*
X137999047Y-30751961D01*
X137999047Y-30751961D02*
X137903809Y-30847200D01*
X137903809Y-30847200D02*
X137760952Y-30894819D01*
X137760952Y-30894819D02*
X137665714Y-30894819D01*
X139046666Y-30894819D02*
X138475238Y-30894819D01*
X138760952Y-30894819D02*
X138760952Y-29894819D01*
X138760952Y-29894819D02*
X138665714Y-30037676D01*
X138665714Y-30037676D02*
X138570476Y-30132914D01*
X138570476Y-30132914D02*
X138475238Y-30180533D01*
X137043333Y-90669580D02*
X136995714Y-90717200D01*
X136995714Y-90717200D02*
X136852857Y-90764819D01*
X136852857Y-90764819D02*
X136757619Y-90764819D01*
X136757619Y-90764819D02*
X136614762Y-90717200D01*
X136614762Y-90717200D02*
X136519524Y-90621961D01*
X136519524Y-90621961D02*
X136471905Y-90526723D01*
X136471905Y-90526723D02*
X136424286Y-90336247D01*
X136424286Y-90336247D02*
X136424286Y-90193390D01*
X136424286Y-90193390D02*
X136471905Y-90002914D01*
X136471905Y-90002914D02*
X136519524Y-89907676D01*
X136519524Y-89907676D02*
X136614762Y-89812438D01*
X136614762Y-89812438D02*
X136757619Y-89764819D01*
X136757619Y-89764819D02*
X136852857Y-89764819D01*
X136852857Y-89764819D02*
X136995714Y-89812438D01*
X136995714Y-89812438D02*
X137043333Y-89860057D01*
X137376667Y-89764819D02*
X138043333Y-89764819D01*
X138043333Y-89764819D02*
X137614762Y-90764819D01*
X144713333Y-44539819D02*
X144380000Y-44063628D01*
X144141905Y-44539819D02*
X144141905Y-43539819D01*
X144141905Y-43539819D02*
X144522857Y-43539819D01*
X144522857Y-43539819D02*
X144618095Y-43587438D01*
X144618095Y-43587438D02*
X144665714Y-43635057D01*
X144665714Y-43635057D02*
X144713333Y-43730295D01*
X144713333Y-43730295D02*
X144713333Y-43873152D01*
X144713333Y-43873152D02*
X144665714Y-43968390D01*
X144665714Y-43968390D02*
X144618095Y-44016009D01*
X144618095Y-44016009D02*
X144522857Y-44063628D01*
X144522857Y-44063628D02*
X144141905Y-44063628D01*
X145570476Y-43873152D02*
X145570476Y-44539819D01*
X145332381Y-43492200D02*
X145094286Y-44206485D01*
X145094286Y-44206485D02*
X145713333Y-44206485D01*
D12*
%TO.C,J4*%
X125110000Y-41370000D02*
X125110000Y-38710000D01*
X117430000Y-41370000D02*
X125110000Y-41370000D01*
X117430000Y-41370000D02*
X117430000Y-38710000D01*
X117430000Y-38710000D02*
X125110000Y-38710000D01*
X114830000Y-40040000D02*
X114830000Y-38710000D01*
X114830000Y-38710000D02*
X116160000Y-38710000D01*
%TO.C,R2*%
X136945000Y-42487936D02*
X136945000Y-42942064D01*
X138415000Y-42487936D02*
X138415000Y-42942064D01*
%TO.C,U1*%
X135630000Y-61975000D02*
X136580000Y-61975000D01*
X135630000Y-62925000D02*
X135630000Y-61975000D01*
X135630000Y-71245000D02*
X135630000Y-72195000D01*
X135630000Y-72195000D02*
X136580000Y-72195000D01*
X145850000Y-61975000D02*
X144900000Y-61975000D01*
X145850000Y-62925000D02*
X145850000Y-61975000D01*
X145850000Y-71245000D02*
X145850000Y-72195000D01*
X145850000Y-72195000D02*
X144900000Y-72195000D01*
X136580000Y-72810000D02*
X136110000Y-73150000D01*
X136110000Y-72470000D01*
X136580000Y-72810000D01*
G36*
X136580000Y-72810000D02*
G01*
X136110000Y-73150000D01*
X136110000Y-72470000D01*
X136580000Y-72810000D01*
G37*
%TO.C,R9*%
X121165000Y-77927064D02*
X121165000Y-77472936D01*
X122635000Y-77927064D02*
X122635000Y-77472936D01*
%TO.C,R3*%
X139125000Y-42962064D02*
X139125000Y-42507936D01*
X140595000Y-42962064D02*
X140595000Y-42507936D01*
%TO.C,C12*%
X97976248Y-96415000D02*
X98498752Y-96415000D01*
X97976248Y-97885000D02*
X98498752Y-97885000D01*
%TO.C,J6*%
X119450000Y-96250000D02*
X119450000Y-97500000D01*
X119740000Y-96540000D02*
X119740000Y-102510000D01*
X119740000Y-102510000D02*
X127360000Y-102510000D01*
X119750000Y-96550000D02*
X119750000Y-97300000D01*
X119750000Y-97300000D02*
X121550000Y-97300000D01*
X119750000Y-98800000D02*
X120500000Y-98800000D01*
X120500000Y-98800000D02*
X120500000Y-101750000D01*
X120500000Y-101750000D02*
X123550000Y-101750000D01*
X120700000Y-96250000D02*
X119450000Y-96250000D01*
X121550000Y-96550000D02*
X119750000Y-96550000D01*
X121550000Y-97300000D02*
X121550000Y-96550000D01*
X123050000Y-96550000D02*
X123050000Y-97300000D01*
X123050000Y-97300000D02*
X124050000Y-97300000D01*
X124050000Y-96550000D02*
X123050000Y-96550000D01*
X124050000Y-97300000D02*
X124050000Y-96550000D01*
X125550000Y-96550000D02*
X125550000Y-97300000D01*
X125550000Y-97300000D02*
X127350000Y-97300000D01*
X126600000Y-98800000D02*
X126600000Y-101750000D01*
X126600000Y-101750000D02*
X123550000Y-101750000D01*
X127350000Y-96550000D02*
X125550000Y-96550000D01*
X127350000Y-97300000D02*
X127350000Y-96550000D01*
X127350000Y-98800000D02*
X126600000Y-98800000D01*
X127360000Y-96540000D02*
X119740000Y-96540000D01*
X127360000Y-102510000D02*
X127360000Y-96540000D01*
%TO.C,J9*%
X177170000Y-48530000D02*
X177170000Y-33230000D01*
X179830000Y-33230000D02*
X177170000Y-33230000D01*
X179830000Y-48530000D02*
X177170000Y-48530000D01*
X179830000Y-48530000D02*
X179830000Y-33230000D01*
X179830000Y-49800000D02*
X179830000Y-51130000D01*
X179830000Y-51130000D02*
X178500000Y-51130000D01*
%TO.C,J8*%
X155390000Y-86940000D02*
X155390000Y-102060000D01*
X155390000Y-102060000D02*
X161360000Y-102060000D01*
X156150000Y-87700000D02*
X156150000Y-94500000D01*
X156150000Y-101300000D02*
X156150000Y-94500000D01*
X159100000Y-86950000D02*
X159100000Y-87700000D01*
X159100000Y-87700000D02*
X156150000Y-87700000D01*
X159100000Y-101300000D02*
X156150000Y-101300000D01*
X159100000Y-102050000D02*
X159100000Y-101300000D01*
X160600000Y-86950000D02*
X160600000Y-88750000D01*
X160600000Y-88750000D02*
X161350000Y-88750000D01*
X160600000Y-90250000D02*
X160600000Y-98750000D01*
X160600000Y-98750000D02*
X161350000Y-98750000D01*
X160600000Y-100250000D02*
X160600000Y-102050000D01*
X160600000Y-102050000D02*
X161350000Y-102050000D01*
X161350000Y-86950000D02*
X160600000Y-86950000D01*
X161350000Y-88750000D02*
X161350000Y-86950000D01*
X161350000Y-90250000D02*
X160600000Y-90250000D01*
X161350000Y-98750000D02*
X161350000Y-90250000D01*
X161350000Y-100250000D02*
X160600000Y-100250000D01*
X161350000Y-102050000D02*
X161350000Y-100250000D01*
X161360000Y-86940000D02*
X155390000Y-86940000D01*
X161360000Y-102060000D02*
X161360000Y-86940000D01*
X161650000Y-86650000D02*
X160400000Y-86650000D01*
X161650000Y-87900000D02*
X161650000Y-86650000D01*
%TO.C,J2*%
X175135000Y-78565000D02*
X175135000Y-60725000D01*
X175135000Y-81165000D02*
X175135000Y-79835000D01*
X176465000Y-81165000D02*
X175135000Y-81165000D01*
X177795000Y-60725000D02*
X175135000Y-60725000D01*
X177795000Y-78565000D02*
X175135000Y-78565000D01*
X177795000Y-78565000D02*
X177795000Y-60725000D01*
%TO.C,D4*%
X147450000Y-31475000D02*
X147450000Y-34335000D01*
X147450000Y-34335000D02*
X149370000Y-34335000D01*
X149370000Y-34335000D02*
X149370000Y-31475000D01*
%TO.C,Q1*%
X123440000Y-77662500D02*
X123440000Y-77012500D01*
X123440000Y-77662500D02*
X123440000Y-78312500D01*
X126560000Y-77662500D02*
X126560000Y-77012500D01*
X126560000Y-77662500D02*
X126560000Y-78312500D01*
X126840000Y-76740000D02*
X126510000Y-76500000D01*
X126840000Y-76260000D01*
X126840000Y-76740000D01*
G36*
X126840000Y-76740000D02*
G01*
X126510000Y-76500000D01*
X126840000Y-76260000D01*
X126840000Y-76740000D01*
G37*
%TO.C,D3*%
X130370000Y-76025000D02*
X130370000Y-78885000D01*
X132290000Y-76025000D02*
X130370000Y-76025000D01*
X132290000Y-78885000D02*
X132290000Y-76025000D01*
%TO.C,R5*%
X146120436Y-80835000D02*
X146574564Y-80835000D01*
X146120436Y-82305000D02*
X146574564Y-82305000D01*
D13*
%TO.C,LED1*%
X96050000Y-100700000D02*
X96050000Y-100700000D01*
X96150000Y-100700000D02*
X96150000Y-100700000D01*
X96850000Y-101500000D02*
X96850000Y-103100000D01*
X97950000Y-99800000D02*
X100750000Y-99800000D01*
X97950000Y-104800000D02*
X100750000Y-104800000D01*
X101850000Y-101500000D02*
X101850000Y-103100000D01*
X96050000Y-100700000D02*
G75*
G02*
X96150000Y-100700000I50000J0D01*
G01*
X96150000Y-100700000D02*
G75*
G02*
X96050000Y-100700000I-50000J0D01*
G01*
D12*
%TO.C,F1*%
X141960000Y-40973748D02*
X141960000Y-41496252D01*
X143380000Y-40973748D02*
X143380000Y-41496252D01*
%TO.C,C9*%
X137561252Y-74995000D02*
X137038748Y-74995000D01*
X137561252Y-76465000D02*
X137038748Y-76465000D01*
%TO.C,R10*%
X127365000Y-77859564D02*
X127365000Y-77405436D01*
X128835000Y-77859564D02*
X128835000Y-77405436D01*
%TO.C,R8*%
X176377064Y-84265000D02*
X175922936Y-84265000D01*
X176377064Y-85735000D02*
X175922936Y-85735000D01*
%TO.C,J11*%
X95210000Y-43710000D02*
X95210000Y-56330000D01*
X95210000Y-56330000D02*
X101180000Y-56330000D01*
X95970000Y-44470000D02*
X95970000Y-50020000D01*
X95970000Y-55570000D02*
X95970000Y-50020000D01*
X98920000Y-43720000D02*
X98920000Y-44470000D01*
X98920000Y-44470000D02*
X95970000Y-44470000D01*
X98920000Y-55570000D02*
X95970000Y-55570000D01*
X98920000Y-56320000D02*
X98920000Y-55570000D01*
X100420000Y-43720000D02*
X100420000Y-45520000D01*
X100420000Y-45520000D02*
X101170000Y-45520000D01*
X100420000Y-47020000D02*
X100420000Y-53020000D01*
X100420000Y-53020000D02*
X101170000Y-53020000D01*
X100420000Y-54520000D02*
X100420000Y-56320000D01*
X100420000Y-56320000D02*
X101170000Y-56320000D01*
X101170000Y-43720000D02*
X100420000Y-43720000D01*
X101170000Y-45520000D02*
X101170000Y-43720000D01*
X101170000Y-47020000D02*
X100420000Y-47020000D01*
X101170000Y-53020000D02*
X101170000Y-47020000D01*
X101170000Y-54520000D02*
X100420000Y-54520000D01*
X101170000Y-56320000D02*
X101170000Y-54520000D01*
X101180000Y-43710000D02*
X95210000Y-43710000D01*
X101180000Y-56330000D02*
X101180000Y-43710000D01*
X101470000Y-43420000D02*
X100220000Y-43420000D01*
X101470000Y-44670000D02*
X101470000Y-43420000D01*
D14*
%TO.C,MDBT42T-AT1*%
X154800000Y-38140000D02*
X154800000Y-36670000D01*
X154800000Y-38140000D02*
X155850000Y-38140000D01*
X162000000Y-31030000D02*
X162000000Y-35120000D01*
X162000000Y-38140000D02*
X160910000Y-38140000D01*
X162000000Y-38140000D02*
X162000000Y-36640000D01*
D12*
%TO.C,C2*%
X134801252Y-59605000D02*
X134278748Y-59605000D01*
X134801252Y-61075000D02*
X134278748Y-61075000D01*
%TO.C,R6*%
X132865000Y-77657936D02*
X132865000Y-78112064D01*
X134335000Y-77657936D02*
X134335000Y-78112064D01*
%TO.C,R7*%
X149905000Y-32702064D02*
X149905000Y-32247936D01*
X151375000Y-32702064D02*
X151375000Y-32247936D01*
%TO.C,C4*%
X148225000Y-71078748D02*
X148225000Y-71601252D01*
X149695000Y-71078748D02*
X149695000Y-71601252D01*
%TO.C,U2*%
X137220000Y-48647500D02*
X137220000Y-47847500D01*
X137220000Y-48647500D02*
X137220000Y-49447500D01*
X140340000Y-48647500D02*
X140340000Y-47847500D01*
X140340000Y-48647500D02*
X140340000Y-49447500D01*
X140620000Y-47587500D02*
X140290000Y-47347500D01*
X140620000Y-47107500D01*
X140620000Y-47587500D01*
G36*
X140620000Y-47587500D02*
G01*
X140290000Y-47347500D01*
X140620000Y-47107500D01*
X140620000Y-47587500D01*
G37*
%TO.C,C5*%
X146128748Y-75555000D02*
X146651252Y-75555000D01*
X146128748Y-77025000D02*
X146651252Y-77025000D01*
%TO.C,J3*%
X133780000Y-99520000D02*
X135110000Y-99520000D01*
X133780000Y-100850000D02*
X133780000Y-99520000D01*
X136380000Y-99520000D02*
X144060000Y-99520000D01*
X136380000Y-102180000D02*
X136380000Y-99520000D01*
X136380000Y-102180000D02*
X144060000Y-102180000D01*
X144060000Y-102180000D02*
X144060000Y-99520000D01*
%TO.C,J7*%
X162570000Y-52880000D02*
X162570000Y-46910000D01*
X162570000Y-46910000D02*
X149950000Y-46910000D01*
X162560000Y-49170000D02*
X161810000Y-49170000D01*
X162560000Y-47670000D02*
X162560000Y-46920000D01*
X162560000Y-46920000D02*
X160760000Y-46920000D01*
X161810000Y-52120000D02*
X156260000Y-52120000D01*
X161810000Y-49170000D02*
X161810000Y-52120000D01*
X160760000Y-47670000D02*
X162560000Y-47670000D01*
X160760000Y-46920000D02*
X160760000Y-47670000D01*
X159260000Y-47670000D02*
X159260000Y-46920000D01*
X159260000Y-46920000D02*
X153260000Y-46920000D01*
X153260000Y-47670000D02*
X159260000Y-47670000D01*
X153260000Y-46920000D02*
X153260000Y-47670000D01*
X151760000Y-47670000D02*
X151760000Y-46920000D01*
X151760000Y-46920000D02*
X149960000Y-46920000D01*
X150910000Y-46620000D02*
X149660000Y-46620000D01*
X150710000Y-52120000D02*
X156260000Y-52120000D01*
X150710000Y-49170000D02*
X150710000Y-52120000D01*
X149960000Y-49170000D02*
X150710000Y-49170000D01*
X149960000Y-47670000D02*
X151760000Y-47670000D01*
X149960000Y-46920000D02*
X149960000Y-47670000D01*
X149950000Y-52880000D02*
X162570000Y-52880000D01*
X149950000Y-46910000D02*
X149950000Y-52880000D01*
X149660000Y-46620000D02*
X149660000Y-47870000D01*
%TO.C,Y2*%
X137052500Y-77420000D02*
X137052500Y-80720000D01*
X137052500Y-80720000D02*
X141052500Y-80720000D01*
D15*
%TO.C,SW1*%
X132670000Y-84180000D02*
X132670000Y-84180000D01*
X132670000Y-84380000D02*
X132670000Y-84380000D01*
D13*
X134570000Y-82530000D02*
X140570000Y-82530000D01*
X134570000Y-83280000D02*
X134570000Y-82530000D01*
X134570000Y-85280000D02*
X134570000Y-86030000D01*
X134570000Y-86030000D02*
X140570000Y-86030000D01*
X140570000Y-82530000D02*
X140570000Y-83280000D01*
X140570000Y-86030000D02*
X140570000Y-85280000D01*
D15*
X132670000Y-84180000D02*
G75*
G02*
X132670000Y-84380000I0J-100000D01*
G01*
X132670000Y-84380000D02*
G75*
G02*
X132670000Y-84180000I0J100000D01*
G01*
D12*
%TO.C,C6*%
X146128748Y-77845000D02*
X146651252Y-77845000D01*
X146128748Y-79315000D02*
X146651252Y-79315000D01*
%TO.C,J5*%
X108900000Y-96225000D02*
X108900000Y-97475000D01*
X109190000Y-96515000D02*
X109190000Y-102485000D01*
X109190000Y-102485000D02*
X116810000Y-102485000D01*
X109200000Y-96525000D02*
X109200000Y-97275000D01*
X109200000Y-97275000D02*
X111000000Y-97275000D01*
X109200000Y-98775000D02*
X109950000Y-98775000D01*
X109950000Y-98775000D02*
X109950000Y-101725000D01*
X109950000Y-101725000D02*
X113000000Y-101725000D01*
X110150000Y-96225000D02*
X108900000Y-96225000D01*
X111000000Y-96525000D02*
X109200000Y-96525000D01*
X111000000Y-97275000D02*
X111000000Y-96525000D01*
X112500000Y-96525000D02*
X112500000Y-97275000D01*
X112500000Y-97275000D02*
X113500000Y-97275000D01*
X113500000Y-96525000D02*
X112500000Y-96525000D01*
X113500000Y-97275000D02*
X113500000Y-96525000D01*
X115000000Y-96525000D02*
X115000000Y-97275000D01*
X115000000Y-97275000D02*
X116800000Y-97275000D01*
X116050000Y-98775000D02*
X116050000Y-101725000D01*
X116050000Y-101725000D02*
X113000000Y-101725000D01*
X116800000Y-96525000D02*
X115000000Y-96525000D01*
X116800000Y-97275000D02*
X116800000Y-96525000D01*
X116800000Y-98775000D02*
X116050000Y-98775000D01*
X116810000Y-96515000D02*
X109190000Y-96515000D01*
X116810000Y-102485000D02*
X116810000Y-96515000D01*
%TO.C,D2*%
X147467500Y-84910000D02*
X150327500Y-84910000D01*
X150327500Y-82990000D02*
X147467500Y-82990000D01*
X150327500Y-84910000D02*
X150327500Y-82990000D01*
%TO.C,C1*%
X133361252Y-71955000D02*
X132838748Y-71955000D01*
X133361252Y-73425000D02*
X132838748Y-73425000D01*
D13*
%TO.C,LED2*%
X173060000Y-102940000D02*
X173060000Y-101340000D01*
X176960000Y-99640000D02*
X174160000Y-99640000D01*
X176960000Y-104640000D02*
X174160000Y-104640000D01*
X178060000Y-102940000D02*
X178060000Y-101340000D01*
X178760000Y-103740000D02*
X178760000Y-103740000D01*
X178860000Y-103740000D02*
X178860000Y-103740000D01*
X178760000Y-103740000D02*
G75*
G02*
X178860000Y-103740000I50000J0D01*
G01*
X178860000Y-103740000D02*
G75*
G02*
X178760000Y-103740000I-50000J0D01*
G01*
D12*
%TO.C,C8*%
X141088748Y-75405000D02*
X141611252Y-75405000D01*
X141088748Y-76875000D02*
X141611252Y-76875000D01*
%TO.C,R1*%
X123565000Y-72172936D02*
X123565000Y-72627064D01*
X125035000Y-72172936D02*
X125035000Y-72627064D01*
%TO.C,J10*%
X94760000Y-80360000D02*
X94760000Y-81610000D01*
X94760000Y-81610000D02*
X96010000Y-81610000D01*
X95050000Y-63700000D02*
X95050000Y-81320000D01*
X95050000Y-81320000D02*
X101020000Y-81320000D01*
X95060000Y-63710000D02*
X95060000Y-65510000D01*
X95060000Y-65510000D02*
X95810000Y-65510000D01*
X95060000Y-67010000D02*
X95060000Y-78010000D01*
X95060000Y-78010000D02*
X95810000Y-78010000D01*
X95060000Y-79510000D02*
X95060000Y-81310000D01*
X95060000Y-81310000D02*
X95810000Y-81310000D01*
X95810000Y-63710000D02*
X95060000Y-63710000D01*
X95810000Y-65510000D02*
X95810000Y-63710000D01*
X95810000Y-67010000D02*
X95060000Y-67010000D01*
X95810000Y-78010000D02*
X95810000Y-67010000D01*
X95810000Y-79510000D02*
X95060000Y-79510000D01*
X95810000Y-81310000D02*
X95810000Y-79510000D01*
X97310000Y-63710000D02*
X97310000Y-64460000D01*
X97310000Y-64460000D02*
X100260000Y-64460000D01*
X97310000Y-80560000D02*
X100260000Y-80560000D01*
X97310000Y-81310000D02*
X97310000Y-80560000D01*
X100260000Y-64460000D02*
X100260000Y-72510000D01*
X100260000Y-80560000D02*
X100260000Y-72510000D01*
X101020000Y-63700000D02*
X95050000Y-63700000D01*
X101020000Y-81320000D02*
X101020000Y-63700000D01*
%TO.C,C3*%
X147638748Y-60715000D02*
X148161252Y-60715000D01*
X147638748Y-62185000D02*
X148161252Y-62185000D01*
%TO.C,SW2*%
X173150000Y-89010000D02*
X173150000Y-93910000D01*
X173150000Y-89010000D02*
X173200000Y-89010000D01*
X173150000Y-93910000D02*
X173200000Y-93910000D01*
X176350000Y-89010000D02*
X174850000Y-89010000D01*
X176350000Y-93910000D02*
X174850000Y-93910000D01*
X178050000Y-89010000D02*
X178000000Y-89010000D01*
X178050000Y-89010000D02*
X178050000Y-93910000D01*
X178050000Y-93910000D02*
X178000000Y-93910000D01*
%TO.C,D1*%
X146200000Y-40185000D02*
X146200000Y-43045000D01*
X146200000Y-43045000D02*
X148120000Y-43045000D01*
X148120000Y-43045000D02*
X148120000Y-40185000D01*
D14*
%TO.C,S1*%
X113900000Y-68200000D02*
X113900000Y-71800000D01*
X113900000Y-71800000D02*
X114980000Y-71800000D01*
X114980000Y-68200000D02*
X113900000Y-68200000D01*
X121820000Y-71800000D02*
X122900000Y-71800000D01*
X122900000Y-68200000D02*
X121820000Y-68200000D01*
X122900000Y-71800000D02*
X122900000Y-68200000D01*
D15*
X114660000Y-72750000D02*
G75*
G02*
X114460000Y-72750000I-100000J0D01*
G01*
X114460000Y-72750000D02*
G75*
G02*
X114660000Y-72750000I100000J0D01*
G01*
D12*
%TO.C,C11*%
X177811252Y-96715000D02*
X177288748Y-96715000D01*
X177811252Y-98185000D02*
X177288748Y-98185000D01*
%TO.C,J1*%
X134470000Y-32560000D02*
X134470000Y-35790000D01*
X136270000Y-37710000D02*
X135190000Y-37710000D01*
X140490000Y-37710000D02*
X140490000Y-38140000D01*
X141570000Y-37710000D02*
X140490000Y-37710000D01*
X142290000Y-32560000D02*
X142290000Y-35790000D01*
%TO.C,C7*%
X137471252Y-87895000D02*
X136948748Y-87895000D01*
X137471252Y-89365000D02*
X136948748Y-89365000D01*
%TO.C,R4*%
X144145000Y-41442064D02*
X144145000Y-40987936D01*
X145615000Y-41442064D02*
X145615000Y-40987936D01*
%TD*%
M02*
